<svg width="100" height="100" viewBox="0 0 100 100" fill="none" xmlns="http://www.w3.org/2000/svg">
<mask id="mask0_1346_594" style="mask-type:luminance" maskUnits="userSpaceOnUse" x="0" y="0" width="100" height="100">
<path d="M0 0H100V100H0V0Z" fill="white"/>
</mask>
<g mask="url(#mask0_1346_594)">
<path d="M17.3223 2.08768C21.5431 1.94877 25.7608 2.44343 29.8348 3.55518C34.1673 4.97018 38.1648 9.91768 38.1648 14.4352C38.1648 17.3052 37.0498 21.0952 34.6823 21.8302C31.1874 22.8506 27.5603 23.346 23.9198 23.3002C23.9625 26.9395 23.468 30.5652 22.4523 34.0602C21.7173 36.3852 17.8773 37.5452 15.0323 37.5452C12.2073 37.5452 3.74983 33.6077 2.81732 30.6002C1.69232 26.5275 1.18831 22.3083 1.32233 18.0852V16.6277C1.30983 10.2852 1.29733 6.95018 3.59733 4.45768C5.82233 2.04018 9.30233 2.05518 15.2898 2.08268L17.3223 2.08768ZM2.81732 65.9602C1.70817 70.0356 1.21273 74.2536 1.34732 78.4752C1.34732 79.2252 1.34483 79.9418 1.33983 80.6252C1.30983 86.5577 1.29482 89.9877 3.71482 92.2002C9.02732 97.0427 14.3748 98.0352 21.4823 98.0302H22.2623C26.4832 98.1683 30.7009 97.6728 34.7748 96.5602C37.1448 95.8027 38.2598 92.0102 38.2598 89.1427C38.2598 84.6452 34.3098 79.6652 29.9548 78.2852C27.9527 77.6816 25.9028 77.2501 23.8273 76.9952C23.6373 74.4313 23.184 71.8938 22.4748 69.4227C21.4873 66.4027 13.0748 62.5002 10.2123 62.5002C7.34232 62.5002 3.54982 63.6402 2.81732 65.9602ZM70.0673 96.4677C74.1423 97.5802 78.3598 98.0752 82.5823 97.9352C83.329 97.9352 84.0423 97.9377 84.7223 97.9427C90.6423 97.9727 94.0923 97.9902 96.3048 95.5677C98.6798 92.9627 98.6798 89.3902 98.6748 82.6227V81.8427C98.8132 77.621 98.3177 73.4024 97.2048 69.3277C96.0223 66.2702 87.8548 62.5027 84.8698 62.5027C81.9073 62.5027 78.1873 63.6627 77.4523 65.9852C76.438 69.4728 75.9426 73.0908 75.9823 76.7227C72.3441 76.6727 68.7184 77.1596 65.2223 78.1677C62.8523 78.9027 61.7373 82.7177 61.7373 85.5852C61.7373 90.0777 65.7273 95.0927 70.0673 96.4652V96.4677ZM96.1848 7.80018C90.8748 2.95518 85.5248 1.96518 78.4198 1.96768H77.6423C73.4193 1.83285 69.2002 2.33602 65.1273 3.46018C62.9223 4.29018 61.7623 8.10768 61.7623 10.9502C61.7623 15.4502 65.7123 20.4527 70.0673 21.8302C72.0373 22.4052 74.0407 22.8118 76.0773 23.0502C76.2648 25.6027 76.7148 28.1352 77.4273 30.6002C78.4873 34.0177 86.4123 37.5452 89.6673 37.5452C92.5348 37.5452 96.3523 36.3602 97.0873 34.0377C98.1998 29.9627 98.6948 25.7452 98.5548 21.5227C98.5548 20.776 98.5573 20.0627 98.5623 19.3827C98.5923 13.4627 98.6073 10.0102 96.1848 7.80018Z" fill="#00034A" stroke="#00034A" stroke-width="2.5" stroke-miterlimit="10"/>
<path d="M77.2498 51.743C77.2498 65.488 66.1073 76.628 52.3623 76.628C37.8273 76.628 22.6548 62.9855 22.6548 48.2805C22.6548 34.5355 33.7973 23.3955 47.5398 23.3955C62.0773 23.3955 77.2498 37.038 77.2498 51.743Z" fill="#00034A" stroke="#00034A" stroke-width="2.5" stroke-miterlimit="10"/>
<path d="M29.8348 3.55511C25.7616 2.44361 21.5447 1.94894 17.3248 2.08761C10.0723 2.08761 6.06481 1.77761 3.59981 4.45761C1.13481 7.13261 1.32481 10.7826 1.32481 18.0826C1.19435 22.3064 1.69829 26.5259 2.81981 30.6001C3.55231 32.9701 7.36981 34.0826 10.2148 34.0826C13.0573 34.0826 16.8973 32.9226 17.6323 30.6001C18.6473 27.1026 19.1423 23.4776 19.1023 19.8376C22.7423 19.8876 26.3673 19.3901 29.8623 18.3701C32.2323 17.6351 33.3448 13.8426 33.3448 10.9751C33.3448 8.10761 32.1623 4.31511 29.8373 3.55511H29.8348ZM92.2648 30.5751C93.3773 26.5001 93.8723 22.2826 93.7348 18.0601C93.7348 10.8101 94.0673 6.80261 91.3648 4.33761C88.6623 1.87261 84.9148 1.96761 77.6398 1.96761C73.4177 1.83303 69.1994 2.33619 65.1273 3.46011C62.9223 4.29011 61.7623 8.10761 61.7623 10.9501C61.7623 13.7926 62.9223 17.6351 65.2448 18.3701C68.7323 19.3851 72.3498 19.8801 75.9823 19.8376C75.932 23.4767 76.419 27.1032 77.4273 30.6001C78.1623 32.9701 81.9773 34.0826 84.8473 34.0826C87.7173 34.0826 91.5298 32.8976 92.2648 30.5751ZM2.81731 65.9601C1.70816 70.0356 1.21272 74.2536 1.34731 78.4751C1.34731 85.7501 1.01481 89.7351 3.71731 92.2001C6.41731 94.6626 10.1648 94.5676 17.4423 94.5676C21.663 94.7065 25.8808 94.2119 29.9548 93.1001C32.3248 92.3401 33.4373 88.5501 33.4373 85.6801C33.4373 82.8101 32.2773 79.0201 29.9548 78.2851C26.435 77.2243 22.7759 76.6976 19.0998 76.7226C19.1485 73.0833 18.6599 69.4568 17.6498 65.9601C16.8973 63.6401 13.0748 62.5001 10.2148 62.5001C7.34481 62.5001 3.55231 63.6376 2.81981 65.9601H2.81731ZM65.2448 93.0051C69.3198 94.1176 73.5373 94.6126 77.7598 94.4751C85.0098 94.4751 89.0173 94.8051 91.4848 92.1051C93.9473 89.4026 93.8523 85.6551 93.8523 78.3801C93.9904 74.1592 93.4949 69.9415 92.3823 65.8676C91.5323 63.6626 87.8323 62.5001 84.8698 62.5001C81.9073 62.5001 78.1873 63.6626 77.4523 65.9851C76.4379 69.4727 75.9426 73.0907 75.9823 76.7226C72.3441 76.6726 68.7184 77.1595 65.2223 78.1676C62.8523 78.9026 61.7373 82.7176 61.7373 85.5851C61.7373 88.4526 62.9223 92.2701 65.2448 93.0051Z" fill="white" stroke="#00034A" stroke-width="2.5" stroke-miterlimit="10"/>
<path d="M47.5398 73.168C61.2848 73.168 72.4273 62.0255 72.4273 48.2805C72.4273 34.5355 61.2848 23.3955 47.5398 23.3955C33.7973 23.3955 22.6548 34.5355 22.6548 48.2805C22.6548 62.0255 33.7973 73.168 47.5398 73.168Z" fill="#9BFF00" stroke="#00034A" stroke-width="2.5" stroke-miterlimit="10"/>
<path d="M36.6374 48.2797C37.2507 48.2938 37.8607 48.187 38.4327 47.9654C39.0047 47.7437 39.5274 47.4116 39.9711 46.9879C40.4147 46.5642 40.7705 46.0574 41.0183 45.4962C41.266 44.935 41.4008 44.3305 41.4149 43.7172C41.429 43.1039 41.3222 42.4939 41.1005 41.9219C40.8789 41.3499 40.5467 40.8272 40.1231 40.3835C39.6994 39.9399 39.1925 39.5841 38.6313 39.3363C38.0701 39.0886 37.4657 38.9538 36.8524 38.9397C35.6138 38.9112 34.4147 39.3759 33.5187 40.2315C32.6227 41.0871 32.1034 42.2637 32.0749 43.5022C32.0464 44.7408 32.511 45.9399 33.3667 46.8359C34.2223 47.7318 35.3988 48.2512 36.6374 48.2797ZM58.4199 48.2797C59.0332 48.2938 59.6432 48.187 60.2152 47.9654C60.7872 47.7437 61.3099 47.4116 61.7536 46.9879C62.1972 46.5642 62.553 46.0574 62.8008 45.4962C63.0485 44.935 63.1833 44.3305 63.1974 43.7172C63.2115 43.1039 63.1047 42.4939 62.883 41.9219C62.6614 41.3499 62.3293 40.8272 61.9056 40.3835C61.4819 39.9399 60.975 39.5841 60.4138 39.3363C59.8526 39.0886 59.2482 38.9538 58.6349 38.9397C57.3963 38.9112 56.1972 39.3759 55.3012 40.2315C54.4053 41.0871 53.8859 42.2637 53.8574 43.5022C53.8289 44.7408 54.2935 45.9399 55.1492 46.8359C56.0048 47.7318 57.1813 48.2512 58.4199 48.2797Z" fill="#00034A"/>
<path d="M52.0375 51.4053C52.0525 53.3403 50.0475 54.9278 47.555 54.9478C45.0625 54.9678 43.03 53.4153 43.015 51.4803" stroke="#00034A" stroke-width="2.5" stroke-linecap="round"/>
</g>
</svg>
