<svg width="100" height="100" viewBox="0 0 100 100" fill="none" xmlns="http://www.w3.org/2000/svg">
<path d="M81.7124 24.449C82.4199 25.1265 82.9899 26.3865 83.3374 28.4065C84.3724 28.6465 85.1649 28.9565 85.7474 29.3215C87.0349 30.124 89.5899 31.5915 89.5899 33.2265C89.5899 34.824 87.9674 36.159 83.5324 36.6115C83.0799 41.0465 81.7674 42.669 80.1699 42.669C79.5949 42.669 76.7749 40.804 76.1549 40.244C75.4199 39.5765 74.8224 38.3065 74.4674 36.2415C73.6557 36.0705 72.8744 35.7781 72.1499 35.374C70.8349 34.584 68.2149 33.039 68.2149 31.399C68.2149 29.824 69.8374 28.489 74.2699 28.0365C74.7249 23.6015 76.0599 21.979 77.6549 21.979C78.2199 21.979 81.1174 23.879 81.7124 24.449ZM62.7049 6.95902C61.4424 6.95902 60.3224 8.24652 60.0124 11.729C56.4624 12.0865 55.2449 13.159 55.2449 14.4215C55.2449 15.954 58.8199 18.1315 60.2149 18.5415C60.4649 19.829 60.8324 20.684 61.2849 21.2065C61.7999 21.7965 64.6924 23.714 65.2199 23.714C66.5099 23.714 67.6074 22.4015 67.9174 18.944C71.3274 18.6115 72.6849 17.539 72.6849 16.2515C72.6849 14.714 69.1174 12.534 67.7099 12.1315C67.3899 10.4515 66.8474 9.50652 66.1949 9.07652C65.4024 8.55652 63.4424 6.95902 62.7049 6.95902ZM82.3524 8.77152C82.3524 7.20402 83.6249 5.93652 85.1899 5.93652C86.9749 5.93652 89.5899 7.99152 89.5899 9.81152C89.5899 11.379 88.3174 12.649 86.7524 12.649C84.9674 12.649 82.3524 10.5915 82.3524 8.77402V8.77152Z" fill="#00034A" stroke="#00034A" stroke-width="2.5" stroke-miterlimit="10" stroke-linecap="round"/>
<path d="M48.7124 23.8622C45.6874 23.6697 34.2174 28.3472 24.8699 33.0172C15.5249 37.6922 4.98488 44.0097 3.41238 46.5372C0.552383 50.8297 3.41238 59.5997 6.72738 66.1822C9.61238 71.9097 16.0724 82.6722 23.6424 83.1722C26.6699 83.3872 38.1124 78.7147 47.4849 74.0422C56.8524 69.3672 67.4174 63.0272 69.0599 60.4747C71.8274 56.2072 68.9399 47.4597 65.6524 40.8547C62.7649 35.0647 56.3149 24.3922 48.7124 23.8622Z" fill="#00034A" stroke="#00034A" stroke-width="2.5" stroke-miterlimit="10"/>
<path d="M65.8074 57.9797C68.5724 53.7122 65.6874 44.9647 62.3974 38.3572C59.1074 31.7547 53.8374 24.2197 48.7124 23.8622C45.6874 23.6697 34.2174 28.3472 24.8699 33.0172C15.5249 37.6922 4.98488 44.0097 3.41238 46.5372C0.552383 50.8297 3.41238 59.5997 6.72738 66.1822C10.0399 72.7597 15.3324 80.3422 20.3874 80.6772C23.4174 80.8922 34.8599 76.2172 44.2299 71.5472C53.5999 66.8722 64.1649 60.5322 65.8074 57.9797Z" fill="#9BFF00" stroke="#00034A" stroke-width="2.5" stroke-miterlimit="10"/>
<path d="M41.9647 34.6152C42.8764 36.1968 44.3303 37.3944 46.0572 37.9864C47.784 38.5784 49.6669 38.5247 51.3572 37.8352C53.6224 40.7804 55.3058 44.1301 56.3172 47.7052C54.7243 48.6415 53.5295 50.1289 52.9588 51.8862C52.388 53.6436 52.4809 55.5492 53.2197 57.2427C44.9181 62.1988 36.2358 66.4873 27.2547 70.0677C26.338 68.4532 24.8591 67.2326 23.1001 66.6387C21.341 66.0448 19.4249 66.1192 17.7172 66.8477C15.4384 63.9388 13.8124 60.5734 12.9497 56.9802C14.5387 56.0404 15.7287 54.5515 16.2952 52.7944C16.8617 51.0374 16.7655 49.1337 16.0247 47.4427C24.3132 42.4785 32.9879 38.1897 41.9647 34.6177" fill="white"/>
<path d="M41.9647 34.6152C42.8764 36.1968 44.3303 37.3944 46.0572 37.9864C47.784 38.5784 49.6669 38.5247 51.3572 37.8352C53.6224 40.7804 55.3058 44.1301 56.3172 47.7052C54.7243 48.6415 53.5295 50.1289 52.9588 51.8862C52.388 53.6436 52.4809 55.5492 53.2197 57.2427C44.9181 62.1988 36.2358 66.4873 27.2547 70.0677C26.338 68.4532 24.8591 67.2326 23.1001 66.6387C21.341 66.0448 19.4249 66.1192 17.7172 66.8477C15.4384 63.9388 13.8124 60.5734 12.9497 56.9802C14.5387 56.0404 15.7287 54.5515 16.2952 52.7944C16.8617 51.0374 16.7655 49.1337 16.0247 47.4427C24.3132 42.4785 32.9879 38.1897 41.9647 34.6177" stroke="#00034A" stroke-width="2.5" stroke-linecap="round" stroke-linejoin="round"/>
<path d="M34.5748 60.1262C40.6123 60.2337 44.5023 53.7637 41.5748 48.4812C40.8843 47.2358 39.8682 46.2017 38.6351 45.4896C37.402 44.7775 35.9985 44.4142 34.5748 44.4387C28.5373 44.5462 24.8773 51.1512 27.9898 56.3262C28.6757 57.4655 29.6397 58.4119 30.7915 59.0765C31.9434 59.7412 33.2451 60.1024 34.5748 60.1262Z" fill="#9BFF00" stroke="#00034A" stroke-width="2.5" stroke-miterlimit="10"/>
<path d="M76.3449 48.3701C64.2674 48.3701 60.0024 53.5501 59.4649 54.2026C59.4432 54.231 59.4265 54.2501 59.4149 54.2601C57.9899 56.0001 57.4849 63.6076 57.4849 70.1401C57.4849 76.6726 57.9874 84.2776 59.4174 86.0176L59.4424 86.0451C64.0149 91.8351 71.8074 94.0651 78.9024 94.0651C90.9874 94.0651 95.2474 88.9026 95.7824 88.2551L95.8324 88.2001C97.2599 86.4576 97.7599 78.8551 97.7599 72.3226C97.7599 65.7901 97.2599 58.2551 95.8274 56.4426L95.8049 56.4151C91.2374 50.6151 83.4449 48.3701 76.3449 48.3701Z" fill="#00034A" stroke="#00034A" stroke-width="2.5" stroke-miterlimit="10"/>
<path d="M93.2749 54.2601C93.0574 53.9976 88.9349 48.3701 76.3449 48.3701C63.7574 48.3701 59.6549 53.9976 59.4199 54.2601C57.9874 56.0001 57.4849 63.6076 57.4849 70.1401C57.4849 76.6726 57.9874 84.2776 59.4174 86.0176C59.6324 86.2801 63.7574 91.8826 76.3424 91.8826C88.9274 91.8826 93.0349 86.2826 93.2724 86.0176C94.7024 84.2776 95.2049 76.6726 95.2049 70.1401C95.2049 63.6076 94.7049 56.0726 93.2724 54.2601H93.2749Z" fill="white" stroke="#00034A" stroke-width="2.5" stroke-miterlimit="10"/>
<path d="M91.3899 59.9814C88.6949 62.6989 83.6899 64.3189 76.3449 64.3189C68.9999 64.3189 63.9949 62.6989 61.2999 59.9839M91.3899 70.1389C88.6949 72.8564 83.6899 74.4764 76.3449 74.4764C68.9999 74.4764 63.9949 72.7614 61.2999 70.1414M91.3899 78.8414C88.6949 81.5589 83.6899 83.1789 76.3449 83.1789C68.9999 83.1789 63.9949 81.5589 61.2999 78.8414" stroke="#00034A" stroke-width="2.5" stroke-miterlimit="10" stroke-linecap="round"/>
<path d="M76.3449 58.9093C80.5849 58.9093 84.0224 57.6093 84.0224 55.9993C84.0224 54.3943 80.5849 53.0918 76.3449 53.0918C72.1074 53.0918 68.6699 54.3918 68.6699 55.9993C68.6699 57.6068 72.1049 58.9093 76.3449 58.9093Z" fill="white" stroke="#00034A" stroke-width="2.5" stroke-miterlimit="10"/>
<path d="M87.0749 31.398C87.0749 29.823 85.4524 28.488 81.0174 28.0355C80.5649 23.6005 79.2524 21.978 77.6574 21.978C76.0574 21.978 74.7249 23.6005 74.2699 28.0355C69.8349 28.488 68.2149 29.823 68.2149 31.398C68.2149 32.973 69.8374 34.328 74.2699 34.783C74.7249 39.218 76.0599 40.838 77.6549 40.838C79.2549 40.838 80.5649 39.218 81.0174 34.783C85.4524 34.328 87.0749 32.993 87.0749 31.398ZM70.1699 14.4205C70.1699 13.158 68.8799 12.038 65.4024 11.728C65.0449 8.17551 63.9724 6.95801 62.7074 6.95801C61.4424 6.95801 60.3224 8.24551 60.0124 11.728C56.4624 12.0855 55.2449 13.158 55.2449 14.4205C55.2449 15.683 56.5574 16.8055 60.0124 17.1155C60.3724 20.668 61.4199 21.8855 62.7074 21.8855C63.9949 21.8855 65.0924 20.5705 65.4024 17.1155C68.8124 16.783 70.1699 15.7105 70.1699 14.4205Z" fill="#9BFF00" stroke="#00034A" stroke-width="2.5" stroke-miterlimit="10"/>
<path d="M85.1899 11.6076C85.9425 11.6076 86.6642 11.3087 87.1963 10.7765C87.7285 10.2444 88.0274 9.52267 88.0274 8.77012C88.0274 8.01757 87.7285 7.29584 87.1963 6.7637C86.6642 6.23157 85.9425 5.93262 85.1899 5.93262C84.4374 5.93262 83.7156 6.23157 83.1835 6.7637C82.6514 7.29584 82.3524 8.01757 82.3524 8.77012C82.3524 9.52267 82.6514 10.2444 83.1835 10.7765C83.7156 11.3087 84.4374 11.6076 85.1899 11.6076Z" fill="#9BFF00" stroke="#00034A" stroke-width="2.5" stroke-miterlimit="10" stroke-linecap="round"/>
</svg>
