<svg width="100" height="100" viewBox="0 0 100 100" fill="none" xmlns="http://www.w3.org/2000/svg">
<path d="M18.4826 18.5235C17.4553 18.5241 16.4703 18.9327 15.7442 19.6593C15.018 20.3859 14.6101 21.3712 14.6101 22.3985C14.6101 24.861 17.6101 27.176 20.0001 27.176C21.0274 27.176 22.0126 26.7681 22.7393 26.0419C23.4659 25.3157 23.8744 24.3308 23.8751 23.3035C23.8751 20.8435 20.8751 18.5235 18.4826 18.5235ZM23.5576 12.191C23.6776 13.3935 24.9326 14.8335 25.8501 15.591C26.4558 16.0672 27.2252 16.2846 27.9905 16.1956C28.7559 16.1066 29.4549 15.7185 29.9351 15.116C32.8276 11.576 35.9601 11.266 39.4976 14.156C39.9472 14.492 40.4841 14.6913 41.0441 14.7298C41.604 14.7684 42.1632 14.6446 42.6546 14.3733C43.1459 14.1021 43.5486 13.6948 43.8143 13.2004C44.08 12.706 44.1975 12.1455 44.1526 11.586C44.0501 10.3335 42.8476 9.00847 41.9326 8.20097C40.7041 7.03172 39.2362 6.14322 37.6306 5.59691C36.025 5.0506 34.3198 4.85952 32.6331 5.03687C30.9464 5.21422 29.3183 5.75577 27.8614 6.62409C26.4045 7.4924 25.1536 8.66676 24.1951 10.066C23.7118 10.6631 23.4828 11.4264 23.5576 12.191ZM78.3626 70.446C76.9483 70.446 75.592 71.0078 74.592 72.0078C73.5919 73.0079 73.0301 74.3642 73.0301 75.7785C73.0301 78.9735 76.6376 82.4535 79.8276 82.4535C81.2414 82.4528 82.5972 81.8907 83.5966 80.8907C84.5961 79.8908 85.1576 78.5348 85.1576 77.121C85.1576 73.926 81.5526 70.446 78.3626 70.446ZM68.3476 8.53347C53.3626 8.53347 41.2151 20.681 41.2151 35.6635C41.2151 51.001 55.3101 65.0435 70.6401 65.0435C85.6251 65.0435 97.7726 52.896 97.7726 37.9135C97.7726 22.576 83.6776 8.53347 68.3476 8.53347Z" fill="#00034A" stroke="#00034A" stroke-width="2.5" stroke-miterlimit="10"/>
<path d="M68.3477 62.7982C83.3302 62.7982 95.4777 50.6482 95.4777 35.6632C95.4777 20.6782 83.3327 8.5332 68.3477 8.5332C53.3627 8.5332 41.2152 20.6807 41.2152 35.6632C41.2152 50.6507 53.3627 62.7957 68.3477 62.7957V62.7982Z" fill="#9BFF00" stroke="#00034A" stroke-width="2.5" stroke-miterlimit="10"/>
<path d="M66.025 58.8539C61.845 55.2189 59.2875 47.1389 58.5225 36.3589C57.755 25.5764 59.145 17.2339 62.8 13.0539M70.6425 12.5039C74.8475 16.1114 77.3825 24.2164 78.1475 34.9714C78.9125 45.7264 77.5275 54.0964 73.8925 58.3039" stroke="#00034A" stroke-width="2.5" stroke-miterlimit="10" stroke-linecap="round"/>
<path d="M46.4751 28.8278C53.4517 27.3866 60.5221 26.4442 67.6326 26.0078C74.7332 25.437 81.8654 25.3726 88.9751 25.8153M90.1951 42.5228C83.2112 43.9659 76.1332 44.9092 69.0151 45.3453C61.9137 45.9163 54.7806 45.9806 47.6701 45.5378" stroke="#00034A" stroke-width="2.5" stroke-miterlimit="10" stroke-linecap="round"/>
<path d="M56.2751 38.2982C54.3151 37.1007 43.4626 34.9507 34.4026 33.9482C25.3426 32.9407 14.2526 32.7282 12.1026 33.4682C7.89259 33.9707 6.57759 38.8482 6.17259 42.5507C5.83759 45.5882 5.95509 49.4357 8.22759 51.5407C5.62509 53.1407 4.66509 56.8732 4.33259 59.8832C3.99759 62.8957 4.14009 66.7682 6.34009 68.8957C3.66009 70.4707 2.70509 74.2032 2.37009 77.2382C2.14259 79.3132 2.11759 81.8132 2.84509 83.8557C3.59259 85.9632 6.00009 89.0207 8.12759 89.7732C10.0876 90.9682 20.9401 93.1207 30.0001 94.0982C39.0601 95.0807 50.1501 95.3407 52.3026 94.6032C56.5101 94.0782 57.8251 89.2232 58.2301 85.4932C58.5651 82.4832 58.4476 78.6332 56.2476 76.5082C58.8526 74.9282 59.8101 71.2007 60.1201 68.1632C60.4301 65.1257 60.3326 61.2807 58.1351 59.1757C60.7401 57.5957 61.6976 53.8682 62.0326 50.8332C62.2451 48.8582 62.2801 46.5257 61.6726 44.5532C60.9851 42.3207 58.5126 39.0857 56.2751 38.2982Z" fill="#00034A" stroke="#00034A" stroke-width="2.5" stroke-miterlimit="10"/>
<path d="M54.3151 74.1277C56.9201 72.5527 57.8801 68.8202 58.1901 65.7852C58.4976 62.7502 58.4026 58.9002 56.2026 56.7977C58.8076 55.2202 59.7651 51.4902 60.1026 48.4552C60.5051 44.7252 60.2676 39.7077 56.2751 38.2977C54.3151 37.1002 43.4626 34.9502 34.4026 33.9477C25.3426 32.9402 14.2526 32.7277 12.1026 33.4702C7.89257 33.9702 6.57757 38.8452 6.17257 42.5502C5.83757 45.5877 5.95507 49.4352 8.23007 51.5402C5.62507 53.1402 4.66507 56.8727 4.33007 59.8827C3.99757 62.8952 4.14007 66.7677 6.34007 68.8952C3.66007 70.4702 2.70507 74.2027 2.37007 77.2377C1.96507 80.9427 2.20507 85.9852 6.19507 87.3952C8.15507 88.5927 19.0076 90.7427 28.0701 91.7202C37.1276 92.7027 48.2176 92.9652 50.3701 92.2227C54.5801 91.6977 55.8951 86.8477 56.3001 83.1177C56.6326 80.1052 56.5151 76.2552 54.3151 74.1277Z" fill="white" stroke="#00034A" stroke-width="2.5" stroke-miterlimit="10"/>
<path d="M49.5601 55.6492C44.4851 54.6492 39.3601 53.9067 34.2101 53.4292C29.0788 52.7749 23.9167 52.3911 18.7451 52.2792M48.8651 44.0567C47.5921 43.8069 46.3071 43.6233 45.0151 43.5067C43.7317 43.3267 42.4409 43.2317 41.1426 43.2217M48.3876 48.5492C47.6451 48.3842 46.3801 48.1917 44.5626 47.9767C43.278 47.8101 41.9852 47.7149 40.6901 47.6917M16.7626 70.4717C19.7026 71.1142 24.8176 71.8817 32.1076 72.6917C39.3976 73.5067 44.5626 73.8417 47.5726 73.8417" stroke="#00034A" stroke-width="2.5" stroke-miterlimit="10" stroke-linecap="round"/>
<path d="M16.8551 45.6812C17.2388 45.6934 17.621 45.6299 17.9801 45.4941C18.3391 45.3584 18.6678 45.1532 18.9473 44.8902C19.2269 44.6272 19.4518 44.3116 19.6092 43.9616C19.7666 43.6115 19.8534 43.2338 19.8646 42.8502C19.8758 42.4665 19.8111 42.0844 19.6744 41.7258C19.5377 41.3671 19.3315 41.039 19.0677 40.7602C18.8039 40.4813 18.4878 40.2573 18.1372 40.1009C17.7867 39.9445 17.4088 39.8588 17.0251 39.8487C16.253 39.8283 15.5044 40.115 14.9433 40.6458C14.3823 41.1765 14.0546 41.9081 14.0321 42.6802C14.0096 43.4522 14.2941 44.2016 14.8233 44.7642C15.3525 45.3267 16.0832 45.6565 16.8551 45.6812ZM28.4251 46.9237C28.8081 46.935 29.1895 46.8708 29.5477 46.7347C29.9058 46.5986 30.2337 46.3933 30.5125 46.1305C30.7913 45.8677 31.0156 45.5526 31.1726 45.2031C31.3297 44.8536 31.4163 44.4766 31.4276 44.0937C31.439 43.7107 31.3747 43.3293 31.2387 42.9711C31.1026 42.613 30.8973 42.2851 30.6345 42.0063C30.3717 41.7275 30.0565 41.5032 29.7071 41.3462C29.3576 41.1891 28.9806 41.1025 28.5976 41.0912C27.8256 41.0708 27.0769 41.3575 26.5158 41.8883C25.9548 42.419 25.6271 43.1506 25.6046 43.9227C25.5821 44.6947 25.8666 45.4441 26.3958 46.0067C26.925 46.5692 27.6557 46.899 28.4276 46.9237H28.4251Z" fill="#9BFF00" stroke="#00034A" stroke-width="2.5" stroke-miterlimit="10" stroke-linecap="round"/>
<path d="M46.9801 61.3858C45.7134 61.1358 44.4367 60.9524 43.1501 60.8358C41.8738 60.6701 40.5893 60.575 39.3026 60.5508M46.4751 65.8808C45.2021 65.631 43.917 65.4474 42.6251 65.3308C41.3417 65.1508 40.0501 65.0549 38.7501 65.0433" stroke="#00034A" stroke-width="2.5" stroke-miterlimit="10" stroke-linecap="round"/>
<path d="M14.9702 63.012C15.3545 63.0252 15.7376 62.9624 16.0975 62.827C16.4574 62.6916 16.7871 62.4865 17.0674 62.2233C17.3478 61.9601 17.5733 61.6441 17.7311 61.2934C17.8889 60.9427 17.9758 60.5643 17.9869 60.18C17.9979 59.7956 17.9329 59.4128 17.7954 59.0537C17.658 58.6945 17.451 58.3661 17.1862 58.0872C16.9214 57.8084 16.6041 57.5847 16.2525 57.4289C15.901 57.2731 15.5221 57.1883 15.1377 57.1795C14.367 57.1618 13.6206 57.4498 13.0616 57.9806C12.5026 58.5114 12.1764 59.2419 12.1543 60.0125C12.1322 60.783 12.4159 61.531 12.9435 62.0931C13.4711 62.6551 14.1997 62.9855 14.9702 63.012ZM26.5152 64.2795C26.8983 64.2806 27.2779 64.2063 27.6323 64.0607C27.9867 63.9152 28.309 63.7013 28.5807 63.4312C28.8524 63.1611 29.0683 62.8401 29.216 62.4865C29.3637 62.133 29.4403 61.7539 29.4414 61.3707C29.4426 60.9876 29.3682 60.608 29.2227 60.2536C29.0771 59.8992 28.8632 59.5769 28.5931 59.3052C28.323 59.0335 28.002 58.8176 27.6485 58.6699C27.2949 58.5222 26.9158 58.4456 26.5327 58.4445C25.7589 58.4422 25.0159 58.7473 24.4671 59.2928C23.9183 59.8383 23.6087 60.5795 23.6064 61.3532C23.6041 62.127 23.9092 62.87 24.4547 63.4188C25.0002 63.9676 25.7414 64.2772 26.5152 64.2795Z" fill="#9BFF00" stroke="#00034A" stroke-width="2.5" stroke-miterlimit="10" stroke-linecap="round"/>
<path d="M44.8751 80.6561C44.1301 80.4886 42.8651 80.2961 41.0476 80.0811C39.2301 79.8661 37.9176 79.9136 37.1726 79.9136M44.3951 85.1261C43.1184 84.8995 41.8351 84.7161 40.5451 84.5761C39.2606 84.4087 37.9678 84.3127 36.6726 84.2886" stroke="#00034A" stroke-width="2.5" stroke-miterlimit="10" stroke-linecap="round"/>
<path d="M12.8652 82.2579C13.639 82.2602 14.382 81.955 14.9307 81.4095C15.4795 80.864 15.7891 80.1229 15.7914 79.3491C15.7938 78.5753 15.4886 77.8323 14.9431 77.2836C14.3976 76.7348 13.6565 76.4252 12.8827 76.4229C12.4996 76.4217 12.1199 76.496 11.7655 76.6416C11.4111 76.7872 11.0889 77.0011 10.8171 77.2712C10.2684 77.8167 9.95875 78.5578 9.95643 79.3316C9.95411 80.1054 10.2593 80.8484 10.8048 81.3972C11.3503 81.9459 12.0914 82.2555 12.8652 82.2579ZM24.4127 83.5229C24.7963 83.5351 25.1786 83.4716 25.5376 83.3358C25.8966 83.2001 26.2253 82.9949 26.5049 82.7319C26.7845 82.4689 27.0094 82.1533 27.1668 81.8033C27.3242 81.4532 27.411 81.0755 27.4221 80.6919C27.4333 80.3082 27.3687 79.9261 27.2319 79.5675C27.0952 79.2088 26.889 78.8807 26.6253 78.6019C26.3615 78.323 26.0453 78.099 25.6948 77.9426C25.3443 77.7862 24.9664 77.7005 24.5827 77.6904C23.8106 77.67 23.062 77.9567 22.5009 78.4875C21.9398 79.0182 21.6121 79.7498 21.5896 80.5219C21.5671 81.2939 21.8517 82.0433 22.3809 82.6059C22.9101 83.1684 23.6407 83.4982 24.4127 83.5229Z" fill="#9BFF00" stroke="#00034A" stroke-width="2.5" stroke-miterlimit="10" stroke-linecap="round"/>
<path d="M18.4826 26.2725C18.9911 26.2738 19.4949 26.1749 19.9653 25.9815C20.4356 25.7881 20.8632 25.504 21.2238 25.1453C21.5843 24.7867 21.8706 24.3605 22.0665 23.8912C22.2623 23.4218 22.3638 22.9185 22.3651 22.41C22.3664 21.9014 22.2675 21.3976 22.0741 20.9273C21.8807 20.457 21.5966 20.0293 21.2379 19.6688C20.8792 19.3083 20.4531 19.0219 19.9837 18.8261C19.5144 18.6303 19.0111 18.5288 18.5026 18.5275C17.4755 18.5248 16.4895 18.9303 15.7614 19.6546C15.0333 20.379 14.6227 21.3629 14.6201 22.39C14.6174 23.417 15.0229 24.4031 15.7472 25.1312C16.4716 25.8593 17.4555 26.2698 18.4826 26.2725ZM78.3626 81.11C82.4651 81.1975 85.1276 76.81 83.1501 73.21C82.6813 72.3555 81.987 71.646 81.1428 71.1589C80.2986 70.6718 79.337 70.4257 78.3626 70.4475C74.2576 70.535 71.7876 75.0325 73.9176 78.5425C74.3821 79.3103 75.0332 79.9483 75.8103 80.3972C76.5874 80.8461 77.4653 81.0913 78.3626 81.11ZM24.6001 14.1525C24.0081 13.6622 23.6334 12.9582 23.5576 12.1933C23.4818 11.4284 23.7108 10.6644 24.1951 10.0675C25.1534 8.6681 26.4041 7.49352 27.8609 6.62497C29.3177 5.75643 30.9458 5.21463 32.6325 5.03704C34.3192 4.85945 36.0244 5.05031 37.6301 5.59642C39.2359 6.14253 40.7039 7.03086 41.9326 8.19999C42.4968 8.69908 42.8461 9.39705 42.9074 10.1478C42.9687 10.8986 42.7372 11.644 42.2614 12.228C41.7856 12.812 41.1024 13.1893 40.3547 13.281C39.6071 13.3727 38.8529 13.1717 38.2501 12.72C34.7126 9.82499 31.5826 10.1375 28.6901 13.675C27.6901 14.935 25.8651 15.1475 24.6001 14.1525Z" fill="#9BFF00" stroke="#00034A" stroke-width="2.5" stroke-miterlimit="10"/>
</svg>
