<svg width="69" height="56" viewBox="0 0 69 56" fill="none" xmlns="http://www.w3.org/2000/svg">
<g clip-path="url(#clip0_212_1656)">
<path d="M32.1632 1.32249H34.7737C43.5542 1.3231 51.9749 4.81158 58.1835 11.0206C64.392 17.2295 67.8799 25.6505 67.8799 34.431V49.5282C67.8799 50.775 67.3846 51.9708 66.503 52.8524C65.6213 53.7341 64.4255 54.2294 63.1787 54.2294H6.00071C4.74838 54.2294 3.54735 53.7319 2.66182 52.8464C1.77629 51.9609 1.27881 50.7598 1.27881 49.5075V32.2C1.28003 24.0099 4.53452 16.1558 10.3264 10.3652C16.1183 4.57462 23.9732 1.32188 32.1632 1.32249Z" fill="white" stroke="#0A2745" stroke-width="2.3" stroke-miterlimit="10"/>
<path d="M44.6821 32.3219C44.6637 35.0681 44.2865 37.8741 43.2676 40.5674C42.6869 42.151 41.7803 43.595 40.6065 44.8063C38.0098 47.4467 33.3822 47.4996 30.7004 44.4038C29.3204 42.8076 28.4533 40.9538 27.8921 38.9459C27.1605 36.2687 26.8806 33.4881 27.0641 30.7188C27.1302 28.9609 27.4901 27.2265 28.129 25.5875C28.3326 25.1047 28.6096 24.6563 28.9501 24.2581C29.2305 23.9244 29.5923 23.6688 30.0005 23.5161C30.4087 23.3634 30.8495 23.3187 31.28 23.3864C31.5269 23.4248 31.7623 23.5166 31.97 23.6555C32.2387 23.8431 32.4953 24.0474 32.7382 24.2673C32.9291 24.4214 33.1062 24.5916 33.3086 24.7273C33.3799 24.7733 33.5087 24.7273 33.6099 24.7273C33.5915 24.6284 33.6099 24.4973 33.5501 24.4352C33.4298 24.3167 33.3006 24.2075 33.1637 24.1086C32.7681 23.7659 32.361 23.4324 31.9769 23.0736C30.7763 21.9443 31.0822 19.7363 32.2437 18.791C33.0996 18.118 34.1458 17.7317 35.2337 17.687C38.1478 17.4685 40.2638 18.791 41.8554 21.137C42.9686 22.7654 43.6149 24.587 44.0542 26.4937C44.4797 28.407 44.6903 30.3619 44.6821 32.3219ZM29.2997 31.2064C29.2698 34.063 29.463 36.3699 29.969 38.6446C30.3577 40.3949 30.9143 42.0808 31.8918 43.6011C32.3289 44.3286 32.9105 44.9587 33.6007 45.4526C35.0106 46.4025 37.3474 46.6233 38.8125 44.8799C39.2423 44.3821 39.6272 43.8472 39.9625 43.2814C41.3264 40.8894 41.8853 38.2513 42.2119 35.5534C42.4123 33.7603 42.4485 31.9527 42.32 30.153C42.2139 28.1265 41.8704 26.1194 41.2965 24.173C40.8135 22.5791 40.1465 21.0726 39.0333 19.803C38.2122 18.8669 37.2048 18.2942 35.926 18.262C34.1343 18.216 32.5197 19.3453 32.0758 20.9691C31.7239 22.2594 32.2391 23.2323 33.4995 23.6762C33.7149 23.7414 33.9183 23.8408 34.1021 23.9706C34.2666 24.1047 34.396 24.2768 34.4793 24.472C34.5299 24.6051 34.5347 24.7513 34.493 24.8874C34.4514 25.0236 34.3657 25.142 34.2493 25.2241C34.1571 25.3116 34.0361 25.3624 33.9091 25.3671C33.7821 25.3718 33.6577 25.3299 33.5593 25.2494C33.0786 24.9228 32.6163 24.5594 32.1379 24.2374C31.4318 23.7498 30.6314 23.8901 30.2082 24.6422C29.964 25.0846 29.7938 25.5639 29.7045 26.0613C29.4338 27.7629 29.2984 29.4834 29.2997 31.2064Z" fill="#0A2745"/>
<path d="M8.76535 29.7781C9.49928 30.1318 10.1836 30.5803 10.8008 31.1121C11.5851 31.8458 11.7208 32.5266 11.2355 33.488C10.8606 34.2447 10.4443 34.9807 10.051 35.7282C9.51054 36.7379 9.19009 37.8507 9.1108 38.9932C9.03151 40.1357 9.19519 41.2821 9.59105 42.3568C10.35 44.62 12.3487 46 14.743 46.1012C18.5702 46.2783 21.0358 43.8725 21.873 40.6341C22.2981 39.126 22.3518 37.5375 22.0294 36.0042C21.5878 34.0699 20.3665 32.6876 18.699 31.7308C17.4968 31.0762 16.2608 30.4858 14.996 29.9621C13.5608 29.3319 12.1095 28.7431 10.764 27.9266C9.92639 27.4402 9.2779 26.6847 8.92405 25.783C8.80398 25.5061 8.74698 25.206 8.75716 24.9044C8.76735 24.6028 8.84446 24.3073 8.98293 24.0391C9.1214 23.771 9.31775 23.537 9.55778 23.3541C9.7978 23.1712 10.0755 23.044 10.3707 22.9816C10.5727 22.9412 10.7717 22.8874 10.9664 22.8206C11.4264 22.6343 11.5161 22.1766 11.1274 21.8684C10.9134 21.7064 10.6617 21.6011 10.396 21.5625C9.43925 21.4199 8.81595 20.769 8.85735 19.8996C8.88797 19.4538 9.08793 19.0366 9.41625 18.7335C9.97272 18.1796 10.7045 17.8364 11.4862 17.7629C13.6137 17.5122 15.6929 17.6962 17.6318 18.6829C19.5362 19.6558 20.8035 21.2382 21.6752 23.1472C21.9504 23.8341 22.1891 24.5351 22.3905 25.2471C22.406 25.3183 22.416 25.3906 22.4204 25.4633L20.4378 25.9233C20.2745 25.0447 20.1871 24.1615 19.941 23.322C19.1061 20.4861 16.8314 18.7082 13.8805 18.492C13.1261 18.4368 12.3717 18.4161 11.6541 18.6783C11.2895 18.8213 10.946 19.0132 10.6329 19.2487C10.4983 19.3463 10.3918 19.4776 10.3239 19.6293C10.2561 19.7811 10.2294 19.9481 10.2465 20.1135C10.2447 20.1937 10.2591 20.2736 10.2889 20.3481C10.3188 20.4226 10.3634 20.4903 10.4202 20.5471C10.477 20.6038 10.5446 20.6485 10.6192 20.6783C10.6937 20.7082 10.7735 20.7226 10.8537 20.7207C10.9273 20.7207 11.0032 20.7207 11.0837 20.7391C11.3259 20.7541 11.5564 20.848 11.7401 21.0064C11.9239 21.1648 12.0507 21.379 12.1013 21.6162C12.1519 21.8535 12.1234 22.1008 12.0202 22.3203C11.9171 22.5399 11.7449 22.7196 11.5299 22.8321C11.2252 22.9737 10.909 23.0891 10.5846 23.1771C10.4443 23.2254 10.2925 23.2484 10.1568 23.3082C10.0668 23.3385 9.98382 23.3867 9.91284 23.4498C9.84187 23.513 9.78436 23.5898 9.74377 23.6757C9.70319 23.7616 9.68035 23.8548 9.67664 23.9497C9.67292 24.0447 9.6884 24.1394 9.72215 24.2282C9.8021 24.5491 9.9465 24.8504 10.1466 25.1137C10.3466 25.3771 10.5982 25.597 10.8859 25.76C11.5783 26.1527 12.295 26.5008 13.0318 26.8019C14.6418 27.4643 16.2656 28.0623 17.8618 28.7316C19.1268 29.2583 20.3596 29.8609 21.3946 30.8016C22.8022 32.0666 23.8165 33.5616 24.1385 35.4614C24.7342 38.9896 23.4669 43.3044 19.9249 45.4802C18.2367 46.5175 16.3875 46.8487 14.444 46.7291C12.7408 46.6525 11.1063 46.0354 9.77735 44.9673C7.87985 43.4286 7.01735 41.4115 6.99895 38.9873C6.98515 37.0599 7.81775 35.5166 9.02755 34.1159C9.31045 33.7893 9.60715 33.4742 9.89235 33.1499C10.0211 33.0004 10.1499 32.8509 10.2649 32.6899C10.6559 32.1494 10.6628 31.6572 10.1798 31.1972C9.76813 30.8293 9.32308 30.5005 8.85045 30.2151C8.65725 30.0817 8.63655 29.9851 8.76535 29.7781Z" fill="#0A2745"/>
<path d="M51.1727 46.092C51.4625 46.092 51.7339 46.1058 52.003 46.092C53.4911 46.0046 54.993 45.9356 56.4696 45.8068C57.3511 45.7179 58.2034 45.4419 58.9697 44.9972C59.616 44.6338 60.2508 44.2543 60.8925 43.8817L61.18 43.7C61.5066 44.7189 61.8286 45.7148 62.1552 46.7337H49.1004C49.0613 46.2369 49.0061 45.7447 48.9877 45.2502C48.8819 42.5485 48.7815 39.846 48.6864 37.1427C48.6639 36.5095 48.7883 35.8798 49.0498 35.3027C49.3465 34.6472 49.2108 34.0975 48.7945 33.5524C48.2103 32.7819 48.3621 32.2782 49.2729 31.9171C49.5121 31.836 49.7555 31.7677 50.002 31.7124C50.094 31.6894 50.1883 31.6779 50.278 31.6549C50.5632 31.579 50.8277 31.4594 50.8599 31.1259C50.8921 30.7924 50.6667 30.6084 50.4114 30.4681C50.2683 30.3922 50.1123 30.3438 49.9514 30.3255C49.7361 30.3168 49.5307 30.2329 49.371 30.0883C49.2113 29.9437 49.1074 29.7476 49.0774 29.5343C48.9732 29.012 48.9125 28.4819 48.8957 27.9496C48.8883 27.651 48.7841 27.3629 48.599 27.1285C48.0723 26.4132 47.5594 25.6841 47.0488 24.955C46.7318 24.4947 46.5706 23.945 46.5888 23.3864C46.6118 21.0864 46.6402 18.7864 46.6739 16.4864C46.6739 15.8838 46.69 15.2835 46.7084 14.6832C46.7032 14.5433 46.7392 14.4049 46.8119 14.2853C46.8568 14.2382 46.9111 14.2011 46.9714 14.1765C47.0317 14.1519 47.0965 14.1404 47.1615 14.1427C47.2328 14.1427 47.3363 14.3106 47.3432 14.4072C47.4145 15.4192 47.4697 16.4312 47.5249 17.4432C47.6031 18.8784 47.6744 20.3113 47.7549 21.7465C47.7664 21.9512 47.8492 22.1145 48.0884 22.1237C48.3276 22.1329 48.4012 21.9857 48.4173 21.7856C48.4334 21.5855 48.4449 21.3923 48.4449 21.1945C48.4449 19.0478 48.451 16.8973 48.4633 14.743C48.4515 14.6494 48.4562 14.5544 48.4771 14.4624C48.5302 14.3559 48.595 14.2556 48.6703 14.1634C48.7577 14.2485 48.8796 14.3175 48.9279 14.421C48.969 14.5463 48.987 14.678 48.9808 14.8097C49.0621 16.6006 49.1387 18.3923 49.2108 20.1848C49.2315 20.6333 49.2476 21.0841 49.2706 21.5349C49.2796 21.6277 49.2941 21.7199 49.3143 21.8109C49.3168 21.856 49.3285 21.9002 49.3488 21.9406C49.3691 21.981 49.3975 22.0168 49.4323 22.0457C49.467 22.0746 49.5074 22.096 49.5508 22.1087C49.5942 22.1213 49.6398 22.1249 49.6846 22.1191C49.7297 22.1218 49.7748 22.1149 49.8171 22.0988C49.8593 22.0828 49.8977 22.058 49.9296 22.026C49.9616 21.9941 49.9864 21.9557 50.0024 21.9135C50.0185 21.8713 50.0254 21.8261 50.0227 21.781C50.0365 21.4544 50.0503 21.1255 50.0549 20.7966C50.0779 18.7128 50.1009 16.6275 50.1239 14.5406C50.1239 14.4072 50.0572 14.2232 50.3171 14.2278C50.5471 14.2278 50.6046 14.3336 50.6138 14.5429C50.6675 16.136 50.7257 17.7307 50.7886 19.3269C50.8208 20.1066 50.8622 20.884 50.9036 21.6637C50.8991 21.7573 50.9223 21.8501 50.9703 21.9305C51.0393 22.0229 51.1416 22.0847 51.2555 22.103C51.3118 22.0967 51.3658 22.0778 51.4137 22.0475C51.4615 22.0172 51.5018 21.9764 51.5315 21.9282C51.5799 21.7966 51.6003 21.6564 51.5913 21.5165C51.6327 19.2165 51.6695 16.8981 51.7155 14.5866C51.7155 14.4969 51.8052 14.3313 51.8443 14.3359C51.9685 14.3359 52.1571 14.3865 52.1939 14.4693C52.3038 14.7147 52.3722 14.9766 52.3963 15.2444C52.5435 17.8687 52.6723 20.493 52.8149 23.1173C52.8717 23.8912 52.6605 24.6611 52.2169 25.2977C51.7155 26.0199 51.2049 26.7375 50.7012 27.462C50.4482 27.8231 50.1975 28.1842 49.9583 28.5545C49.8922 28.6676 49.8463 28.7914 49.8226 28.9202C49.7957 28.9867 49.7861 29.0589 49.7946 29.1301C49.8031 29.2012 49.8295 29.2691 49.8712 29.3274C49.913 29.3857 49.9688 29.4325 50.0335 29.4634C50.0982 29.4944 50.1696 29.5085 50.2412 29.5044C50.4187 29.5133 50.5954 29.5341 50.7702 29.5665C50.9472 29.6082 51.1108 29.6941 51.2458 29.816C51.3808 29.9379 51.4827 30.092 51.5422 30.2639C51.6016 30.4358 51.6166 30.6199 51.5858 30.7992C51.555 30.9785 51.4793 31.147 51.3659 31.2892C51.0732 31.6353 50.6643 31.8626 50.2159 31.9286C49.9225 31.9835 49.6374 32.0755 49.3672 32.2023C48.8658 32.4691 48.8635 32.9222 49.335 33.2373C49.4362 33.3063 49.5443 33.3638 49.6501 33.4259C49.9952 33.6143 50.2838 33.8914 50.4859 34.2286C50.6881 34.5658 50.7966 34.9509 50.8001 35.3441C50.83 36.0962 50.8254 36.846 50.8484 37.5981C50.9266 40.1419 51.0079 42.6857 51.0922 45.2295C51.1152 45.5078 51.1474 45.77 51.1727 46.092Z" fill="#0A2745"/>
</g>
<defs>
<clipPath id="clip0_212_1656">
<rect width="69" height="55.43" fill="white"/>
</clipPath>
</defs>
</svg>
