<svg width="83" height="39" viewBox="0 0 83 39" fill="none" xmlns="http://www.w3.org/2000/svg">
<path d="M26.0871 1.39039C19.418 2.1962 13.1443 3.99816 7.50558 7.31993C3.67731 9.82932 0.428208 13.7645 0.468811 18.6958C0.201664 23.6272 3.18559 27.7504 7.05665 30.3155C20.397 38.0876 37.6063 38.3119 53.6142 36.882L55.2857 36.7409C55.2857 36.7409 79.8075 34.9475 81.9835 21.2973C82.8791 15.8081 80.3098 11.0606 76.0283 8.12367C73.1362 6.17211 70.9153 5.28935 70.9153 5.28935C57.622 0.161465 42.4605 -0.306726 27.7863 1.21309L26.0871 1.39039Z" fill="white"/>
<path d="M26.0871 1.39039C19.418 2.1962 13.1443 3.99816 7.50558 7.31993C3.67731 9.82932 0.428208 13.7645 0.468811 18.6958C0.201664 23.6272 3.18559 27.7504 7.05665 30.3155C20.397 38.0876 37.6063 38.3119 53.6142 36.882L55.2857 36.7409C55.2857 36.7409 79.8075 34.9475 81.9835 21.2973C82.8791 15.8081 80.3098 11.0606 76.0283 8.12367C73.1362 6.17211 70.9153 5.28935 70.9153 5.28935C57.622 0.161465 42.4605 -0.306726 27.7863 1.21309L26.0871 1.39039Z" stroke="#49210B" stroke-width="0.904251"/>
<path d="M66.8649 14.4114L71.2939 8.68923H62.9191C62.421 9.09318 62.5963 9.73231 62.7053 10.41C57.7697 7.0476 50.0341 4.86304 41.3492 4.86304C37.0121 4.86304 32.9124 5.40171 29.2914 6.36786L28.5454 3.27482C42.3967 1.94532 56.6903 2.35354 69.2355 6.88727C69.2355 6.88727 71.3303 7.67394 74.0621 9.40311C78.102 11.9916 80.5196 16.1941 79.6838 21.0676C77.6232 33.134 54.4887 34.7179 54.4887 34.7179L53.7491 31.7126C62.4125 29.3421 68.3355 24.5818 68.3355 19.0776C68.3354 17.4403 67.8332 15.8735 66.8649 14.4114Z" fill="#8E4F1A"/>
<path d="M29.2914 23.2063H23.939C22.881 25.0103 19.9462 26.5622 21.2008 28.8665H14.9144C20.1577 23.3303 24.9864 17.0759 29.6783 11.1207C30.219 10.2829 28.6715 10.2165 29.4773 9.67578H36.8155L35.8066 19.0445C34.7507 19.5511 33.5408 20.3121 32.9999 21.4877C32.7456 22.2038 32.6216 23.3303 33.1217 24.0036C33.5407 24.7517 34.3828 25.13 35.1396 25.3844C34.9686 26.6391 35.2657 27.8981 36.016 28.8664H26.5767C26.9572 27.8105 28.6715 27.7356 28.8852 26.3997L29.2914 23.2063Z" fill="#49210B"/>
<path d="M26.8673 19.8519C27.7117 18.5415 28.9707 17.118 29.9732 15.7393L29.6013 19.8519H26.8673Z" fill="white"/>
<path d="M53.766 29.6275C52.2526 29.3689 50.3331 28.2745 50.0338 26.898C49.7174 25.5257 50.6153 21.8598 50.908 19.346L43.1895 29.4203C41.6761 29.2877 39.9084 28.1206 39.4573 27.022C39.002 25.919 39.1859 25.6219 39.3012 24.9122C40.5923 24.3992 43.3454 22.9842 42.1805 20.4C44.5275 19.7117 43.198 17.2642 42.2682 17.6169C42.903 17.1766 42.4926 15.567 40.8403 15.4666C40.8745 15.2549 41.5692 12.7925 41.5371 11.9674C41.5028 10.9842 40.6864 10.3963 41.1545 9.67589H47.8044C47.0071 13.6645 46.2525 17.6638 45.5023 21.6952C47.8472 19.0446 50.0338 15.6909 52.1265 12.632C52.8981 11.3409 52.3359 10.4282 52.1265 9.67578H59.0948C56.7051 13.16 57.0749 17.8348 56.0638 21.8597C58.6716 18.9655 61.2388 15.4407 63.496 12.1318C64.1266 11.3729 63.1647 10.2165 63.838 9.67578H69.1199L53.766 29.6275Z" fill="#49210B"/>
<path d="M42.7001 18.689C42.0438 17.5262 40.2975 18.8771 40.7826 19.249C40.9943 19.4008 41.037 19.3559 41.2144 19.2255C41.4709 19.0438 41.5564 18.6804 41.5564 18.6804C42.3965 18.3256 42.762 19.0374 41.8706 19.5291C41.3725 19.8048 40.9194 19.7685 40.494 19.7257C39.094 19.5697 38.442 19.8326 37.5463 20.5209C37.0483 20.9612 36.6015 21.6987 36.9756 22.1946C37.3369 22.6862 38.1064 22.5559 38.6471 22.4704C39.2883 22.1755 39.5428 21.6197 39.2584 21.3161C38.987 21.0019 37.914 21.0297 37.3774 21.361C37.3688 20.8416 37.8412 20.553 38.3692 20.3991C39.0191 20.273 40.0643 20.2367 40.4726 21.0083C40.7163 21.9039 39.842 22.6584 39.2884 22.962C38.6066 23.289 37.6275 23.5348 36.8516 23.165C36.2338 22.962 35.7935 22.1946 35.9965 21.579C36.3813 20.1361 38.0187 18.7916 39.6389 19.2747C39.6389 19.2747 38.6962 18.9733 38.6064 18.409C38.4931 17.4642 39.0852 17.2291 39.6153 16.8999C40.0643 16.8165 40.8401 16.575 41.1629 17.1029C41.3233 17.4642 40.9642 17.4941 40.9642 17.4941C40.635 17.1072 40.2246 17.2633 39.9681 17.368C39.4615 17.5775 39.2584 18.052 39.6153 18.2828C39.8697 18.4539 40.3913 18.4517 40.3913 18.4517C43.4586 17.3402 40.0771 14.4118 37.5462 17.3914C37.1358 17.9088 37.1358 18.6889 37.1743 19.2575C34.2993 20.1317 32.6128 22.6006 34.4062 24.0221C35.8725 24.9583 38.0272 24.6762 39.4914 24.0221C40.4726 23.4962 41.5691 22.5558 41.6525 21.38C41.6418 21.365 41.6375 21.3608 41.6332 21.3565C41.6332 20.775 41.3233 20.3924 41.0796 20.1744L41.0133 20.091C42.0609 20.2986 43.1062 19.4265 42.7001 18.689Z" fill="#D27B40"/>
<path d="M22.0921 29.0408C22.1583 29.3144 22.2695 29.5987 22.4276 29.8872H12.3856C13.8969 28.299 15.3696 26.6702 16.8274 24.9944C15.252 23.1904 14.3627 21.2003 14.3627 19.0777C14.3627 13.8407 19.7579 9.25573 27.7864 6.78257L26.9421 3.43945C20.6492 4.15553 14.7304 5.75009 9.40362 8.68926C5.79763 10.9059 2.73665 14.3922 2.77299 18.7549C2.52926 23.1219 5.33589 26.7664 8.98895 29.0407C21.5725 35.9086 37.8114 36.1138 52.9152 34.8505L52.3552 32.0653C48.9928 32.8584 45.2693 33.2944 41.3491 33.2944C33.8016 33.2946 26.9913 31.6615 22.0921 29.0408Z" fill="#D27B40"/>
</svg>
