<svg width="70" height="70" viewBox="0 0 70 70" fill="none" xmlns="http://www.w3.org/2000/svg">
<path fill-rule="evenodd" clip-rule="evenodd" d="M49.7677 35.1761C49.7677 35.7728 48.6441 37.4233 48.6441 37.4233L47.9072 38.3708C47.9072 38.3708 49.0308 39.4595 49.2059 39.4595C49.3809 39.4595 50.9613 39.8107 50.9613 39.8107C50.9613 39.8107 51.9088 39.8456 52.155 39.8456C52.4013 39.8456 52.8574 39.6698 52.8574 39.6698C52.8574 39.6698 52.8574 38.6875 52.7524 38.5818C52.6467 38.4768 52.0849 35.7027 52.0849 35.7027L51.3132 34.5791H50.5052L49.7677 35.1761Z" fill="#F9DC30"/>
<path fill-rule="evenodd" clip-rule="evenodd" d="M21.5242 11.1473L30.8914 12.9812L55.0171 15.3072V11.98L54.5929 9.167L50.6734 8.62626L40.8846 8.33683L36.2424 8.08008L28.7575 8.47156L22.9354 9.35729L21.5242 11.1473Z" fill="#B4282E"/>
<path fill-rule="evenodd" clip-rule="evenodd" d="M12.726 23.3419L24.8234 9.07324L19.4454 9.74834H16.3194L13.5217 10.1082L12.726 23.3419ZM37.1601 39.5767L40.2512 41.8856L38.1155 42.8934L37.3326 41.8409L36.7134 39.6213L37.1601 39.5767Z" fill="#F9DC30"/>
<path fill-rule="evenodd" clip-rule="evenodd" d="M5.03842 50.5431C5.14809 50.5304 5.25668 50.5238 5.36308 50.5238C5.84607 50.5238 6.22012 50.636 6.48522 50.8594C6.75033 51.0827 6.88288 51.399 6.88288 51.8076C6.88288 52.3432 6.70239 52.7616 6.34142 53.0637C5.98044 53.3659 5.48002 53.5162 4.84014 53.5162C4.81508 53.5162 4.7784 53.5148 4.72974 53.5119C4.69287 53.5092 4.65594 53.5075 4.61898 53.5068C4.61898 53.0572 4.62552 52.5913 4.63823 52.1101C4.65057 51.6285 4.66982 51.1248 4.69524 50.5986C4.81399 50.5743 4.92839 50.5558 5.03842 50.5431ZM7.41926 52.9802C7.67746 52.6207 7.80638 52.1871 7.80638 51.6808C7.80638 51.1056 7.60301 50.6495 7.19592 50.3132C6.78882 49.9769 6.23211 49.8081 5.52505 49.8081C5.47457 49.8081 5.22799 49.8215 4.78458 49.8484C4.34189 49.8745 3.91773 49.8945 3.51245 49.9065C3.60796 50.1178 3.67732 50.4221 3.7209 50.8209C3.76412 51.2204 3.78591 51.8345 3.78591 52.6628C3.78591 53.3067 3.77065 53.9949 3.74051 54.727C3.71001 55.4591 3.69512 55.8716 3.69512 55.966C3.69512 56.2391 3.72635 56.42 3.7899 56.5071C3.85309 56.595 3.97148 56.639 4.14543 56.639C4.25292 56.639 4.37058 56.6197 4.49878 56.5801C4.64424 56.5339 4.78474 56.4733 4.91822 56.3993C4.82634 56.2206 4.75843 55.9686 4.71413 55.6447C4.66982 55.3196 4.63823 54.8083 4.61898 54.1089C4.72575 54.0962 4.81545 54.0875 4.88771 54.0827C4.94888 54.0786 5.01016 54.0761 5.07147 54.0755C5.51125 54.0755 6.1021 54.5243 6.84366 55.421C7.08552 55.7097 7.2769 55.9352 7.41853 56.0982C7.60701 56.323 7.77079 56.4846 7.91024 56.5827C8.04969 56.6807 8.17788 56.7301 8.29409 56.7301C8.43209 56.7301 8.5512 56.6771 8.6518 56.5707C8.75203 56.465 8.8479 56.2885 8.93869 56.0416C8.75312 55.9911 8.52905 55.8593 8.26504 55.6443C8.00139 55.4293 7.69198 55.1293 7.33682 54.7437L7.12946 54.5091C6.79027 54.126 6.50592 53.8957 6.27678 53.8176C6.78047 53.619 7.16105 53.3405 7.41926 52.9802ZM13.4247 50.8223C13.258 50.7472 13.0558 50.692 12.8183 50.6557C12.5804 50.6201 12.2793 50.6019 11.9144 50.6019C11.7633 50.6019 11.4833 50.607 11.0744 50.6161C10.9734 50.6197 10.8964 50.6212 10.8431 50.6212L10.8053 52.7002C10.8899 52.7075 10.9811 52.71 11.0784 52.71H11.5403C11.8854 52.7121 12.2305 52.7024 12.5749 52.681C12.8469 52.661 13.0456 52.6319 13.1712 52.5931C13.209 52.681 13.2373 52.759 13.2562 52.8266C13.2747 52.8941 13.2842 52.9544 13.2842 53.0074C13.2842 53.1585 13.2355 53.2671 13.1382 53.3328C13.0409 53.3989 12.8807 53.4312 12.6574 53.4312C12.5851 53.4312 12.4068 53.4283 12.1225 53.4222C11.7556 53.4136 11.3887 53.4113 11.0217 53.4153C10.9368 53.4174 10.8583 53.4196 10.7861 53.4225C10.7861 53.7784 10.7821 54.1572 10.7744 54.5588C10.7657 54.9992 10.7539 55.4394 10.7392 55.8796C10.7704 55.8796 10.8176 55.8811 10.8808 55.8847C11.2923 55.8938 11.5861 55.8981 11.7622 55.8981C12.0981 55.8981 12.385 55.8789 12.6222 55.84C12.8413 55.8072 13.0548 55.7436 13.2562 55.6512C13.3267 55.7696 13.3771 55.8738 13.4077 55.9624C13.4378 56.0518 13.453 56.1342 13.453 56.2086C13.453 56.3746 13.3982 56.4908 13.2878 56.5584C13.1774 56.6252 12.9682 56.6582 12.6599 56.6582C12.5089 56.6582 12.2822 56.6531 11.9801 56.6426C11.678 56.6321 11.4528 56.627 11.305 56.627C10.9713 56.627 10.6375 56.6353 10.3041 56.6531C10.2351 56.6568 10.1923 56.6582 10.1767 56.6582C10.0663 56.6582 9.9882 56.6335 9.94281 56.5838C9.89741 56.5333 9.87454 56.4454 9.87454 56.319C9.87454 56.2529 9.88253 56.0855 9.89923 55.8146C9.95225 54.8406 9.9784 53.928 9.9784 53.0768C9.9784 52.2314 9.96351 51.5541 9.93409 51.0446C9.90431 50.5362 9.85856 50.1538 9.79646 49.8999H10.3913C11.1256 49.8999 11.881 49.8745 12.6563 49.824C12.8226 49.8135 12.9232 49.8084 12.9577 49.8084C13.2119 49.8084 13.3862 49.8375 13.4803 49.8941C13.5743 49.9515 13.6216 50.0532 13.6216 50.1992C13.6216 50.2816 13.6056 50.3742 13.5733 50.4773C13.5351 50.5969 13.4854 50.7125 13.4247 50.8223ZM14.5883 55.5945C14.8506 55.7378 15.1454 55.8108 15.4442 55.8066C15.8175 55.8066 16.1117 55.7231 16.3267 55.555C16.5413 55.3868 16.6492 55.1591 16.6492 54.8704C16.6492 54.5251 16.3681 54.1256 15.8056 53.6702L15.8008 53.6651C15.786 53.655 15.7719 53.6441 15.7583 53.6324C14.9467 52.9827 14.5411 52.409 14.5411 51.9096C14.5411 51.6805 14.5915 51.455 14.6918 51.2316C14.7962 51.0034 14.9415 50.7962 15.1203 50.6201C15.3996 50.347 15.6992 50.1393 16.0195 49.9965C16.3299 49.8555 16.6669 49.7824 17.008 49.7823C17.2527 49.7823 17.4365 49.8226 17.5589 49.9043C17.6812 49.9867 17.7426 50.1084 17.7426 50.2718C17.7426 50.3285 17.7223 50.4029 17.6816 50.4959C17.6299 50.6088 17.5705 50.718 17.5037 50.8227C17.3809 50.7722 17.256 50.7341 17.1285 50.7072C17.0011 50.6804 16.8718 50.6669 16.7396 50.6669C16.3372 50.6669 16.022 50.757 15.7939 50.9378C15.5662 51.118 15.4522 51.3656 15.4522 51.679C15.4522 51.8679 15.4987 52.0385 15.5913 52.1925C15.6839 52.3458 15.8575 52.5295 16.1121 52.7431C16.1498 52.775 16.2047 52.8204 16.2773 52.88C17.1325 53.5957 17.5603 54.2022 17.5603 54.6979C17.5601 54.8878 17.5258 55.0761 17.459 55.2539C17.3853 55.4469 17.283 55.6278 17.1554 55.7903C16.9284 56.0807 16.6353 56.3127 16.3005 56.4668C15.9543 56.6264 15.5771 56.7075 15.1958 56.7043C14.9289 56.7043 14.727 56.6575 14.5904 56.5653C14.4539 56.4723 14.3856 56.3361 14.3856 56.1567C14.3856 56.0743 14.402 55.9871 14.4354 55.8941C14.4677 55.8023 14.5189 55.7017 14.5883 55.5945ZM21.6236 56.4029C21.488 56.4808 21.3443 56.5439 21.1951 56.591C21.0716 56.6301 20.943 56.6506 20.8134 56.652C20.6533 56.652 20.5411 56.6074 20.4764 56.518C20.4118 56.4287 20.3798 56.2613 20.3798 56.0165C20.3798 55.8564 20.3969 55.369 20.4321 54.5541C20.4666 53.7392 20.4841 53.0056 20.4841 52.3527C20.4841 52.186 20.479 51.8341 20.4692 51.2974C20.4659 51.037 20.4641 50.8314 20.4641 50.6804H20.102C19.6405 50.6804 19.2679 50.7018 18.9839 50.7435C18.6999 50.7853 18.4813 50.8514 18.3273 50.9407C18.2656 50.8248 18.212 50.7047 18.1671 50.5812C18.1353 50.4965 18.1177 50.407 18.1152 50.3165C18.1152 50.1738 18.1639 50.0732 18.2612 50.0143C18.3585 49.9555 18.5285 49.9257 18.7707 49.9257C18.8964 49.9257 19.2559 49.9413 19.85 49.9718C20.4438 50.0023 20.9765 50.0172 21.4479 50.0172C22.0166 50.0172 22.4698 49.9951 22.8079 49.9519C23.1456 49.9094 23.4024 49.8396 23.5785 49.7441C23.6413 49.844 23.6878 49.9355 23.7176 50.0194C23.7477 50.1026 23.7626 50.1796 23.7626 50.2522C23.7626 50.4218 23.6994 50.546 23.5738 50.6259C23.4478 50.7061 23.2527 50.7457 22.9884 50.7457C22.8907 50.7457 22.6546 50.7374 22.2799 50.7188C21.9808 50.7039 21.6817 50.6912 21.3825 50.6807C21.3615 51.1983 21.3449 51.7161 21.3328 52.2339C21.3219 52.7198 21.3164 53.1665 21.3164 53.575C21.3164 54.3573 21.3407 54.9725 21.3898 55.4184C21.4388 55.8644 21.5169 56.1923 21.6236 56.4029ZM26.5211 52.5756C26.6813 52.9729 26.8414 53.3855 27.0016 53.8155H25.0184C25.188 53.4203 25.4535 52.799 25.8144 51.9521L26.0407 51.4252C26.2008 51.7956 26.361 52.1794 26.5211 52.5756ZM27.4682 55.0284C27.8702 56.1106 28.2298 56.652 28.5472 56.652C28.6568 56.652 28.7621 56.6244 28.8627 56.5678C28.9633 56.5111 29.0734 56.4167 29.1928 56.2842C28.8508 55.9573 28.2428 54.6954 27.3695 52.4987C27.1689 51.9933 26.9663 51.4887 26.7615 50.985C26.5919 50.5674 26.4434 50.2707 26.3163 50.0964C26.1888 49.9221 26.0577 49.8346 25.923 49.8346C25.8257 49.8346 25.7291 49.8673 25.6332 49.933C25.5373 49.9991 25.4313 50.104 25.3155 50.2486C25.3812 50.3172 25.4433 50.3855 25.5014 50.4527C25.5595 50.5209 25.6136 50.5903 25.6641 50.6626C25.1622 51.8162 24.6301 52.9564 24.0684 54.082C23.4597 55.3077 23.1554 56.0013 23.1554 56.1618C23.1554 56.3223 23.2084 56.444 23.3152 56.5271C23.422 56.6106 23.5774 56.652 23.7811 56.652C23.8091 56.652 23.84 56.6513 23.873 56.6499C23.9057 56.6484 23.9583 56.6426 24.0306 56.6335L24.0353 56.5547C24.0353 56.3314 24.0847 56.0645 24.1835 55.7532C24.2823 55.442 24.4573 55.0135 24.7083 54.4666H27.2565C27.3066 54.6017 27.3771 54.7887 27.4682 55.0284ZM29.5941 50.075C29.7226 50.0005 29.8591 49.9405 30.0009 49.8963C30.1338 49.8553 30.2645 49.8346 30.3927 49.8346C30.5583 49.8346 30.6712 49.8821 30.7326 49.9784C30.7933 50.0742 30.8238 50.2678 30.8238 50.5601C30.8238 50.6891 30.8063 51.0722 30.7718 51.7099C30.7389 52.281 30.7215 52.853 30.7195 53.4251C30.7195 54.3642 30.8535 55.0288 31.1212 55.4181C31.3888 55.8074 31.8395 56.0016 32.4728 56.0016C33.2097 56.0016 33.7439 55.7507 34.0747 55.2477C34.4056 54.7455 34.5711 53.932 34.5711 52.807C34.5711 52.1039 34.5308 51.5287 34.4506 51.0827C34.3703 50.6364 34.2498 50.3147 34.0892 50.1167C34.2272 50.023 34.3536 49.9522 34.468 49.9054C34.5824 49.8578 34.6866 49.8346 34.781 49.8346C35.0258 49.8346 35.1929 49.9631 35.2822 50.2184C35.3715 50.4744 35.4162 51.0609 35.4162 51.9783C35.4162 53.7025 35.1794 54.934 34.7066 55.6737C34.2334 56.4135 33.453 56.7831 32.3661 56.7831C31.4702 56.7831 30.8245 56.5525 30.4283 56.091C30.0321 55.6294 29.8342 54.8697 29.8342 53.8107C29.8342 53.5754 29.8425 53.2413 29.8596 52.8077C29.8767 52.3741 29.8854 52.0589 29.8854 51.861C29.8854 51.4303 29.8618 51.0722 29.8146 50.7849C29.7684 50.4962 29.6947 50.2598 29.5941 50.075ZM38.4013 50.5431C38.5114 50.5304 38.6199 50.5238 38.7263 50.5238C39.2093 50.5238 39.583 50.636 39.8485 50.8594C40.114 51.0827 40.2465 51.399 40.2465 51.8076C40.2465 52.3432 40.0657 52.7616 39.7047 53.0637C39.3444 53.3659 38.8436 53.5162 38.2038 53.5162C38.1783 53.5162 38.1413 53.5148 38.093 53.5119C38.044 53.509 38.0073 53.5068 37.9822 53.5068C37.9822 53.0572 37.9888 52.5913 38.0015 52.1101C38.0135 51.6285 38.0327 51.1248 38.0581 50.5986C38.1773 50.5743 38.2913 50.5558 38.4013 50.5431ZM40.7825 52.9802C41.0407 52.6207 41.1696 52.1871 41.1696 51.6808C41.1696 51.1056 40.9659 50.6495 40.5595 50.3132C40.1525 49.9769 39.5957 49.8081 38.8883 49.8081C38.8378 49.8081 38.5913 49.8215 38.1486 49.8484C37.7052 49.8745 37.281 49.8945 36.8761 49.9065C36.9712 50.1178 37.0406 50.4221 37.0838 50.8209C37.127 51.2204 37.1492 51.8345 37.1492 52.6628C37.1492 53.3067 37.1336 53.9949 37.1038 54.727C37.0733 55.4591 37.0577 55.8716 37.0577 55.966C37.0577 56.2391 37.0896 56.42 37.1528 56.5071C37.216 56.595 37.3344 56.639 37.5083 56.639C37.6162 56.639 37.7339 56.6197 37.8617 56.5801C38.0073 56.5339 38.1479 56.4733 38.2815 56.3993C38.1892 56.2206 38.1213 55.9686 38.0774 55.6447C38.0327 55.3196 38.0015 54.8083 37.9822 54.1089C38.0886 54.0962 38.178 54.0875 38.2503 54.0827C38.3225 54.0784 38.3843 54.0755 38.4347 54.0755C38.8745 54.0755 39.4654 54.5243 40.2066 55.421C40.4484 55.7097 40.6398 55.9352 40.7811 56.0982C40.9699 56.323 41.1337 56.4846 41.2731 56.5827C41.4126 56.6807 41.5404 56.7301 41.657 56.7301C41.7954 56.7301 41.9145 56.6771 42.0151 56.5707C42.1149 56.465 42.2108 56.2885 42.3016 56.0416C42.1164 55.9911 41.8916 55.8593 41.6279 55.6443C41.3643 55.4293 41.0549 55.1293 40.7001 54.7437C40.6525 54.6907 40.5839 54.6118 40.4924 54.5091C40.1532 54.126 39.8688 53.8957 39.6397 53.8176C40.1434 53.619 40.5243 53.3405 40.7825 52.9802ZM45.98 52.5756C46.1401 52.9729 46.3006 53.3855 46.4608 53.8155H44.4776C44.6472 53.4203 44.9123 52.799 45.2733 51.9521L45.4995 51.4252C45.66 51.7956 45.8198 52.1794 45.98 52.5756ZM46.9278 55.0284C47.3291 56.1106 47.6897 56.652 48.0067 56.652C48.116 56.652 48.2217 56.6244 48.3216 56.5678C48.4222 56.5111 48.5322 56.4167 48.6521 56.2842C48.3096 55.9573 47.7017 54.6954 46.8287 52.4987C46.6281 51.9933 46.4255 51.4887 46.2207 50.985C46.0512 50.5674 45.903 50.2707 45.7752 50.0964C45.6481 49.9221 45.517 49.8346 45.3822 49.8346C45.2842 49.8346 45.1879 49.8673 45.0921 49.933C44.9962 49.9987 44.8905 50.104 44.7743 50.2486C44.8404 50.3172 44.9021 50.3855 44.9602 50.4527C45.0183 50.5209 45.0725 50.5903 45.1233 50.6626C44.6211 51.8161 44.0889 52.9563 43.5272 54.082C42.9186 55.3077 42.6143 56.0013 42.6143 56.1618C42.6143 56.3223 42.6673 56.444 42.7737 56.5271C42.8808 56.6106 43.0363 56.652 43.2396 56.652C43.2679 56.652 43.2985 56.6513 43.3319 56.6499C43.3645 56.6484 43.4168 56.6426 43.4895 56.6335L43.4938 56.5547C43.4938 56.3314 43.5436 56.0645 43.642 55.7532C43.7411 55.442 43.9158 55.0135 44.1667 54.4666H46.7154C46.7658 54.6017 46.8363 54.7887 46.9278 55.0284ZM55.1362 56.696C54.5624 56.1306 53.7692 55.2568 52.7564 54.0744C51.7436 52.892 50.9868 52.0375 50.4853 51.5098C50.4882 52.6908 50.5121 53.9371 50.5561 55.2499C50.5695 55.5982 50.576 55.811 50.576 55.8862C50.576 56.1967 50.5426 56.4004 50.4769 56.4963C50.4112 56.5921 50.2881 56.6397 50.1079 56.6397C49.9917 56.6397 49.8704 56.619 49.7441 56.5787C49.6113 56.5344 49.4843 56.4742 49.366 56.3993C49.5334 56.1106 49.6511 55.6955 49.7194 55.1537C49.7876 54.6126 49.8214 53.6564 49.8214 52.2873C49.8214 51.6442 49.7811 51.1866 49.7001 50.9171C49.6191 50.6469 49.4782 50.4588 49.2752 50.3517C49.4129 50.1886 49.5356 50.0717 49.642 50.0005C49.7491 49.9304 49.8555 49.8949 49.9627 49.8949C50.0633 49.8949 50.162 49.9268 50.259 49.9914C50.3571 50.0561 50.4762 50.1694 50.6171 50.3325C51.9972 51.9754 53.4055 53.5944 54.8413 55.1889C54.8504 54.7208 54.8576 54.3079 54.8627 53.9498C54.8673 53.6437 54.8697 53.3376 54.87 53.0314C54.87 52.1965 54.8366 51.5595 54.7701 51.1219C54.7026 50.6836 54.5936 50.3324 54.4411 50.0688C54.5644 50.0017 54.6934 49.946 54.8268 49.9021C54.9415 49.8658 55.0501 49.8476 55.1511 49.8476C55.3312 49.8476 55.4554 49.9003 55.5226 50.006C55.5908 50.1109 55.6246 50.3379 55.6246 50.6862C55.6246 50.8939 55.6068 51.4034 55.5727 52.2147C55.5401 52.9247 55.5226 53.6353 55.52 54.346C55.52 54.7419 55.5291 55.1119 55.5469 55.4576C55.5654 55.803 55.5908 56.1266 55.6242 56.428L55.1362 56.696ZM60.038 56.4029C59.9024 56.4809 59.7587 56.544 59.6095 56.591C59.486 56.63 59.3573 56.6506 59.2278 56.652C59.0677 56.652 58.9547 56.6074 58.8908 56.518C58.8262 56.4287 58.7942 56.2613 58.7942 56.0165C58.7942 55.8564 58.8113 55.369 58.8461 54.5541C58.881 53.7392 58.8981 53.0056 58.8981 52.3527C58.8981 52.186 58.893 51.8341 58.8832 51.2974C58.8805 51.0917 58.8788 50.886 58.8781 50.6804H58.5164C58.0552 50.6804 57.6822 50.7018 57.3986 50.7435C57.1143 50.7853 56.8956 50.8514 56.7417 50.9407C56.6799 50.8248 56.6264 50.7047 56.5815 50.5812C56.5502 50.4963 56.5329 50.4069 56.5303 50.3165C56.5303 50.1738 56.5786 50.0732 56.6756 50.0143C56.7736 49.9555 56.9428 49.9257 57.1847 49.9257C57.3111 49.9257 57.6706 49.9413 58.2644 49.9718C58.8581 50.0023 59.3909 50.0172 59.8622 50.0172C60.4309 50.0172 60.8834 49.9951 61.2219 49.9519C61.5596 49.9094 61.8164 49.8396 61.9929 49.7441C62.0553 49.844 62.1022 49.9355 62.1319 50.0194C62.1617 50.1026 62.1766 50.1796 62.1766 50.2522C62.1766 50.4218 62.1134 50.546 61.9878 50.6259C61.8614 50.7061 61.6664 50.7457 61.402 50.7457C61.3047 50.7457 61.0686 50.7374 60.6935 50.7188C60.3947 50.7039 60.0958 50.6912 59.7969 50.6807C59.7757 51.1983 59.7591 51.716 59.7471 52.2339C59.7363 52.6809 59.7306 53.128 59.73 53.575C59.73 54.3573 59.7547 54.9725 59.8038 55.4184C59.8528 55.864 59.9309 56.1923 60.038 56.4029ZM66.7139 50.8223C66.5472 50.7472 66.3442 50.692 66.1074 50.6557C65.8692 50.6201 65.5685 50.6019 65.2031 50.6019C65.0521 50.6019 64.7717 50.607 64.3635 50.6161C64.2629 50.6197 64.1856 50.6212 64.1322 50.6212L64.0944 52.7002C64.1787 52.7075 64.2702 52.71 64.3675 52.71H64.8291C65.2474 52.71 65.5924 52.7002 65.8641 52.681C66.1357 52.661 66.3351 52.6319 66.4607 52.5931C66.4985 52.681 66.5268 52.759 66.545 52.8266C66.5642 52.8941 66.5733 52.9544 66.5733 53.0074C66.5733 53.1585 66.5243 53.2671 66.4273 53.3328C66.3304 53.3986 66.1698 53.4312 65.9465 53.4312C65.8742 53.4312 65.6963 53.4283 65.4116 53.4222C65.0447 53.414 64.6778 53.4117 64.3109 53.4153C64.2259 53.4174 64.1478 53.4196 64.0755 53.4225C64.0755 53.7784 64.0712 54.1572 64.0636 54.5588C64.0549 54.9992 64.0433 55.4394 64.0287 55.8796C64.0599 55.8796 64.1068 55.8811 64.17 55.8847C64.5814 55.8938 64.8756 55.8981 65.0517 55.8981C65.388 55.8981 65.6745 55.8789 65.9113 55.84C66.1305 55.8073 66.344 55.7437 66.5453 55.6512C66.6162 55.7696 66.6666 55.8738 66.6971 55.9624C66.7277 56.0518 66.7425 56.1342 66.7425 56.2086C66.7425 56.3746 66.6881 56.4908 66.578 56.5584C66.4673 56.6252 66.2581 56.6582 65.9498 56.6582C65.7987 56.6582 65.5725 56.6531 65.2703 56.6426C64.9682 56.6321 64.7434 56.627 64.5952 56.627C64.2618 56.627 63.9277 56.6353 63.5944 56.6531C63.5257 56.6568 63.4829 56.6582 63.4673 56.6582C63.3565 56.6582 63.2784 56.6335 63.233 56.5838C63.1876 56.5333 63.1648 56.4454 63.1648 56.319C63.1648 56.2529 63.1724 56.0855 63.1894 55.8146C63.2421 54.8406 63.269 53.928 63.269 53.0768C63.269 52.2314 63.2541 51.5541 63.2243 51.0446C63.1945 50.5362 63.1484 50.1538 63.0867 49.8999H63.6812C64.4158 49.8999 65.1715 49.8745 65.9465 49.824C66.1132 49.8135 66.2131 49.8084 66.2479 49.8084C66.5018 49.8084 66.6765 49.8375 66.7705 49.8941C66.8642 49.9515 66.9118 50.0532 66.9118 50.1992C66.9118 50.2816 66.8954 50.3742 66.8635 50.4773C66.8308 50.5805 66.7814 50.6956 66.7139 50.8223ZM9.62723 59.5431C9.5583 59.512 9.48587 59.4893 9.41151 59.4756C9.32961 59.4603 9.24644 59.4528 9.16312 59.4534C8.81594 59.4534 8.53559 59.5478 8.32242 59.737C8.10961 59.9262 8.00284 60.1754 8.00284 60.4819C8.00284 60.7855 8.10307 61.0342 8.30426 61.2296C8.50545 61.4246 8.76292 61.5227 9.07705 61.5227C9.26752 61.5237 9.45486 61.4742 9.61997 61.3792C9.65664 61.4268 9.68279 61.4693 9.6995 61.5056C9.7162 61.5419 9.72455 61.575 9.72455 61.6062C9.72455 61.6821 9.67081 61.7416 9.56368 61.7834C9.45655 61.8259 9.30729 61.8473 9.11663 61.8473C8.9238 61.8495 8.73184 61.8211 8.54794 61.7631C8.38275 61.7116 8.22917 61.6285 8.09581 61.5183C7.94111 61.3894 7.82526 61.2409 7.74791 61.0742C7.67056 60.9075 7.63206 60.723 7.63206 60.5211C7.63206 60.3076 7.67891 60.1111 7.77333 59.9324C7.86775 59.7537 8.00865 59.594 8.19604 59.4538C8.34454 59.3454 8.51099 59.264 8.68775 59.2134C8.8813 59.1561 9.0822 59.1275 9.28405 59.1284C9.44456 59.1284 9.5575 59.1418 9.62251 59.1687C9.68751 59.1956 9.72056 59.2417 9.72056 59.3078C9.71914 59.342 9.71138 59.3756 9.69768 59.4069C9.67775 59.4541 9.65419 59.4996 9.62723 59.5431ZM10.6092 61.405C10.4828 61.2786 10.42 61.1192 10.42 60.9256C10.42 60.707 10.4821 60.532 10.6063 60.4002C10.7305 60.2683 10.8939 60.2022 11.0962 60.2022C11.2945 60.2022 11.4557 60.2661 11.5803 60.3929C11.7048 60.52 11.7669 60.6852 11.7669 60.8864C11.7669 61.0941 11.7034 61.2637 11.5766 61.3956C11.4499 61.5274 11.2876 61.5935 11.0889 61.5935C10.895 61.5935 10.7356 61.5314 10.6092 61.405ZM11.5236 61.7554C11.6684 61.6788 11.7944 61.571 11.8926 61.4399C11.9496 61.3669 11.9954 61.2783 12.0288 61.1748C12.0622 61.0713 12.0792 60.9663 12.0792 60.8599C12.0792 60.5966 11.9903 60.3784 11.813 60.2066C11.6355 60.0341 11.4092 59.9484 11.1347 59.9484C10.8311 59.9484 10.5838 60.0392 10.3935 60.22C10.2032 60.4009 10.108 60.6369 10.108 60.9271C10.108 61.2009 10.197 61.4242 10.3753 61.5989C10.5533 61.7732 10.7839 61.8608 11.0671 61.8608C11.2255 61.8625 11.382 61.8264 11.5236 61.7554ZM12.4348 59.9992C12.4865 59.9808 12.541 59.9711 12.596 59.9705C12.6617 59.9705 12.7133 59.9883 12.7503 60.0236C12.7878 60.0592 12.8088 60.11 12.8135 60.1768C12.9101 60.11 13.0046 60.0606 13.0972 60.0286C13.1894 59.996 13.2816 59.9803 13.3735 59.9803C13.4629 59.9803 13.5471 59.9974 13.6259 60.033C13.7047 60.0679 13.7788 60.1209 13.8471 60.1913C13.9414 60.1222 14.0451 60.0668 14.155 60.0268C14.264 59.9872 14.3686 59.9673 14.4684 59.9673C14.6863 59.9673 14.8534 60.0312 14.9696 60.1579C15.0858 60.2847 15.1439 60.4673 15.1439 60.7041C15.1439 60.739 15.1421 60.8062 15.1384 60.9078C15.1348 61.0092 15.133 61.0945 15.133 61.1624C15.133 61.3207 15.1403 61.442 15.1544 61.527C15.1686 61.6113 15.1918 61.6803 15.2241 61.7326C15.1635 61.7623 15.1123 61.783 15.072 61.7958C15.0317 61.8085 14.9954 61.815 14.9638 61.815C14.9068 61.815 14.8675 61.8008 14.8465 61.7718C14.825 61.7435 14.8145 61.6883 14.8145 61.6051C14.8145 61.5292 14.8189 61.4079 14.8276 61.2405C14.8359 61.0738 14.8407 60.9456 14.8407 60.8559C14.8407 60.6366 14.8072 60.4779 14.7412 60.3805C14.6751 60.2825 14.5683 60.2338 14.4212 60.2338C14.341 60.2338 14.2632 60.2458 14.1888 60.2694C14.1036 60.2984 14.0223 60.3379 13.9469 60.3871C13.9589 60.4615 13.9676 60.5396 13.9734 60.6206C13.9789 60.7023 13.9814 60.8149 13.9814 60.9605V61.1526C13.9814 61.3207 13.9876 61.4464 14.0003 61.5285C14.0127 61.6116 14.0348 61.6803 14.0661 61.7362C14.0204 61.761 13.9725 61.7814 13.923 61.7972C13.8837 61.8088 13.843 61.8148 13.802 61.815C13.7468 61.815 13.7087 61.8001 13.6873 61.7696C13.6659 61.7391 13.6553 61.6832 13.6553 61.6007C13.6553 61.5568 13.6586 61.458 13.6651 61.3037C13.6717 61.1493 13.6753 61.0171 13.6753 60.9071C13.6753 60.6482 13.6459 60.4724 13.5878 60.3802C13.5293 60.2872 13.4291 60.2411 13.2871 60.2411C13.2123 60.2411 13.136 60.2553 13.059 60.2836C12.974 60.3161 12.8936 60.3594 12.8197 60.4125C12.8175 60.5138 12.8139 60.6438 12.8099 60.8018C12.8059 60.9598 12.8034 61.0578 12.8034 61.0956C12.8034 61.2579 12.8106 61.3894 12.8252 61.4885C12.84 61.5877 12.8629 61.6701 12.8945 61.7362C12.8437 61.7631 12.7972 61.783 12.7551 61.7958C12.7145 61.8082 12.6723 61.8147 12.6298 61.815C12.5742 61.815 12.5357 61.7994 12.5154 61.7674C12.4947 61.7355 12.4849 61.669 12.4849 61.5673C12.4849 61.5383 12.4914 61.417 12.5045 61.2042C12.5176 60.9906 12.5241 60.792 12.5241 60.6075C12.5241 60.4615 12.5168 60.3402 12.5019 60.2422C12.4915 60.1584 12.4689 60.0765 12.4348 59.9992ZM16.1222 61.7326C16.0763 61.7587 16.0275 61.7796 15.977 61.795C15.9338 61.808 15.8891 61.8147 15.8441 61.815C15.7849 61.815 15.7445 61.7987 15.7231 61.7667C15.7021 61.734 15.6915 61.6686 15.6915 61.5717C15.6915 61.5158 15.6966 61.3901 15.7075 61.1951C15.7184 60.9994 15.7238 60.8312 15.7238 60.6914C15.7238 60.5382 15.7166 60.4147 15.7017 60.3192C15.6901 60.235 15.6661 60.153 15.6305 60.0759C15.6755 60.049 15.7217 60.0283 15.7692 60.0148C15.8147 60.0009 15.8619 59.9937 15.9094 59.9934C15.9653 59.9934 16.0035 60.0076 16.0242 60.0345C16.0449 60.0621 16.055 60.1133 16.055 60.1877C16.055 60.207 16.0496 60.3141 16.0387 60.5076C16.0278 60.7019 16.0224 60.8864 16.0224 61.0607C16.0224 61.2245 16.0303 61.36 16.0467 61.4671C16.0634 61.5753 16.0885 61.6632 16.1222 61.7326ZM16.1073 59.4389C16.1081 59.4713 16.102 59.5035 16.0895 59.5333C16.0769 59.5632 16.0581 59.5901 16.0343 59.6121C15.9843 59.6587 15.9179 59.6837 15.8495 59.6815C15.7931 59.6843 15.7379 59.6647 15.6959 59.627C15.6767 59.6076 15.6617 59.5844 15.652 59.5589C15.6422 59.5334 15.6379 59.5061 15.6392 59.4788C15.6392 59.4106 15.6636 59.3525 15.7122 59.3045C15.7355 59.2813 15.7633 59.263 15.7938 59.2508C15.8243 59.2385 15.8569 59.2324 15.8898 59.233C15.953 59.233 16.0053 59.2522 16.046 59.2911C16.0661 59.3099 16.082 59.3329 16.0926 59.3584C16.1032 59.3839 16.1082 59.4113 16.1073 59.4389ZM17.6849 61.5049C17.589 61.5562 17.4817 61.5824 17.3729 61.5808C17.1979 61.5808 17.0588 61.5256 16.9564 61.4148C16.8536 61.304 16.8024 61.1537 16.8024 60.9638C16.8024 60.7353 16.8645 60.5545 16.9894 60.4212C17.1144 60.2879 17.284 60.2211 17.4979 60.2211C17.5654 60.2211 17.6362 60.2302 17.7114 60.2473C17.7869 60.2658 17.8679 60.2919 17.9547 60.329C17.9572 60.3678 17.9587 60.41 17.9591 60.4546C17.9598 60.5 17.9601 60.5687 17.9601 60.6609L17.9572 60.89C17.9554 61.0262 17.9532 61.1533 17.9507 61.2724C17.8793 61.3676 17.7888 61.4468 17.6849 61.5049ZM17.723 59.9992C17.6493 59.983 17.5741 59.9747 17.4986 59.9745C17.207 59.9745 16.9658 60.0682 16.7755 60.2567C16.5852 60.4448 16.4897 60.6831 16.4897 60.9703C16.4897 61.2249 16.5671 61.4326 16.7214 61.5938C16.8761 61.754 17.0751 61.835 17.3185 61.835C17.4441 61.835 17.5589 61.811 17.662 61.7627C17.7655 61.7144 17.8646 61.64 17.9601 61.5372C17.9601 61.5484 17.9594 61.5604 17.9583 61.5735C17.957 61.5914 17.9564 61.6093 17.9565 61.6272C17.9565 61.6959 17.9663 61.7449 17.9867 61.7732C18.007 61.8016 18.0411 61.815 18.0898 61.815C18.1265 61.815 18.1668 61.8085 18.2107 61.795C18.2547 61.7816 18.3033 61.7602 18.3571 61.7318C18.3146 61.6603 18.2841 61.5539 18.2663 61.4119C18.2485 61.2706 18.2398 61.0444 18.2398 60.7324C18.2398 60.4757 18.2481 60.1928 18.2656 59.8848C18.283 59.5762 18.2917 59.396 18.2917 59.3437C18.2917 59.2613 18.2797 59.2047 18.2565 59.1741C18.2332 59.1436 18.1918 59.128 18.1334 59.128C18.1003 59.128 18.0626 59.1346 18.0197 59.1473C17.9769 59.16 17.9307 59.18 17.8821 59.2068C17.9122 59.2686 17.9347 59.355 17.9493 59.4665C17.9638 59.578 17.9714 59.7261 17.9714 59.9121V60.0737C17.8908 60.0422 17.8077 60.0173 17.723 59.9992ZM19.8264 61.0106C19.8246 61.082 19.8242 61.1535 19.8253 61.2249C19.826 61.263 19.8275 61.3128 19.83 61.3738C19.7708 61.4377 19.6989 61.4886 19.619 61.5232C19.539 61.5577 19.4527 61.5753 19.3655 61.5746C19.2468 61.5746 19.1538 61.5463 19.0863 61.4889C19.0187 61.4315 18.9853 61.3527 18.9853 61.2528C18.9853 61.1294 19.0333 61.0357 19.1302 60.9728C19.2272 60.9104 19.3703 60.8792 19.5602 60.8792C19.5918 60.8792 19.6299 60.8806 19.6746 60.8857C19.7196 60.8893 19.7701 60.8955 19.8264 60.9049C19.8279 60.9401 19.8279 60.9754 19.8264 61.0106ZM20.1282 61.4696C20.1054 61.3357 20.0954 61.1999 20.098 61.064C20.098 61.003 20.0998 60.9227 20.1035 60.8229C20.1071 60.723 20.1093 60.6525 20.1093 60.613C20.1093 60.398 20.0534 60.2378 19.9419 60.13C19.8304 60.0221 19.663 59.9676 19.44 59.9676C19.2584 59.9676 19.1113 59.9967 18.9984 60.0548C18.8858 60.1122 18.8295 60.1859 18.8295 60.2752C18.8295 60.3177 18.8404 60.3526 18.8629 60.3795C18.8855 60.4063 18.9181 60.4248 18.9621 60.4361C19.0075 60.358 19.0663 60.3007 19.1393 60.2636C19.2119 60.2266 19.3049 60.2084 19.4175 60.2084C19.5533 60.2084 19.6572 60.2411 19.7283 60.3068C19.7999 60.3729 19.8358 60.4684 19.8358 60.5948C19.8358 60.6104 19.8358 60.6239 19.8351 60.6351C19.8344 60.6464 19.8329 60.6576 19.8304 60.6692C19.7334 60.6575 19.6358 60.6511 19.538 60.65C19.2759 60.65 19.067 60.7074 18.9123 60.8218C18.7573 60.9358 18.6799 61.0869 18.6799 61.2764C18.6799 61.4431 18.7362 61.5786 18.8488 61.6806C18.9614 61.7834 19.1095 61.8346 19.2933 61.8346C19.3866 61.8346 19.4781 61.8154 19.5682 61.778C19.6583 61.7402 19.7494 61.6828 19.8413 61.6047C19.8449 61.6763 19.8583 61.7282 19.882 61.7602C19.9056 61.7928 19.9433 61.8085 19.9953 61.8085C20.0243 61.8085 20.0581 61.8008 20.0969 61.7852C20.1358 61.7696 20.1786 61.7464 20.2259 61.7159C20.1759 61.6418 20.1426 61.5578 20.1282 61.4696ZM23.2041 59.5587C23.1289 59.5268 23.0497 59.5051 22.9688 59.4941C22.8526 59.4783 22.7355 59.4712 22.6183 59.4727C22.4798 59.4737 22.3413 59.4764 22.2029 59.4806L22.1883 60.2894C22.221 60.2916 22.2566 60.293 22.2944 60.293H22.4738C22.6361 60.293 22.7698 60.2894 22.8751 60.2818C22.9804 60.2741 23.0577 60.2625 23.1064 60.2476C23.1213 60.2818 23.1322 60.3123 23.1394 60.3384C23.1467 60.3646 23.1503 60.3882 23.1503 60.4085C23.1503 60.4673 23.1314 60.5091 23.0937 60.5349C23.0559 60.561 22.9938 60.5737 22.907 60.5737C22.8791 60.5737 22.8097 60.5723 22.6997 60.5694C22.5893 60.5672 22.4941 60.5657 22.4135 60.5657L22.2726 60.5665C22.2395 60.5679 22.2094 60.5687 22.1814 60.5694C22.1814 60.7077 22.18 60.8545 22.1767 61.0099C22.1735 61.1653 22.1691 61.336 22.1629 61.5212C22.2952 61.5253 22.4275 61.528 22.5598 61.5292C22.6902 61.5292 22.8017 61.5216 22.8936 61.506C22.9855 61.4911 23.0675 61.4664 23.1394 61.4315C23.1663 61.4776 23.1859 61.5179 23.1979 61.5528C23.209 61.5833 23.215 61.6155 23.2157 61.6479C23.2157 61.7126 23.1943 61.758 23.1514 61.7841C23.1089 61.8096 23.0276 61.823 22.9085 61.823C22.85 61.823 22.7621 61.8215 22.6452 61.8186C22.4289 61.8135 22.2125 61.8145 21.9962 61.8215L21.9468 61.823C21.9044 61.823 21.8742 61.8132 21.8564 61.7932C21.8386 61.774 21.8299 61.7402 21.8299 61.6912C21.8299 61.6657 21.8328 61.6004 21.839 61.4954C21.8583 61.1416 21.8684 60.7872 21.8691 60.4328C21.8691 60.1053 21.8633 59.842 21.8517 59.6448C21.8401 59.4469 21.8219 59.2987 21.7976 59.1999H22.0289C22.3136 59.1999 22.606 59.1909 22.9067 59.1731C22.9713 59.1694 23.0102 59.1672 23.0232 59.1672C23.1216 59.1672 23.1896 59.1785 23.2259 59.2007C23.2625 59.2228 23.2807 59.2617 23.2807 59.3183C23.2807 59.3503 23.2742 59.3859 23.2618 59.4254C23.2495 59.465 23.2302 59.5097 23.2041 59.5587ZM23.6784 61.5198C23.7223 61.543 23.7644 61.5601 23.8044 61.571C23.8447 61.5822 23.8839 61.5873 23.9213 61.5873C24.0092 61.5873 24.0804 61.5659 24.1338 61.5241C24.1871 61.4824 24.2144 61.4268 24.2144 61.3582C24.2144 61.305 24.199 61.2531 24.1701 61.2085C24.1403 61.1624 24.0851 61.1058 24.0037 61.0404C23.9851 61.0263 23.967 61.0117 23.9493 60.9964C23.7445 60.8261 23.6417 60.6751 23.6417 60.5432C23.6417 60.4902 23.6518 60.4361 23.6729 60.3831C23.694 60.3293 23.7245 60.2781 23.7648 60.2298C23.8384 60.1405 23.9312 60.069 24.0364 60.0207C24.1399 59.9724 24.2518 59.9484 24.3723 59.9484C24.4312 59.9484 24.4758 59.9597 24.5067 59.9818C24.5372 60.0043 24.5528 60.0363 24.5528 60.0791C24.5516 60.1045 24.5458 60.1295 24.5358 60.1528C24.5194 60.1903 24.5001 60.2263 24.478 60.2607C24.445 60.248 24.4134 60.2382 24.384 60.2316C24.3545 60.2251 24.3255 60.2218 24.2975 60.2218C24.1955 60.2218 24.1127 60.2465 24.0495 60.2956C24.0195 60.3175 23.9951 60.3463 23.9786 60.3797C23.962 60.413 23.9537 60.4498 23.9544 60.4869C23.9544 60.5719 24.0397 60.687 24.2107 60.8316C24.254 60.8686 24.2863 60.8969 24.3084 60.918C24.3811 60.9812 24.4344 61.0437 24.4686 61.1054C24.5027 61.1671 24.5201 61.2303 24.5201 61.2946C24.5201 61.4471 24.4526 61.5782 24.3175 61.689C24.1824 61.799 24.0183 61.8542 23.8251 61.8542C23.7579 61.8542 23.7063 61.8408 23.67 61.8146C23.6524 61.8017 23.6382 61.7845 23.6288 61.7648C23.6195 61.745 23.6151 61.7232 23.6163 61.7013C23.6163 61.6781 23.621 61.653 23.6308 61.6247C23.6406 61.5964 23.6562 61.5612 23.6784 61.5198ZM25.2889 60.849C25.2908 60.6881 25.2929 60.5505 25.2958 60.4361C25.3819 60.3765 25.4691 60.3312 25.5566 60.3006C25.6366 60.2708 25.7211 60.255 25.8064 60.2538C25.9924 60.2538 26.1416 60.3134 26.2542 60.4325C26.3668 60.5516 26.4231 60.7099 26.4231 60.9071C26.4231 61.0963 26.3613 61.2525 26.2386 61.3767C26.1158 61.4994 25.9597 61.5612 25.7698 61.5612C25.687 61.5612 25.6049 61.5484 25.5235 61.5216C25.4389 61.4938 25.3584 61.4545 25.2846 61.4046C25.2857 61.1958 25.2871 61.0106 25.2889 60.849ZM25.5097 61.7787C25.5907 61.8027 25.6811 61.815 25.7814 61.815C25.9067 61.8168 26.0312 61.7929 26.1469 61.7448C26.2627 61.6967 26.3675 61.6255 26.4547 61.5354C26.545 61.4481 26.6166 61.3433 26.6648 61.2273C26.713 61.1113 26.7369 60.9866 26.735 60.861C26.735 60.6162 26.6519 60.4114 26.4863 60.2469C26.3203 60.0824 26.114 60 25.8667 60C25.7683 60 25.6673 60.0178 25.5642 60.0526C25.4611 60.0868 25.3652 60.1361 25.2766 60.2008C25.2774 60.1462 25.2571 60.0933 25.2199 60.0533C25.2005 60.035 25.1775 60.0209 25.1524 60.0118C25.1273 60.0027 25.1006 59.9988 25.074 60.0003C25.0193 59.9998 24.9649 60.0085 24.9131 60.0261C24.9454 60.1042 24.9683 60.2033 24.9824 60.3246C24.997 60.4459 25.0042 60.638 25.0042 60.9013C25.0042 61.1522 24.9955 61.4453 24.9784 61.7801C24.9659 61.9901 24.9571 62.2003 24.9523 62.4106C24.9523 62.4908 24.9632 62.546 24.9857 62.5765C25.0082 62.607 25.0464 62.6227 25.1008 62.6227C25.1404 62.6227 25.1815 62.6161 25.2232 62.6041C25.2735 62.5888 25.3221 62.5686 25.3685 62.5438C25.3301 62.4628 25.305 62.3761 25.294 62.2871C25.2767 62.1526 25.269 62.017 25.2708 61.8815L25.2715 61.7496C25.2719 61.7191 25.273 61.6915 25.2744 61.6661C25.3507 61.7169 25.4288 61.7547 25.5097 61.7787ZM28.1793 61.0106C28.1767 61.082 28.1763 61.1535 28.1782 61.2249C28.1786 61.263 28.18 61.3128 28.1826 61.3738C28.1233 61.4376 28.0514 61.4885 27.9714 61.523C27.8915 61.5576 27.8052 61.5752 27.7181 61.5746C27.5993 61.5746 27.5064 61.5463 27.4388 61.4889C27.3713 61.4315 27.3379 61.3527 27.3379 61.2528C27.3379 61.1294 27.3862 61.0357 27.4828 60.9728C27.5797 60.9104 27.7224 60.8792 27.9127 60.8792C27.9443 60.8792 27.9825 60.8806 28.0271 60.8857C28.0718 60.8893 28.1226 60.8955 28.1789 60.9049C28.1804 60.9401 28.1805 60.9754 28.1793 61.0106ZM28.4807 61.4696C28.4582 61.3356 28.4481 61.1999 28.4506 61.064C28.4506 61.003 28.4524 60.9227 28.456 60.8229C28.4596 60.723 28.4615 60.6525 28.4615 60.613C28.4615 60.398 28.4055 60.2378 28.294 60.13C28.1826 60.0221 28.0155 59.9676 27.7925 59.9676C27.6109 59.9676 27.4639 59.9967 27.3509 60.0548C27.2384 60.1122 27.1821 60.1859 27.1821 60.2752C27.1821 60.3177 27.1933 60.3526 27.2155 60.3795C27.2376 60.4063 27.2707 60.4248 27.3146 60.4361C27.3596 60.358 27.4188 60.3007 27.4915 60.2636C27.5641 60.2266 27.6571 60.2084 27.7696 60.2084C27.9055 60.2084 28.0093 60.2411 28.0805 60.3068C28.152 60.3729 28.188 60.4684 28.188 60.5948C28.188 60.6104 28.188 60.6239 28.1873 60.6351C28.1867 60.6466 28.1852 60.658 28.1826 60.6692C28.0857 60.6575 27.9882 60.651 27.8906 60.65C27.628 60.65 27.4196 60.7074 27.2645 60.8218C27.1098 60.9358 27.0321 61.0869 27.0321 61.2764C27.0321 61.4431 27.0884 61.5786 27.2009 61.6806C27.3135 61.7834 27.4617 61.8346 27.6454 61.8346C27.7384 61.8346 27.8299 61.8154 27.92 61.778C28.0101 61.7406 28.1012 61.6828 28.1931 61.6047C28.1967 61.6763 28.2102 61.7282 28.2338 61.7602C28.2574 61.7928 28.2951 61.8085 28.3471 61.8085C28.3761 61.8085 28.4102 61.8008 28.4487 61.7852C28.4876 61.7696 28.5308 61.7464 28.5777 61.7159C28.5286 61.6414 28.4955 61.5576 28.4807 61.4696ZM29.3443 60.4049C29.3417 60.5396 29.3385 60.6845 29.3345 60.8388C29.3301 60.9943 29.3283 61.0814 29.3283 61.1007C29.3283 61.2601 29.3352 61.3894 29.3501 61.4878C29.3646 61.5869 29.3875 61.6701 29.4191 61.7362C29.3738 61.7606 29.3262 61.7805 29.2771 61.7958C29.2359 61.8082 29.1931 61.8147 29.15 61.815C29.0933 61.815 29.0545 61.7994 29.0338 61.7674C29.0127 61.7355 29.0026 61.669 29.0026 61.5673C29.0026 61.5452 29.0091 61.4326 29.0222 61.2274C29.0352 61.0226 29.0418 60.8294 29.0418 60.6471C29.0418 60.4746 29.0349 60.3413 29.0218 60.2469C29.0105 60.1605 28.9888 60.0757 28.9572 59.9945C28.984 59.9862 29.0113 59.9796 29.0389 59.9745C29.0665 59.9695 29.093 59.9669 29.1188 59.9669C29.1834 59.9669 29.235 59.9854 29.2731 60.0207C29.313 60.061 29.336 60.115 29.3374 60.1717C29.4285 60.1064 29.5248 60.0562 29.6268 60.0207C29.7289 59.9851 29.8298 59.9669 29.9293 59.9669C30.0506 59.9669 30.1596 59.9938 30.2562 60.0472C30.3528 60.1002 30.4268 60.1743 30.4777 60.2676C30.5129 60.333 30.5383 60.4081 30.5532 60.4938C30.5685 60.5803 30.5757 60.711 30.5757 60.8875C30.5757 60.9053 30.575 60.9492 30.5732 61.0172C30.5714 61.0851 30.5706 61.145 30.5706 61.1951C30.5706 61.3207 30.5786 61.4293 30.595 61.5194C30.611 61.6102 30.6357 61.681 30.6683 61.7322C30.611 61.7598 30.5616 61.7812 30.5194 61.7947C30.4773 61.8081 30.4396 61.8146 30.4054 61.8146C30.3484 61.8146 30.3085 61.7997 30.2859 61.77C30.2634 61.7402 30.2522 61.6835 30.2522 61.5996C30.2522 61.5499 30.2565 61.4413 30.2652 61.2754C30.2736 61.1101 30.2783 60.9689 30.2783 60.8526C30.2783 60.6308 30.2445 60.4702 30.1777 60.3704C30.1109 60.2712 30.0034 60.2208 29.8552 60.2208C29.7717 60.2223 29.689 60.2381 29.6108 60.2676C29.5167 60.3023 29.4272 60.3484 29.3443 60.4049ZM29.5542 59.6161C29.4852 59.6182 29.419 59.6434 29.3661 59.6876C29.304 59.7352 29.2691 59.7592 29.2618 59.7592C29.2544 59.7596 29.247 59.7581 29.2402 59.7548C29.2335 59.7516 29.2277 59.7467 29.2234 59.7407C29.2138 59.7239 29.2093 59.7047 29.2106 59.6855C29.2106 59.5998 29.2513 59.5202 29.3327 59.4465C29.4144 59.3735 29.5055 59.3365 29.6065 59.3365C29.666 59.3365 29.7481 59.3528 29.8527 59.3855C29.9576 59.4175 30.031 59.4338 30.0739 59.4338C30.1372 59.4326 30.1981 59.4095 30.2464 59.3684C30.3016 59.3252 30.3324 59.3038 30.3382 59.3038C30.3542 59.3038 30.3666 59.3096 30.3749 59.3201C30.3842 59.3342 30.3886 59.3509 30.3876 59.3677C30.3876 59.4636 30.352 59.5457 30.2816 59.6154C30.2486 59.6492 30.2091 59.676 30.1655 59.6941C30.1218 59.7121 30.075 59.721 30.0277 59.7203C29.9682 59.7203 29.8857 59.7033 29.7804 59.6677C29.6762 59.6339 29.6003 59.6161 29.5542 59.6161ZM31.4869 61.405C31.3609 61.2786 31.2977 61.1192 31.2977 60.9256C31.2977 60.707 31.3594 60.532 31.484 60.4002C31.6082 60.2683 31.7716 60.2022 31.9739 60.2022C32.1722 60.2022 32.3334 60.2661 32.458 60.3929C32.5825 60.52 32.6446 60.6852 32.6446 60.8864C32.6446 61.0941 32.5811 61.2637 32.4543 61.3956C32.3276 61.5274 32.1649 61.5935 31.9666 61.5935C31.7727 61.5935 31.6129 61.5314 31.4869 61.405ZM32.4009 61.7554C32.5459 61.679 32.6719 61.5712 32.7699 61.4399C32.8273 61.3669 32.8727 61.2783 32.9061 61.1748C32.9399 61.0713 32.9566 60.9663 32.9566 60.8599C32.9566 60.5966 32.8676 60.3784 32.6904 60.2066C32.5128 60.0341 32.2865 59.9484 32.012 59.9484C31.7084 59.9484 31.4611 60.0392 31.2708 60.22C31.0805 60.4009 30.9854 60.6369 30.9854 60.9271C30.9854 61.2009 31.0743 61.4242 31.2526 61.5989C31.4306 61.7732 31.6612 61.8608 31.9445 61.8608C32.1115 61.8604 32.2637 61.8255 32.4009 61.7554ZM33.8085 61.7326C33.7577 61.7609 33.7101 61.7816 33.6665 61.795C33.6263 61.8078 33.5845 61.8145 33.5423 61.815C33.4846 61.815 33.4446 61.7987 33.4229 61.7652C33.4011 61.7311 33.3905 61.6679 33.3905 61.576C33.3905 61.4606 33.3971 61.2398 33.4098 60.9151C33.4229 60.5901 33.4294 60.3228 33.4294 60.1122C33.4294 59.8511 33.4218 59.6531 33.4058 59.5184C33.3902 59.3844 33.3633 59.2816 33.3255 59.2105C33.3738 59.1829 33.4203 59.1614 33.465 59.148C33.51 59.1353 33.5521 59.128 33.5921 59.128C33.6524 59.128 33.6938 59.1436 33.7156 59.1741C33.7373 59.2047 33.7482 59.2664 33.7482 59.3608C33.7482 59.4389 33.7417 59.643 33.7286 59.9742C33.7164 60.266 33.7099 60.558 33.709 60.8501C33.709 61.1203 33.7166 61.3175 33.7315 61.4424C33.7464 61.5666 33.7722 61.6632 33.8085 61.7326ZM35.3697 61.0106L35.3683 61.1141C35.368 61.2007 35.3697 61.2873 35.3734 61.3738C35.3141 61.4376 35.2423 61.4884 35.1624 61.523C35.0825 61.5575 34.9963 61.5751 34.9092 61.5746C34.7905 61.5746 34.6975 61.5463 34.63 61.4889C34.5624 61.4315 34.529 61.3527 34.529 61.2528C34.529 61.1294 34.5773 61.0357 34.6739 60.9728C34.7709 60.9104 34.914 60.8792 35.1039 60.8792C35.1355 60.8792 35.174 60.8806 35.2187 60.8857C35.2637 60.8893 35.3138 60.8955 35.3701 60.9049C35.3712 60.9402 35.3711 60.9754 35.3697 61.0106ZM35.6722 61.4696C35.6515 61.3669 35.6417 61.2321 35.6417 61.064C35.6417 61.003 35.6439 60.9227 35.6475 60.8229C35.6512 60.723 35.6533 60.6525 35.6533 60.613C35.6533 60.398 35.5974 60.2378 35.4859 60.13C35.3737 60.0221 35.207 59.9676 34.9841 59.9676C34.8025 59.9676 34.6554 59.9967 34.5425 60.0548C34.4299 60.1122 34.3736 60.1859 34.3736 60.2752C34.3736 60.3177 34.3848 60.3526 34.407 60.3795C34.4292 60.4063 34.4622 60.4248 34.5058 60.4361C34.5512 60.358 34.61 60.3007 34.683 60.2636C34.756 60.2266 34.8486 60.2084 34.9612 60.2084C35.097 60.2084 35.2005 60.2411 35.2724 60.3068C35.3439 60.3729 35.3795 60.4684 35.3795 60.5948C35.3795 60.6104 35.3795 60.6239 35.3788 60.6351C35.3781 60.6464 35.3766 60.6576 35.3737 60.6692C35.2768 60.6575 35.1793 60.6511 35.0817 60.65C34.8195 60.65 34.6111 60.7074 34.456 60.8218C34.3013 60.9358 34.2236 61.0869 34.2236 61.2764C34.2236 61.4431 34.2799 61.5786 34.3925 61.6806C34.5051 61.7834 34.6532 61.8346 34.837 61.8346C34.9299 61.8346 35.0215 61.8154 35.1115 61.778C35.2016 61.7406 35.2927 61.6828 35.3846 61.6047C35.3882 61.6763 35.4017 61.7282 35.4249 61.7602C35.4489 61.7928 35.4867 61.8085 35.5382 61.8085C35.5734 61.8072 35.608 61.7993 35.6403 61.7852C35.6784 61.7696 35.722 61.7464 35.7692 61.7159C35.7195 61.6417 35.6864 61.5577 35.6722 61.4696ZM37.6714 60.3319C37.7651 60.2411 37.8827 60.195 38.024 60.195C38.1566 60.195 38.2615 60.2277 38.3381 60.293C38.4148 60.3584 38.4529 60.447 38.4529 60.5588C38.4529 60.6326 38.4275 60.6838 38.3763 60.7121C38.3251 60.7404 38.223 60.7546 38.0712 60.7546C37.959 60.7546 37.8548 60.7517 37.7578 60.7448C37.669 60.7386 37.5806 60.7284 37.4927 60.7143C37.5181 60.5501 37.5781 60.4227 37.6714 60.3319ZM38.3461 61.5325C38.2649 61.5566 38.1806 61.5686 38.0959 61.5681C37.9038 61.5681 37.7513 61.5129 37.6391 61.4028C37.5269 61.2928 37.4709 61.1439 37.4709 60.9554V60.93C37.6608 60.9562 37.8523 60.9695 38.044 60.9696C38.3015 60.9696 38.4838 60.9398 38.5916 60.8795C38.6987 60.82 38.7525 60.7201 38.7525 60.5796C38.7525 60.4009 38.6879 60.2545 38.5589 60.1398C38.4293 60.025 38.2641 59.9673 38.0625 59.9673C37.8014 59.9673 37.5879 60.0573 37.4212 60.2375C37.2552 60.4169 37.1713 60.6482 37.1713 60.9304C37.1713 61.2104 37.2545 61.4304 37.419 61.5891C37.5842 61.7482 37.8127 61.8281 38.1035 61.8281C38.2626 61.8281 38.3901 61.8066 38.4888 61.7649C38.5869 61.7224 38.6356 61.6683 38.6356 61.6018C38.635 61.5731 38.6284 61.5448 38.6163 61.5187C38.6003 61.4852 38.5801 61.454 38.556 61.4257C38.4928 61.4736 38.4228 61.5092 38.3461 61.5325ZM40.817 61.722C40.7645 61.7502 40.7094 61.7734 40.6525 61.7914C40.604 61.8063 40.5536 61.8142 40.5029 61.8146C40.4383 61.8146 40.3943 61.7968 40.3703 61.7609C40.3471 61.7253 40.3348 61.6559 40.3348 61.5539C40.3348 61.5012 40.3406 61.3353 40.3511 61.0567C40.3616 60.7782 40.3674 60.5247 40.3674 60.2948C40.3674 60.001 40.3591 59.7748 40.3413 59.6154C40.3235 59.4563 40.2959 59.3416 40.257 59.2707C40.3188 59.2381 40.3754 59.2134 40.4259 59.1978C40.4714 59.1824 40.5191 59.1743 40.5672 59.1738C40.6311 59.1738 40.675 59.1923 40.7004 59.229C40.7259 59.2653 40.7386 59.3303 40.7386 59.424C40.7386 59.4389 40.732 59.5907 40.7193 59.8787C40.7061 60.1605 40.6995 60.4426 40.6994 60.7248C40.6994 61.003 40.7084 61.2191 40.727 61.3745C40.7455 61.5292 40.7753 61.6447 40.817 61.722ZM41.6802 60.4049C41.6781 60.5396 41.6744 60.6845 41.6704 60.8388C41.6677 60.9261 41.6655 61.0134 41.6639 61.1007C41.6639 61.2601 41.6712 61.3894 41.6861 61.4878C41.7002 61.5869 41.7238 61.6701 41.7554 61.7362C41.71 61.7604 41.6625 61.7804 41.6134 61.7958C41.572 61.8083 41.5289 61.8148 41.4856 61.815C41.4297 61.815 41.3904 61.7994 41.3701 61.7674C41.3487 61.7355 41.3389 61.669 41.3389 61.5673C41.3389 61.5452 41.3454 61.4326 41.3581 61.2274C41.3716 61.0226 41.3781 60.8294 41.3781 60.6471C41.3781 60.4746 41.3708 60.3413 41.3581 60.2469C41.3466 60.1605 41.3249 60.0758 41.2935 59.9945C41.3196 59.9862 41.3472 59.9796 41.3745 59.9745C41.4021 59.9695 41.4289 59.9669 41.4547 59.9669C41.5111 59.9642 41.5663 59.9835 41.6087 60.0207C41.6489 60.0608 41.672 60.1149 41.6733 60.1717C41.7641 60.1064 41.8615 60.0562 41.9628 60.0207C42.0648 59.9851 42.1665 59.9669 42.2656 59.9669C42.3869 59.9669 42.4962 59.9938 42.5925 60.0472C42.6887 60.1006 42.7628 60.1743 42.8136 60.2676C42.8492 60.333 42.8739 60.4081 42.8895 60.4938C42.9044 60.5803 42.9121 60.711 42.9121 60.8875C42.9121 60.9053 42.9113 60.9492 42.9091 61.0172C42.907 61.0851 42.9062 61.145 42.9062 61.1951C42.9062 61.3207 42.9146 61.4293 42.9309 61.5194C42.9473 61.6102 42.9712 61.681 43.0039 61.7322C42.9557 61.7563 42.906 61.7771 42.855 61.7947C42.8183 61.8071 42.7798 61.8138 42.741 61.8146C42.6836 61.8146 42.6437 61.7997 42.6212 61.77C42.5987 61.7402 42.5878 61.6835 42.5878 61.5996C42.5878 61.5499 42.5914 61.4413 42.6005 61.2754C42.6088 61.1101 42.6139 60.9689 42.6139 60.8526C42.6139 60.6308 42.5798 60.4702 42.5133 60.3704C42.4465 60.2712 42.339 60.2208 42.1905 60.2208C42.1153 60.2208 42.0336 60.2364 41.9464 60.2676C41.8593 60.2992 41.7703 60.3446 41.6802 60.4049ZM43.5628 60.3468C43.534 60.3469 43.5052 60.3479 43.4764 60.3497C43.4401 60.3504 43.4161 60.3519 43.4056 60.3519C43.3551 60.3519 43.3199 60.3446 43.2999 60.3304C43.2792 60.317 43.2694 60.2927 43.2694 60.2596C43.2694 60.244 43.2723 60.2255 43.2777 60.2044C43.2828 60.1837 43.2919 60.1597 43.3039 60.1336C43.3137 60.1336 43.33 60.1343 43.3536 60.1358L43.4088 60.1372C43.4401 60.1372 43.4913 60.1358 43.5606 60.1314C43.569 60.1314 43.5763 60.1314 43.5813 60.13C43.5813 60.1165 43.5813 60.0966 43.5828 60.0697C43.5843 60.0428 43.585 60.0228 43.585 60.0101C43.585 59.915 43.5784 59.8307 43.5665 59.7577C43.556 59.6914 43.5367 59.6268 43.5091 59.5656C43.555 59.5428 43.6025 59.5232 43.6511 59.5068C43.6853 59.4947 43.7212 59.4879 43.7575 59.4868C43.808 59.4868 43.8439 59.5024 43.8668 59.5337C43.8897 59.5649 43.9009 59.6161 43.9009 59.6869C43.9009 59.7181 43.8951 59.8148 43.8846 59.9764L43.8755 60.1198C43.9456 60.1107 44.0095 60.1035 44.0654 60.0984C44.1221 60.094 44.1726 60.0918 44.2172 60.0918C44.2568 60.0918 44.2859 60.0991 44.3037 60.1133C44.3215 60.1282 44.3298 60.1514 44.3298 60.1841C44.3287 60.2077 44.3231 60.2308 44.3135 60.2523C44.3006 60.2839 44.2849 60.3143 44.2666 60.3431C44.2335 60.3373 44.2002 60.3331 44.1667 60.3304C44.0987 60.3253 44.0304 60.3246 43.9623 60.3282L43.853 60.3319C43.8425 60.5211 43.8345 60.6772 43.8297 60.8C43.825 60.9227 43.8225 61.0226 43.8225 61.0999C43.8225 61.2688 43.8374 61.3872 43.8671 61.4548C43.8969 61.5223 43.9467 61.5553 44.0168 61.5553C44.0367 61.5553 44.0564 61.5517 44.0778 61.5448C44.0992 61.5379 44.1203 61.5263 44.1424 61.5099C44.1537 61.5346 44.1617 61.5561 44.1664 61.5746C44.1711 61.5931 44.1736 61.6087 44.1736 61.6236C44.1741 61.6523 44.1676 61.6807 44.1548 61.7063C44.142 61.732 44.1231 61.7542 44.0999 61.7711C44.0502 61.8099 43.9859 61.8292 43.9064 61.8292C43.7745 61.8292 43.6765 61.7852 43.6126 61.6981C43.5487 61.6109 43.5167 61.4776 43.5167 61.2968C43.5167 61.2456 43.5225 61.1101 43.5352 60.8904C43.5472 60.6693 43.5563 60.4884 43.5628 60.3468ZM45.0623 60.3319C45.156 60.2411 45.2729 60.195 45.4149 60.195C45.5475 60.195 45.6517 60.2277 45.7283 60.293C45.8057 60.3584 45.8431 60.447 45.8431 60.5588C45.8431 60.6326 45.8176 60.6838 45.7664 60.7121C45.7152 60.7404 45.6139 60.7546 45.4621 60.7546C45.3492 60.7546 45.2449 60.7517 45.1487 60.7448C45.0597 60.7386 44.971 60.7284 44.8829 60.7143C44.9083 60.5501 44.9686 60.4227 45.0623 60.3319ZM45.7367 61.5325C45.6552 61.5566 45.5707 61.5686 45.4857 61.5681C45.2936 61.5681 45.1411 61.5129 45.0296 61.4028C44.9167 61.2928 44.8607 61.1439 44.8607 60.9554V60.93C45.0509 60.9562 45.2426 60.9694 45.4345 60.9696C45.692 60.9696 45.8743 60.9398 45.9814 60.8795C46.0893 60.82 46.1423 60.7201 46.1423 60.5796C46.1423 60.4009 46.0777 60.2545 45.9487 60.1398C45.8198 60.025 45.6542 59.9673 45.453 59.9673C45.1919 59.9673 44.9784 60.0573 44.8117 60.2375C44.645 60.4169 44.5615 60.6482 44.5615 60.9304C44.5615 61.2104 44.6447 61.4304 44.8099 61.5891C44.9744 61.7482 45.2028 61.8281 45.4944 61.8281C45.6528 61.8281 45.781 61.8066 45.879 61.7649C45.9771 61.7224 46.0257 61.6683 46.0257 61.6018C46.0252 61.5731 46.0186 61.5448 46.0065 61.5187C45.9908 61.4852 45.9707 61.454 45.9469 61.4257C45.8838 61.4735 45.8126 61.5097 45.7367 61.5325ZM46.8276 60.3715C46.9191 60.2444 47.0055 60.1496 47.0887 60.0871C47.1718 60.0247 47.2532 59.9934 47.3334 59.9934C47.4017 59.9934 47.4598 60.0148 47.5078 60.0581C47.5474 60.0922 47.5727 60.1401 47.5785 60.1921C47.5843 60.2441 47.5702 60.2964 47.539 60.3384C47.505 60.3843 47.4632 60.4239 47.4155 60.4554C47.4013 60.4109 47.3765 60.3705 47.3433 60.3377C47.3151 60.3124 47.2783 60.2988 47.2405 60.2996C47.1809 60.2996 47.1177 60.3293 47.0516 60.3882C46.9863 60.447 46.922 60.532 46.8588 60.6427C46.8459 60.7536 46.8389 60.8652 46.8381 60.9768C46.8381 61.1606 46.8486 61.3131 46.8686 61.4359C46.8886 61.5579 46.9198 61.6585 46.9616 61.7366C46.9133 61.762 46.8657 61.7819 46.8196 61.7954C46.7749 61.8084 46.7285 61.8152 46.6819 61.8154C46.6231 61.8154 46.5821 61.8005 46.5599 61.7707C46.5374 61.7409 46.5258 61.6806 46.5258 61.5906C46.5258 61.5572 46.5323 61.4311 46.545 61.2103C46.5585 60.9906 46.565 60.7855 46.565 60.5963C46.565 60.4415 46.5585 60.3224 46.5465 60.2396C46.5369 60.164 46.5169 60.09 46.4869 60.0199C46.5109 60.0116 46.5352 60.005 46.5585 60.0007C46.5817 59.9963 46.606 59.9941 46.6315 59.9941C46.7016 59.9941 46.7535 60.0105 46.7876 60.0446C46.821 60.078 46.8381 60.1289 46.8381 60.1979C46.8381 60.2142 46.8374 60.2356 46.8359 60.2625L46.8276 60.3715ZM48.2199 60.4049C48.2177 60.5396 48.2141 60.6845 48.2101 60.8388C48.2074 60.9261 48.2052 61.0134 48.2036 61.1007C48.2036 61.2601 48.2108 61.3894 48.2257 61.4878C48.2399 61.5869 48.2635 61.6701 48.2951 61.7362C48.2497 61.7604 48.2022 61.7804 48.1531 61.7958C48.1116 61.8083 48.0686 61.8148 48.0253 61.815C47.9686 61.815 47.9301 61.7994 47.9098 61.7674C47.8883 61.7355 47.8785 61.669 47.8785 61.5673C47.8785 61.5452 47.8851 61.4326 47.8978 61.2274C47.9112 61.0226 47.9178 60.8294 47.9178 60.6471C47.9178 60.4746 47.9105 60.3413 47.8978 60.2469C47.8861 60.1605 47.8641 60.0757 47.8324 59.9945C47.8593 59.9862 47.8869 59.9796 47.9141 59.9745C47.9417 59.9695 47.9686 59.9669 47.9944 59.9669C48.0507 59.9642 48.1059 59.9835 48.1484 60.0207C48.1885 60.0608 48.2117 60.1149 48.213 60.1717C48.3038 60.1064 48.4004 60.0562 48.5024 60.0207C48.6045 59.9851 48.7054 59.9669 48.8053 59.9669C48.9266 59.9669 49.0359 59.9938 49.1321 60.0472C49.2284 60.1006 49.3025 60.1743 49.3533 60.2676C49.3889 60.333 49.4136 60.4081 49.4292 60.4938C49.4441 60.5803 49.4517 60.711 49.4517 60.8875C49.4517 60.9053 49.4503 60.9492 49.4488 61.0172C49.4466 61.0854 49.4459 61.145 49.4459 61.1951C49.4459 61.3207 49.4543 61.4293 49.4699 61.5194C49.4862 61.6102 49.5109 61.681 49.5436 61.7322C49.4954 61.7563 49.4457 61.7771 49.3947 61.7947C49.3579 61.8071 49.3195 61.8138 49.2807 61.8146C49.2233 61.8146 49.1833 61.7997 49.1608 61.77C49.1383 61.7402 49.1274 61.6835 49.1274 61.5996C49.1274 61.5499 49.1311 61.4413 49.1401 61.2754C49.1485 61.1101 49.1528 60.9689 49.1528 60.8526C49.1528 60.6308 49.1194 60.4702 49.053 60.3704C48.9854 60.2712 48.8787 60.2208 48.7301 60.2208C48.655 60.2208 48.5732 60.2364 48.4854 60.2676C48.3917 60.3025 48.3026 60.3486 48.2199 60.4049ZM51.0274 61.0106C51.026 61.0575 51.0253 61.0923 51.0253 61.1141L51.026 61.2249C51.0267 61.263 51.0282 61.3128 51.0311 61.3738C50.9657 61.4406 50.8949 61.4907 50.8168 61.5241C50.7378 61.558 50.6526 61.5752 50.5666 61.5746C50.4482 61.5746 50.3545 61.5463 50.287 61.4889C50.2194 61.4315 50.1864 61.3527 50.1864 61.2528C50.1864 61.1294 50.2347 61.0357 50.3316 60.9728C50.4282 60.9104 50.5713 60.8792 50.7616 60.8792C50.7928 60.8792 50.831 60.8806 50.8756 60.8857C50.9203 60.8893 50.9708 60.8955 51.0274 60.9049C51.0289 60.9401 51.0289 60.9754 51.0274 61.0106ZM51.3289 61.4696C51.3062 61.3357 51.296 61.1999 51.2984 61.064C51.2984 61.003 51.3005 60.9227 51.3042 60.8229C51.3085 60.723 51.31 60.6525 51.31 60.613C51.31 60.398 51.254 60.2378 51.1426 60.13C51.0311 60.0221 50.8637 59.9676 50.641 59.9676C50.4595 59.9676 50.312 59.9967 50.1991 60.0548C50.0869 60.1122 50.0302 60.1859 50.0302 60.2752C50.0302 60.3177 50.0415 60.3526 50.0636 60.3795C50.0898 60.4084 50.1245 60.4283 50.1628 60.4361C50.2082 60.358 50.267 60.3007 50.34 60.2636C50.4123 60.2266 50.5052 60.2084 50.6182 60.2084C50.7536 60.2084 50.8571 60.2411 50.9287 60.3068C51.0002 60.3726 51.0365 60.4684 51.0365 60.5948L51.0358 60.6351C51.0343 60.6464 51.0329 60.6576 51.0307 60.6692C50.9337 60.6576 50.8361 60.6511 50.7384 60.65C50.4758 60.65 50.2674 60.7074 50.1127 60.8218C49.9572 60.9358 49.8799 61.0869 49.8799 61.2764C49.8799 61.4431 49.9358 61.5786 50.0487 61.6806C50.1617 61.7834 50.3099 61.8346 50.4936 61.8346C50.5866 61.8346 50.6781 61.8154 50.7682 61.778C50.8582 61.7406 50.949 61.6828 51.0412 61.6047C51.0449 61.6763 51.059 61.7282 51.0823 61.7602C51.1055 61.7928 51.1433 61.8085 51.1956 61.8085C51.2246 61.8085 51.2588 61.8008 51.2969 61.7852C51.3358 61.7696 51.3786 61.7464 51.4258 61.7159C51.3761 61.6417 51.343 61.5577 51.3289 61.4696ZM52.9801 60.3362C52.9371 60.309 52.8905 60.2878 52.8418 60.273C52.793 60.2598 52.7427 60.2534 52.6921 60.2538C52.5069 60.2538 52.353 60.3206 52.2306 60.4539C52.1082 60.5872 52.0461 60.756 52.0461 60.9598C52.0461 61.145 52.1006 61.291 52.2091 61.3996C52.3185 61.5074 52.4659 61.5612 52.6518 61.5612C52.7321 61.5612 52.8051 61.5506 52.8712 61.5277C52.9386 61.5054 53.0011 61.4705 53.0557 61.425C53.0782 61.4562 53.096 61.4853 53.1083 61.5136C53.1207 61.5419 53.1268 61.5688 53.1268 61.5953C53.1268 61.6726 53.0822 61.7344 52.9928 61.7798C52.9042 61.8252 52.7829 61.848 52.6304 61.848C52.3631 61.848 52.146 61.7714 51.9785 61.6174C51.8119 61.4642 51.7283 61.2648 51.7283 61.019C51.7283 60.7205 51.8289 60.4692 52.0312 60.2665C52.2335 60.0639 52.4786 59.9615 52.7673 59.9615C52.873 59.9615 52.9518 59.9771 53.0034 60.0076C53.0549 60.0381 53.0807 60.0842 53.0807 60.1467C53.0807 60.1786 53.0735 60.2091 53.0575 60.2389C53.0411 60.268 53.0153 60.3007 52.9801 60.3362ZM53.892 61.7326C53.8408 61.7609 53.7921 61.7816 53.746 61.795C53.6999 61.8085 53.6559 61.815 53.6135 61.815C53.5539 61.815 53.5136 61.7987 53.4929 61.7667C53.4715 61.734 53.4609 61.6686 53.4609 61.5717C53.4609 61.5158 53.466 61.3901 53.4773 61.1951C53.4878 60.9994 53.4936 60.8312 53.4936 60.6914C53.4936 60.5382 53.4864 60.4147 53.4715 60.3192C53.4597 60.235 53.4356 60.153 53.3999 60.0759C53.4453 60.049 53.4914 60.0283 53.539 60.0148C53.5866 60.0007 53.6334 59.9934 53.6796 59.9934C53.7355 59.9934 53.774 60.0076 53.7943 60.0345C53.815 60.0621 53.8255 60.1133 53.8255 60.1877C53.8255 60.207 53.8197 60.3141 53.8092 60.5076C53.7984 60.6918 53.793 60.8762 53.7929 61.0607C53.7929 61.2245 53.8005 61.36 53.8168 61.4671C53.8332 61.5753 53.8582 61.6632 53.892 61.7326ZM53.8771 59.4389C53.8771 59.5082 53.8531 59.566 53.8041 59.6121C53.7551 59.6582 53.6934 59.6815 53.6189 59.6815C53.5624 59.6842 53.5071 59.6646 53.4649 59.627C53.4458 59.6075 53.431 59.5843 53.4214 59.5588C53.4117 59.5333 53.4075 59.5061 53.409 59.4788C53.409 59.4106 53.433 59.3525 53.482 59.3045C53.5052 59.2813 53.5329 59.2631 53.5633 59.2508C53.5938 59.2385 53.6264 59.2324 53.6592 59.233C53.7224 59.233 53.7747 59.2522 53.8154 59.2911C53.8568 59.3296 53.8771 59.3793 53.8771 59.4389ZM54.761 61.405C54.6346 61.2786 54.5718 61.1192 54.5718 60.9256C54.5718 60.707 54.6343 60.532 54.7585 60.4002C54.8827 60.2683 55.0465 60.2022 55.2487 60.2022C55.4467 60.2022 55.6083 60.2661 55.7325 60.3929C55.8567 60.5196 55.9191 60.6852 55.9191 60.8864C55.9191 61.0941 55.8552 61.2637 55.7292 61.3956C55.6021 61.5274 55.4398 61.5935 55.2411 61.5935C55.0468 61.5935 54.8874 61.5314 54.761 61.405ZM55.6754 61.7554C55.8203 61.6789 55.9464 61.5711 56.0444 61.4399C56.1018 61.3669 56.1472 61.2783 56.1806 61.1748C56.2142 61.0732 56.2312 60.9669 56.2311 60.8599C56.2311 60.5966 56.1425 60.3784 55.9652 60.2066C55.7873 60.0341 55.5618 59.9484 55.2872 59.9484C54.9829 59.9484 54.736 60.0392 54.546 60.22C54.3554 60.4009 54.2602 60.6369 54.2602 60.9271C54.2602 61.2009 54.3496 61.4242 54.5275 61.5989C54.7055 61.7736 54.9361 61.8608 55.219 61.8608C55.386 61.8604 55.5385 61.8255 55.6754 61.7554ZM56.9741 60.4049C56.9692 60.6368 56.9635 60.8688 56.957 61.1007C56.957 61.2601 56.9646 61.3894 56.9792 61.4878C56.9941 61.5869 57.0169 61.6701 57.0485 61.7362C57.0032 61.7604 56.9556 61.7804 56.9065 61.7958C56.8651 61.8083 56.822 61.8148 56.7787 61.815C56.7228 61.815 56.6836 61.7994 56.6632 61.7674C56.6418 61.7355 56.632 61.669 56.632 61.5673C56.632 61.5452 56.6385 61.4326 56.6512 61.2274C56.6647 61.0226 56.6712 60.8294 56.6712 60.6471C56.6712 60.4746 56.6647 60.3413 56.6512 60.2469C56.6398 60.1605 56.6181 60.0758 56.5866 59.9945C56.6135 59.9862 56.6403 59.9796 56.6683 59.9745C56.6952 59.9695 56.7221 59.9669 56.7478 59.9669C56.8132 59.9669 56.864 59.9854 56.9025 60.0207C56.9424 60.061 56.9652 60.1151 56.9665 60.1717C57.058 60.1064 57.1546 60.0562 57.2566 60.0207C57.3587 59.9851 57.4596 59.9669 57.5588 59.9669C57.68 59.9669 57.7894 59.9938 57.8856 60.0472C57.9818 60.1006 58.0559 60.1743 58.1068 60.2676C58.1423 60.333 58.167 60.4081 58.1827 60.4938C58.1975 60.5803 58.2052 60.711 58.2052 60.8875C58.2052 60.9053 58.2044 60.9492 58.2023 61.0172C58.2008 61.0854 58.2001 61.145 58.2001 61.1951C58.2001 61.3207 58.2077 61.4293 58.2241 61.5194C58.2404 61.6102 58.2644 61.681 58.297 61.7322C58.2397 61.7598 58.1899 61.7812 58.1482 61.7947C58.1064 61.8081 58.0679 61.8146 58.0341 61.8146C57.9767 61.8146 57.9368 61.7997 57.915 61.77C57.8918 61.7402 57.8809 61.6835 57.8809 61.5996C57.8809 61.5499 57.8852 61.4413 57.8936 61.2754C57.9019 61.1101 57.907 60.9689 57.907 60.8526C57.907 60.6308 57.8729 60.4702 57.8064 60.3704C57.7396 60.2712 57.6321 60.2208 57.4836 60.2208C57.4084 60.2208 57.3267 60.2364 57.2395 60.2676C57.1457 60.3022 57.0566 60.3483 56.9741 60.4049ZM59.7805 61.0106C59.7798 61.0575 59.7783 61.0923 59.7783 61.1141C59.7783 61.1497 59.7791 61.1857 59.7798 61.2249C59.7805 61.263 59.782 61.3128 59.7842 61.3738C59.7237 61.4376 59.6511 61.4887 59.5706 61.5241C59.4913 61.5579 59.4059 61.5751 59.3197 61.5746C59.2013 61.5746 59.1083 61.5463 59.0408 61.4889C58.9732 61.4315 58.9395 61.3527 58.9395 61.2528C58.9395 61.1294 58.9878 61.0357 59.0847 60.9728C59.1813 60.9104 59.3244 60.8792 59.5147 60.8792C59.5467 60.8792 59.5841 60.8806 59.6295 60.8857C59.6741 60.8893 59.7246 60.8955 59.7805 60.9049C59.782 60.9401 59.782 60.9754 59.7805 61.0106ZM60.0819 61.4696C60.0596 61.3356 60.0496 61.1998 60.0522 61.064C60.0522 61.003 60.0543 60.9227 60.058 60.8229C60.0616 60.723 60.0631 60.6525 60.0631 60.613C60.0631 60.398 60.0079 60.2378 59.8964 60.13C59.7842 60.0221 59.6167 59.9676 59.3941 59.9676C59.2126 59.9676 59.0651 59.9967 58.9529 60.0548C58.84 60.1122 58.7833 60.1859 58.7833 60.2752C58.7833 60.3177 58.7946 60.3526 58.8174 60.3795C58.8434 60.4083 58.8779 60.4282 58.9159 60.4361C58.9613 60.358 59.0201 60.3007 59.0931 60.2636C59.1661 60.2266 59.2583 60.2084 59.3713 60.2084C59.5074 60.2084 59.6109 60.2411 59.6825 60.3068C59.7533 60.3729 59.7896 60.4684 59.7896 60.5948L59.7889 60.6351C59.7882 60.6466 59.7865 60.658 59.7838 60.6692C59.6868 60.6576 59.5892 60.6511 59.4915 60.65C59.2296 60.65 59.0204 60.7074 58.8657 60.8218C58.711 60.9362 58.633 61.0869 58.633 61.2764C58.633 61.4431 58.6896 61.5786 58.8026 61.6806C58.9155 61.7834 59.0629 61.8346 59.2467 61.8346C59.3404 61.8346 59.4319 61.8154 59.522 61.778C59.612 61.7406 59.7028 61.6828 59.7943 61.6047C59.7987 61.6763 59.8121 61.7282 59.8354 61.7602C59.8593 61.7928 59.8971 61.8085 59.9487 61.8085C59.9838 61.8072 60.0185 61.7993 60.0507 61.7852C60.0888 61.7696 60.1324 61.7464 60.1793 61.7159C60.1302 61.6414 60.0971 61.5576 60.0819 61.4696ZM61.0552 61.7326C61.01 61.7584 60.9621 61.7793 60.9125 61.795C60.8725 61.8078 60.8309 61.8145 60.789 61.815C60.7309 61.815 60.691 61.7987 60.6692 61.7652C60.6477 61.7311 60.6365 61.6679 60.6365 61.576C60.6365 61.4606 60.643 61.2398 60.6565 60.9151C60.6679 60.6476 60.6743 60.3799 60.6757 60.1122C60.6757 59.8511 60.6681 59.6531 60.6525 59.5184C60.6368 59.3844 60.61 59.2816 60.5715 59.2105C60.6205 59.1829 60.6673 59.1614 60.712 59.148C60.7567 59.1353 60.7984 59.128 60.8391 59.128C60.8994 59.128 60.9404 59.1436 60.9626 59.1741C60.984 59.2047 60.9953 59.2664 60.9953 59.3608C60.9953 59.4389 60.988 59.643 60.9753 59.9742C60.9632 60.266 60.9565 60.558 60.9553 60.8501C60.9553 61.1203 60.963 61.3175 60.9786 61.4424C60.9935 61.5666 61.0189 61.6632 61.0552 61.7326Z" fill="black"/>
<path fill-rule="evenodd" clip-rule="evenodd" d="M36.9607 38.3332L36.3971 36.8613H37.6707L38.7532 37.9443L39.9001 39.0907L41.2372 40.0458L42.1712 41.5743L39.8627 42.5574L36.3971 38.3898L36.9607 38.3332Z" fill="#B4282E"/>
<path fill-rule="evenodd" clip-rule="evenodd" d="M19.0616 35.4735L22.7948 34.2021V41.1257L21.1196 41.0447L19.0616 35.4735ZM30.5975 35.106L32.2931 35.2408L33.2082 37.0358L33.8724 39.0887V41.6918L32.5142 43.1484L29.519 44.5153L27.5688 42.7116L26.402 41.0676L25.6103 39.202V37.0515L27.0012 35.6613L29.2321 34.4484H31.2548L30.5975 35.106Z" fill="#F9DC30"/>
<path fill-rule="evenodd" clip-rule="evenodd" d="M24.2126 32.7633C24.2126 32.9177 24.1585 33.3139 24.051 33.9527C23.9332 34.6369 23.837 35.3247 23.7626 36.015C23.605 37.6238 23.5266 38.9442 23.5266 39.9763C23.5266 40.2606 23.5408 40.6154 23.5698 41.0389C23.5985 41.4623 23.613 41.743 23.613 41.8814C23.613 42.4014 23.4013 42.6607 22.979 42.6607C22.711 42.6607 22.4255 42.5238 22.1223 42.25C21.8699 42.0179 21.5358 41.6167 21.12 41.0451C19.6971 39.0753 18.4156 36.8612 17.276 34.4023C16.8805 35.8454 16.647 37.8366 16.5748 40.3765C16.5439 41.4689 16.5206 42.0553 16.5054 42.1363C16.4473 42.506 16.2661 42.6901 15.961 42.6901C15.656 42.6901 15.4595 42.4886 15.3705 42.0844C15.336 41.9192 15.3186 41.5978 15.3186 41.1206C15.3186 39.051 15.5768 36.7293 16.0943 34.1546C16.2396 33.4435 16.3852 32.9431 16.5308 32.654C16.7029 32.3156 16.9306 32.1467 17.2139 32.1467C17.3937 32.1467 17.5433 32.2546 17.662 32.4699C17.6697 32.4775 17.8051 32.7833 18.0695 33.3865C19.3845 36.3495 20.8186 38.7666 22.3725 40.6361V40.2091C22.3725 37.8083 22.5519 35.5662 22.9103 33.4846C22.9939 32.9881 23.0872 32.6362 23.1903 32.4281C23.3065 32.2012 23.4616 32.0875 23.6552 32.0875C24.0267 32.0875 24.2126 32.313 24.2126 32.7633ZM22.2991 30.2797C22.2991 30.5735 22.1499 30.8659 21.8521 31.156C21.5543 31.4462 21.2533 31.5911 20.9493 31.5911C20.6145 31.5911 20.0992 31.2308 19.4034 30.51C19.0994 31.0943 18.8285 31.3863 18.5895 31.3863C18.4243 31.3863 18.3415 31.2817 18.3415 31.0718C18.3415 30.9269 18.4279 30.7319 18.6011 30.4878C18.9276 30.0259 19.2432 29.7949 19.5472 29.7949C19.6819 29.7949 19.8758 29.9235 20.13 30.1802C20.4416 30.4984 20.7703 30.7304 21.1163 30.8757C21.5009 30.2917 21.8201 29.9994 22.074 29.9994C22.2243 29.999 22.2991 30.0927 22.2991 30.2797ZM32.2615 42.3277C31.6122 43.0279 30.7348 43.3769 29.6287 43.3769C28.5919 43.3769 27.7486 43.0072 27.0997 42.2667C26.4503 41.527 26.1257 40.5403 26.1257 39.307C26.1257 37.9005 26.4177 36.8303 27.0012 36.0953C27.5852 35.3613 28.4379 34.9942 29.5597 34.9942C30.7428 34.9942 31.6532 35.3697 32.2931 36.1214C32.9323 36.8724 33.2526 37.9579 33.2526 39.3756C33.2526 40.6252 32.9225 41.609 32.2615 42.3277ZM33.1701 35.2738C32.2975 34.3089 31.0878 33.8259 29.5415 33.8259C28.0036 33.8259 26.8287 34.3685 26.0175 35.4525C25.2719 36.4602 24.899 37.7796 24.899 39.4101C24.899 40.9564 25.3238 42.189 26.1736 43.1085C27.0387 44.0469 28.1539 44.5157 29.519 44.5157C31.0606 44.5157 32.2728 44.0596 33.1552 43.1488C34.0381 42.2373 34.4793 40.9677 34.4793 39.3408C34.4793 37.5944 34.0424 36.2391 33.1701 35.2738ZM43.7386 39.8543C43.7386 40.9183 43.4151 41.7082 42.7683 42.2253V42.2485C42.184 42.611 41.3015 42.7918 40.1198 42.7918C38.3807 42.7918 37.0098 42.6861 36.0053 42.4741C35.7017 42.4087 35.4918 42.3335 35.3763 42.2493C35.2459 42.1494 35.1802 42.0023 35.1802 41.8109C35.1802 41.5103 35.3846 41.3606 35.7946 41.3606C35.9911 41.3606 36.2442 41.3897 36.5529 41.4485C36.436 40.1833 36.3779 39.108 36.3779 38.2233C36.3779 36.7544 36.4752 35.2103 36.6702 33.5906L36.3888 33.6142H36.3426C35.9868 33.6142 35.8084 33.4406 35.8084 33.0945C35.8084 32.8367 35.9199 32.6562 36.1425 32.5516C36.3455 32.4561 36.6829 32.4078 37.1547 32.4078C37.9129 32.4078 38.5092 32.5022 38.9428 32.6907C39.3456 32.8683 39.5471 33.0971 39.5471 33.3785C39.5471 33.5325 39.4919 33.6672 39.3833 33.7827C39.2726 33.8986 39.1491 33.9559 39.0111 33.9559C38.9181 33.9559 38.7543 33.8996 38.5201 33.7871C38.2663 33.6661 38.0484 33.5964 37.8683 33.5761C37.6373 35.1087 37.5202 36.6563 37.5178 38.2063C37.5178 38.8796 37.5901 40.0035 37.7364 41.5789C38.637 41.6769 39.355 41.7256 39.8907 41.7256C40.849 41.7256 41.6091 41.5546 42.1716 41.2143C42.3332 41.0102 42.456 40.6122 42.5413 40.0199C42.5965 39.6306 42.6506 39.3865 42.7022 39.2863C42.7824 39.1211 42.9342 39.0379 43.1569 39.0379C43.5443 39.0386 43.7386 39.3103 43.7386 39.8543Z" fill="black"/>
<path fill-rule="evenodd" clip-rule="evenodd" d="M28.7796 37.8438L27.8172 38.8062L28.3267 40.6732H30.8161L30.9294 39.315L30.5899 38.1838L29.7975 37.3906L28.7796 37.8438Z" fill="#B4282E"/>
<path fill-rule="evenodd" clip-rule="evenodd" d="M48.3427 38.5528C49.2505 37.3832 50.0126 36.1075 50.6124 34.7539C51.1168 36.4037 51.7131 37.9678 52.4005 39.4447C51.0141 39.3306 49.6492 39.0306 48.3427 38.5528ZM55.3483 42.2795C54.9397 41.5732 54.6532 41.0473 54.4872 40.7048H54.6731C55.1634 40.7048 55.4085 40.4855 55.4085 40.0472C55.4085 39.6223 55.1718 39.4095 54.6993 39.4095L54.4433 39.4287C54.2595 39.4458 54.0703 39.4563 53.8739 39.4607C52.7129 36.9724 51.9303 34.9075 51.5261 33.2646C51.4919 33.1367 51.456 32.9138 51.4175 32.5949C51.3833 32.3349 51.3409 32.1417 51.2904 32.0139C51.2018 31.7967 51.0278 31.6885 50.7696 31.6885C50.4569 31.6885 50.2576 31.8199 50.173 32.0843C50.109 32.4417 50.0473 32.7968 49.9877 33.1509C49.7749 34.1848 48.8111 35.8248 47.0967 38.0709C47.0124 38.0368 46.7448 37.9176 46.2959 37.715C46.0406 37.5966 45.8485 37.5378 45.7163 37.5378C45.5555 37.5378 45.4178 37.601 45.3034 37.7266C45.1903 37.8484 45.1287 38.0093 45.1317 38.1755C45.1317 38.4813 45.4948 38.7783 46.2226 39.067C45.7918 39.5117 45.3335 39.9287 44.8502 40.3155L44.0048 40.9845C43.7219 41.2085 43.5806 41.4079 43.5806 41.583C43.5806 41.7413 43.6373 41.876 43.7524 41.9893C43.8686 42.1023 44.0022 42.1589 44.1559 42.1589C44.7482 42.1589 45.8623 41.303 47.4987 39.5892C49.5458 40.3185 51.3801 40.6958 53.0012 40.7212C53.5615 41.8782 53.9643 42.6503 54.2127 43.0385C54.5468 43.5618 54.854 43.8236 55.134 43.8236C55.532 43.8236 55.7314 43.6144 55.7314 43.1986C55.7321 43.0276 55.6043 42.7222 55.3483 42.2795Z" fill="black"/>
<path fill-rule="evenodd" clip-rule="evenodd" d="M38.0225 17.7814L39.8873 17.7363L42.3067 18.366L42.928 20.1353V21.7514L41.9344 22.7449L40.2766 23.8605L38.2147 22.8542L37.3355 19.6382L38.0225 17.7814ZM19.9589 23.4367L21.8887 23.8413V28.2213H19.3151L19.9589 23.4367Z" fill="#B4282E"/>
<path fill-rule="evenodd" clip-rule="evenodd" d="M26.5001 27.2398C26.5001 27.5982 26.0712 27.94 25.2138 28.2646C24.3858 28.5762 23.4034 28.7832 22.2671 28.8845C21.5866 28.9434 20.5796 28.9728 19.2446 28.9728C18.7711 28.9728 18.45 28.9557 18.2812 28.9219C17.8588 28.8417 17.6478 28.6594 17.6478 28.3761C17.6478 28.2022 17.7056 28.0554 17.8211 27.9349C17.8742 27.877 17.939 27.8309 18.0111 27.7998C18.0833 27.7686 18.1612 27.753 18.2398 27.754H18.8186C19.0282 26.7307 19.1331 24.5699 19.1331 21.2717C19.1331 21.1326 19.1248 20.3639 19.1073 18.9653C18.9683 18.9653 18.8252 18.9679 18.6781 18.9719L18.4508 18.9781C18.0088 18.9781 17.7876 18.7823 17.7876 18.3912C17.7876 18.1316 17.9035 17.9511 18.1359 17.8487C18.3516 17.7597 18.7213 17.7146 19.2453 17.7146C21.4377 17.7146 23.1888 17.9137 24.4991 18.3124C25.3736 18.5793 25.8108 18.8909 25.8108 19.2468C25.8108 19.3953 25.7549 19.5297 25.6426 19.6506C25.5304 19.7712 25.4088 19.8318 25.2777 19.8318C25.2014 19.8318 25.038 19.7814 24.7882 19.6797C24.4747 19.5489 24.2082 19.4578 23.9881 19.4069C23.4122 19.2631 22.2076 19.132 20.3744 19.0136C20.3744 19.7752 20.3657 20.9823 20.349 22.6357C20.8828 22.6695 21.3956 22.6866 21.8873 22.6866C22.2308 22.6866 22.5863 22.6739 22.9553 22.6485C23.1543 22.6334 23.3534 22.6207 23.5527 22.6103C24.0099 22.6103 24.2394 22.8032 24.2394 23.1885C24.2394 23.4902 24.0466 23.6805 23.6613 23.7597C23.3987 23.8142 22.8079 23.8414 21.8891 23.8414C21.3807 23.8414 20.8596 23.8291 20.3261 23.8036C20.2829 25.7447 20.2026 27.0615 20.0857 27.7548H20.3461C22.0438 27.7548 23.3225 27.6287 24.1824 27.3763C24.4152 27.3088 24.7457 27.1686 25.1731 26.9544C25.5159 26.7819 25.7679 26.6962 25.9288 26.6962C26.0813 26.6962 26.2146 26.7506 26.329 26.8607C26.4427 26.9703 26.5001 27.0967 26.5001 27.2398ZM43.5868 20.2981C43.5868 21.4442 43.2788 22.3674 42.6647 23.0672C42.0492 23.7673 41.2524 24.117 40.2766 24.117C39.6836 24.117 39.185 24.0117 38.7794 23.8007C38.4028 23.5981 38.2147 23.3682 38.2147 23.1107V23.0792C38.2147 22.9019 38.2673 22.7501 38.3737 22.6234C38.4794 22.4967 38.6083 22.4335 38.7608 22.4335C38.8331 22.4335 39.0368 22.5061 39.3742 22.6499C39.7105 22.7941 40.017 22.8667 40.2926 22.8667C40.8686 22.8667 41.3443 22.6357 41.722 22.1742C42.0997 21.7126 42.2881 21.1239 42.2881 20.4082C42.2881 19.671 42.0023 19.0757 41.4307 18.6229C40.8599 18.1697 40.1085 17.9431 39.1774 17.9431C38.9065 17.9431 38.5212 17.9747 38.0225 18.0386C38.097 19.2512 38.1348 20.1852 38.1348 20.8403C38.1348 22.2602 38.1057 23.528 38.0476 24.6436C37.9768 25.9709 37.8185 27.1312 37.573 28.1241C37.4851 28.4792 37.2955 28.6565 37.0061 28.6565C36.5605 28.6565 36.3379 28.354 36.3379 27.7497C36.3379 27.8176 36.4614 26.8512 36.7094 24.8513C36.7929 24.1621 36.835 23.2662 36.835 22.1626C36.835 20.6874 36.8031 19.4356 36.7392 18.4086C36.4421 18.5604 36.1127 18.8096 35.7525 19.1553C35.4816 19.4168 35.2673 19.5475 35.1104 19.5475C34.9365 19.5475 34.785 19.4843 34.6558 19.3579C34.5265 19.2319 34.4615 19.0841 34.4615 18.9152C34.4615 18.73 34.639 18.4664 34.9931 18.1247C36.002 17.1594 37.3427 16.6768 39.0143 16.6768C40.4157 16.6768 41.5288 17.0032 42.3513 17.6569C43.1757 18.3095 43.5868 19.1898 43.5868 20.2981Z" fill="black"/>
<path fill-rule="evenodd" clip-rule="evenodd" d="M31.504 18.7761L30.4893 24.3026L27.6418 23.3547V21.1373L28.1405 18.543L31.504 18.7761Z" fill="#F9DC30"/>
<path fill-rule="evenodd" clip-rule="evenodd" d="M33.9255 18.5629C33.9255 18.6853 33.9011 18.8836 33.8539 19.1578C33.8053 19.4323 33.7817 19.6389 33.7817 19.778V19.9741C33.7817 20.4342 33.7515 20.7404 33.6934 20.8922C33.6088 21.1072 33.4301 21.2147 33.157 21.2147C32.8538 21.2147 32.6497 21.0178 32.5448 20.6227C32.4899 20.4317 32.4583 20.1092 32.45 19.6553C31.8718 19.2489 31.2665 19.0456 30.6331 19.0456C29.8229 19.0456 29.1554 19.3077 28.6325 19.8314C28.1092 20.3554 27.8474 21.0251 27.8474 21.8407C27.8474 22.5376 28.0141 23.0428 28.3474 23.3547C28.5795 23.5704 29.0861 23.8134 29.8669 24.0836C30.5714 24.3243 31.0522 24.5063 31.31 24.6283C31.7487 24.8353 32.0843 25.0783 32.3163 25.3568C32.6621 25.7708 32.8353 26.3192 32.8353 27.0033C32.8353 27.7129 32.5665 28.2744 32.0298 28.6884C31.4927 29.102 30.7573 29.309 29.8229 29.309C29.1213 29.309 28.5588 29.1379 28.1361 28.7959L28.1234 30.0702C28.1194 30.4925 27.9135 30.7042 27.506 30.7042C27.0815 30.7042 26.869 30.4217 26.869 29.8574V28.9415C26.869 27.7235 26.905 26.9231 26.9769 26.5396C27.0742 26.0257 27.2852 25.7682 27.6109 25.7682C27.8684 25.7682 28.0424 25.8721 28.1313 26.0791C28.1818 26.2058 28.2265 26.386 28.2646 26.6184C28.3064 26.9271 28.3402 27.1297 28.3652 27.2274C28.5003 27.7812 28.9252 28.0583 29.6413 28.0583C30.8837 28.0583 31.504 27.6864 31.504 26.942C31.504 26.5741 31.371 26.2763 31.1048 26.0479C30.8855 25.8576 30.4969 25.6608 29.9399 25.4577L28.7934 25.0463C27.953 24.738 27.364 24.3625 27.0263 23.9191C26.6758 23.4586 26.5004 22.8042 26.5004 21.9551C26.5004 20.7222 26.8872 19.721 27.6603 18.95C28.4339 18.1798 29.4311 17.7941 30.6524 17.7941C31.3543 17.7941 32.0175 17.9866 32.6424 18.3715C32.7568 17.9332 32.9813 17.7139 33.3161 17.7139C33.7225 17.715 33.9255 17.9975 33.9255 18.5629Z" fill="black"/>
<path fill-rule="evenodd" clip-rule="evenodd" d="M44.6686 25.8744L47.2793 23.1482L47.5517 21.3607L48.0859 20.8262L49.1053 22.9139L49.1692 25.1833L49.8904 26.8375L49.0109 27.717L45.9106 26.73L44.6686 25.8744Z" fill="#B4282E"/>
<path fill-rule="evenodd" clip-rule="evenodd" d="M45.5043 25.875C46.4854 24.6103 47.3092 23.2311 47.9577 21.7678C48.5032 23.5519 49.1471 25.2421 49.8904 26.8381C48.3919 26.7148 46.9166 26.3909 45.5043 25.875ZM53.0771 29.9028C52.6359 29.1387 52.3254 28.5711 52.146 28.2007H52.3468C52.8766 28.2007 53.1417 27.9642 53.1417 27.4903C53.1417 27.0306 52.8857 26.8007 52.3751 26.8007L52.0984 26.8218C51.9005 26.8403 51.6957 26.8515 51.4836 26.8563C50.2289 24.1671 49.382 21.9344 48.9451 20.1586C48.9081 20.021 48.8692 19.7795 48.8282 19.4345C48.7912 19.1541 48.745 18.945 48.6906 18.8066C48.5947 18.572 48.4069 18.4551 48.128 18.4551C47.7889 18.4551 47.5742 18.5978 47.4827 18.8829C47.4143 19.2668 47.3479 19.651 47.2834 20.0355C47.0527 21.1533 46.0116 22.9259 44.1577 25.3535C43.8675 25.2294 43.5791 25.1014 43.2923 24.9697C43.0163 24.8415 42.8086 24.7776 42.6666 24.7776C42.4923 24.7776 42.343 24.8459 42.2192 24.9813C42.0957 25.1171 42.034 25.2791 42.034 25.4676C42.034 25.7977 42.4269 26.1183 43.2128 26.4303C42.7477 26.9113 42.2523 27.362 41.7296 27.7798L40.8152 28.5032C40.5102 28.7454 40.3562 28.9611 40.3562 29.1503C40.3562 29.321 40.4187 29.4673 40.5429 29.5894C40.6678 29.7114 40.8123 29.7731 40.9783 29.7731C41.6196 29.7731 42.8238 28.8463 44.592 26.9943C46.8051 27.7827 48.7883 28.1916 50.5408 28.2181C51.1459 29.4688 51.582 30.304 51.8507 30.7235C52.2117 31.2893 52.5429 31.5718 52.8458 31.5718C53.2757 31.5718 53.4911 31.3463 53.4911 30.896C53.4915 30.7115 53.3531 30.3807 53.0771 29.9028Z" fill="black"/>
<path fill-rule="evenodd" clip-rule="evenodd" d="M39.2802 19.6934V21.2211L39.83 21.7706L40.1187 21.4826L40.7132 21.2211L41.0698 20.8642L40.9031 20.0798L40.5465 19.7231C40.3805 19.5564 40.2138 19.3901 40.2138 19.3901L40.0232 19.2002L39.6197 19.2714H39.3815L39.2802 19.6934Z" fill="#F9DC30"/>
<path fill-rule="evenodd" clip-rule="evenodd" d="M11.1296 9.34309C9.59893 9.53193 8.05081 9.70334 6.52811 9.36561C5.74333 9.1913 5.40996 10.3955 6.19619 10.5698C7.83764 10.9341 9.47655 10.7961 11.1296 10.5923C11.9184 10.4947 11.9278 9.24468 11.1296 9.34309ZM5.98084 43.964C7.82093 44.1357 9.6643 44.1546 11.5113 44.1546C12.3168 44.1546 12.3168 42.9057 11.5113 42.9057C9.6643 42.905 7.82093 42.8858 5.98084 42.7151C5.17863 42.6406 5.18589 43.8902 5.98084 43.964ZM5.59952 40.3411C7.24752 40.5452 8.89587 40.7101 10.5577 40.7228C10.8678 40.725 11.0581 40.5412 11.1296 40.315C11.7386 40.1349 11.6751 39.0923 10.9393 39.0923C10.6445 39.0923 10.4578 39.2597 10.379 39.4718C8.77748 39.4492 7.18868 39.2887 5.59989 39.0923C4.80131 38.9935 4.81076 40.2438 5.59952 40.3411ZM11.3453 35.4909C8.82869 36.0312 6.24739 35.8584 3.69261 35.8497C2.88713 35.8475 2.88713 37.0967 3.69261 37.0985C6.36469 37.1076 9.04549 37.2609 11.6773 36.6951C12.4646 36.5266 12.1305 35.3224 11.3453 35.4909ZM11.536 32.0583C9.8132 32.769 8.0076 32.7977 6.17186 32.7988C5.36638 32.7992 5.36638 34.0484 6.17186 34.0477C8.11037 34.047 10.0503 34.0125 11.8683 33.2626C12.6018 32.96 12.2805 31.7515 11.536 32.0583ZM10.201 29.5795C8.63912 29.9383 7.0042 29.9379 5.40887 29.9386C4.6034 29.9386 4.6034 31.1879 5.40887 31.1875C7.11714 31.1871 8.86064 31.1682 10.533 30.7837C11.3181 30.6035 10.9851 29.3993 10.201 29.5795ZM10.3666 26.3151C8.76731 26.5054 7.18106 26.838 5.57483 26.5282C4.78788 26.3764 4.45232 27.5799 5.24255 27.7325C6.97915 28.0673 8.63549 27.7702 10.3666 27.5643C11.1565 27.4703 11.1659 26.2203 10.3666 26.3151ZM5.40887 24.7038C6.99476 24.5095 8.62496 24.3315 10.201 24.6812C10.9858 24.8556 11.3192 23.6513 10.533 23.477C8.83704 23.1004 7.11751 23.2453 5.40887 23.4545C4.61974 23.5515 4.6103 24.8014 5.40887 24.7038ZM5.59952 21.2712H10.3666C11.1725 21.2712 11.1725 20.0223 10.3666 20.0223H5.59952C4.79405 20.022 4.79405 21.2712 5.59952 21.2712ZM4.45523 17.457C6.29424 17.6459 8.14487 17.6669 9.98569 17.8383C10.2127 17.8594 10.3754 17.7744 10.473 17.6397C11.171 17.5355 11.1358 16.3984 10.367 16.3984C10.1716 16.3984 10.0238 16.4722 9.92323 16.5833C8.10311 16.417 6.27354 16.3944 4.45523 16.2074C3.65411 16.1257 3.6621 17.3757 4.45523 17.457ZM10.6822 13.0516C8.9725 12.1397 7.1629 11.6495 5.21785 11.822C4.42218 11.8928 4.41565 13.1424 5.21785 13.0709C6.95046 12.9169 8.52327 13.3145 10.0518 14.1298C10.7621 14.509 11.3933 13.4307 10.6822 13.0516ZM57.0881 9.6387C59.055 9.8457 61.016 10.1813 62.9992 10.0204C63.7963 9.95537 63.8028 8.70576 62.9992 8.77113C61.016 8.93237 59.055 8.59645 57.0881 8.38982C56.2874 8.30556 56.2954 9.55517 57.0881 9.6387ZM58.613 45.8712C60.902 46.0728 63.1771 46.4218 65.4788 46.4428C66.2846 46.4505 66.2839 45.2016 65.4788 45.194C63.1771 45.1718 60.9016 44.8232 58.613 44.6224C57.8108 44.5515 57.8174 45.8012 58.613 45.8712ZM58.613 42.82H65.4788C66.2839 42.82 66.2839 41.5711 65.4788 41.5711H58.613C57.8083 41.5711 57.8083 42.82 58.613 42.82ZM57.8755 38.4117C60.0478 38.9586 62.1603 38.7854 64.3102 38.2211C65.0884 38.017 64.7576 36.8117 63.9775 37.0168C62.0383 37.526 60.1695 37.7014 58.2074 37.2075C57.4259 37.011 57.0947 38.2152 57.8755 38.4117ZM58.2571 33.4536C60.2552 34.2006 62.4171 34.238 64.5252 34.2391C65.331 34.2391 65.331 32.9902 64.5252 32.9902C62.5202 32.9895 60.4909 32.96 58.5891 32.2497C57.833 31.9665 57.5094 33.1743 58.2571 33.4536ZM57.6351 30.9743C59.4254 30.6286 61.2176 30.4579 63.0243 30.7837C63.8116 30.926 64.1486 29.7222 63.3562 29.5795C61.3192 29.2123 59.3234 29.3801 57.3031 29.7701C56.5129 29.9226 56.8485 31.1265 57.6351 30.9743ZM57.0881 26.8013C59.3005 26.9368 61.3922 26.2679 63.5719 26.0383C64.365 25.9552 64.3726 24.7048 63.5719 24.7895C61.398 25.0182 59.2921 25.6872 57.0881 25.5524C56.283 25.5031 56.2874 26.7523 57.0881 26.8013ZM56.4555 21.8508C58.5662 23.5587 62.2177 23.6136 64.6911 22.774C65.4501 22.5168 65.1244 21.3101 64.3592 21.5697C62.3633 22.2467 59.0771 22.3741 57.3387 20.9676C56.7188 20.4658 55.8291 21.3442 56.4555 21.8508ZM56.7308 18.9601C58.7438 19.7144 60.8766 19.7445 62.9996 19.7453C63.8054 19.7456 63.8054 18.4967 62.9996 18.4964C60.9808 18.4956 58.978 18.4735 57.0634 17.7559C56.3074 17.4726 55.9845 18.6805 56.7308 18.9601ZM56.7308 16.0999C58.9693 16.6831 61.2644 16.8734 63.5719 16.8851C64.3777 16.8891 64.377 15.6398 63.5719 15.6362C61.373 15.6253 59.197 15.4517 57.0634 14.8953C56.283 14.6923 55.9518 15.8969 56.7308 16.0999ZM57.3031 12.8584C59.8162 13.6497 62.4886 13.6428 65.0975 13.6436C65.9026 13.6436 65.9026 12.3947 65.0975 12.3947C62.595 12.3943 60.0453 12.4132 57.6351 11.6542C56.8648 11.4109 56.538 12.6173 57.3031 12.8584Z" fill="black"/>
<path fill-rule="evenodd" clip-rule="evenodd" d="M14.1329 10.2514C17.1964 10.6414 20.2317 10.365 23.2611 9.93616C21.8492 12.3359 19.9426 14.1999 18.0698 16.2754C16.4215 18.102 15.1922 20.419 13.3194 22.0415C13.3379 20.452 13.3815 18.8592 13.3917 17.2762C13.4062 15.004 13.3597 12.4586 14.1169 10.2615L14.1329 10.2514ZM24.8038 9.70665C27.1588 9.34386 29.5132 8.94221 31.8758 8.74248C35.0596 8.47338 38.2078 8.968 41.3923 8.9611C44.7983 8.95383 48.2105 8.76645 51.5762 9.41758C52.3628 9.56974 53.072 9.60787 53.8644 9.50111C54.0816 9.47169 54.0765 9.51164 54.0445 9.46624C54.3027 9.83557 54.3808 10.3879 54.4941 10.8125C54.8318 12.0759 54.7254 13.4435 54.5203 14.7941C51.728 14.314 48.9041 14.0561 46.086 13.7783C43.4161 13.515 40.7651 13.0862 38.0901 12.8828C35.5637 12.6907 33.0303 12.6046 30.5104 12.3206C28.3914 12.082 26.1794 11.6946 24.2652 10.7071C24.4384 10.4086 24.6044 10.1061 24.7631 9.79925C24.7798 9.76839 24.7933 9.73752 24.8038 9.70665ZM23.605 11.7734C27.6451 13.9269 32.7866 13.7845 37.2182 14.071C39.8122 14.2388 42.3739 14.6452 44.9577 14.9135C48.0823 15.2386 51.2177 15.4822 54.3147 16.0201C54.2163 16.5775 54.119 17.1259 54.0482 17.6557C53.6752 20.4429 54.002 23.241 54.192 26.0348C54.4084 29.2229 54.7011 32.4041 55.138 35.5697C55.5502 38.5599 56.3161 41.5817 56.1465 44.6151L56.1359 44.6344C49.2233 46.2657 42.0212 45.3734 34.9953 45.3494C27.9494 45.3255 20.9253 45.5368 13.9466 44.3776L13.9212 44.3471C13.6942 41.1307 14.3653 37.9331 14.2157 34.7119C14.0632 31.4341 13.3964 28.2057 13.3263 24.9191C13.3174 24.488 13.3123 24.0568 13.3111 23.6256C15.5731 22.0136 16.9833 19.4889 18.7471 17.3946C19.7498 16.2038 20.922 15.163 21.9378 13.9802C22.5398 13.2807 23.0966 12.5436 23.605 11.7734ZM55.6021 15.7172C55.6468 15.6115 55.666 15.4971 55.6558 15.3882C55.9042 13.855 56.1 12.2789 55.7793 10.7936C55.5091 9.54359 55.1827 8.07391 53.6458 8.28164C52.6399 8.41746 51.7095 8.16034 50.718 8.006C49.0831 7.7518 47.4264 7.68897 45.7744 7.67408C44.1813 7.65992 42.5878 7.71003 40.9946 7.7133C39.2762 7.71693 37.5922 7.54952 35.8821 7.43077C32.8894 7.22341 29.8756 7.66282 26.9253 8.11531C22.748 8.75591 18.4918 9.59916 14.2567 9.01956C14.0955 8.73267 13.4945 8.49263 13.2573 9.06133C12.3298 11.2457 12.226 13.705 12.162 16.0473C12.0923 18.6115 12.1857 21.1754 12.0865 23.7396C11.954 27.1685 12.6345 30.5665 12.916 33.9711C13.2185 37.6262 12.3389 41.2556 12.7213 44.9064C12.7482 45.1653 12.8898 45.4584 13.18 45.5085C20.4082 46.7697 27.6923 46.6056 34.9957 46.5994C42.2954 46.5921 49.7259 47.5414 56.8996 45.7347C57.1869 45.6625 57.3329 45.4086 57.3579 45.1326C57.6517 41.9529 56.8579 38.756 56.3981 35.6253C55.9122 32.3155 55.6406 28.9756 55.4143 25.6396C55.223 22.8172 54.9521 20.0529 55.3577 17.2428C55.4292 16.7438 55.5171 16.2336 55.6021 15.7172Z" fill="black"/>
</svg>
