<svg width="88" height="48" viewBox="0 0 88 48" fill="none" xmlns="http://www.w3.org/2000/svg">
<path d="M19.9632 25.5206C19.9188 25.5206 19.8745 25.5095 19.8327 25.486C19.7042 25.4149 19.6592 25.2518 19.7309 25.124C20.3565 24.0046 20.684 23.709 20.7192 23.679C20.8327 23.5838 20.9991 23.5968 21.095 23.7084C21.1405 23.7618 21.1632 23.8309 21.1581 23.9009C21.153 23.9709 21.1204 24.036 21.0676 24.0822C21.0584 24.0907 20.7649 24.3686 20.1954 25.3842C20.1724 25.4256 20.1387 25.4601 20.0979 25.4841C20.057 25.508 20.0105 25.5206 19.9632 25.5206ZM30.1385 17.6439C30.2194 17.576 30.7432 17.1233 30.7445 17.1259C30.7439 17.1266 30.4549 17.137 29.7849 16.8578C29.2722 16.6445 28.4516 16.6347 27.522 17.4599C27.4378 17.5304 26.7059 18.2271 26.7079 18.2277C26.7066 18.2277 27.2154 17.9857 27.9114 18.2303C28.3609 18.3849 29.1972 18.4176 30.1385 17.6439ZM28.1036 19.2908C28.1793 19.2204 28.6777 18.7533 28.6777 18.7533C28.6783 18.7559 28.39 18.7794 27.7076 18.5426C27.1864 18.3613 26.3691 18.3945 25.4864 19.2491C25.4069 19.3215 24.6815 20.071 24.6841 20.0736C24.6821 20.0743 25.2112 19.7762 25.9189 19.9784C26.3756 20.1056 27.2106 20.0945 28.1036 19.2908ZM23.8238 22.1654C23.6653 22.134 23.5264 22.1243 23.3789 22.138C23.3789 22.1393 23.3783 22.138 23.3783 22.1393C23.2987 22.1461 23.2198 22.1587 23.1421 22.1771C22.6588 22.2886 22.2008 22.5965 21.8668 22.9919C21.8029 23.063 21.266 23.714 21.268 23.7147C21.268 23.7166 21.6666 23.4785 22.3385 23.5783C22.5387 23.6077 22.7025 23.6064 22.8916 23.5718L22.8923 23.5711C22.934 23.564 22.9758 23.5555 23.0188 23.545C23.4898 23.4309 23.9302 23.1432 24.2642 22.7753C24.3248 22.7055 24.8565 22.2293 24.8565 22.2293C24.8565 22.2306 24.482 22.2978 23.8238 22.1654ZM26.1589 20.9919C26.2313 20.9182 26.6984 20.438 26.7004 20.44C26.6991 20.4406 26.4192 20.4817 25.7369 20.2971C25.2157 20.1562 24.412 20.243 23.5796 21.1191C23.5039 21.1947 22.7922 21.9932 22.7955 21.9958C22.7935 21.9958 23.3324 21.6436 24.0382 21.7903C24.4929 21.8836 25.3155 21.8203 26.1589 20.9919ZM27.8452 14.364C27.9405 14.2929 28.5837 13.8669 28.585 13.8695C28.5863 13.8689 28.4506 14.182 28.4839 14.9772C28.5073 15.5832 28.2666 16.3941 27.2829 17.1586C27.1942 17.2245 26.3846 17.8481 26.3866 17.8494C26.3873 17.8488 26.6991 17.3752 26.611 16.6074C26.5523 16.1129 26.7291 15.1736 27.8452 14.364ZM25.5634 16.2238C25.6528 16.1494 26.2614 15.6863 26.2621 15.6876C26.2634 15.6876 26.1538 15.9994 26.2523 16.7666C26.3273 17.3504 26.1512 18.1534 25.2288 18.9728C25.1459 19.0432 24.3527 19.7412 24.3553 19.7451C24.3553 19.7451 24.6645 19.2259 24.5151 18.4894C24.4166 18.0158 24.5158 17.0927 25.5634 16.2238ZM22.186 20.7213C22.233 20.8792 22.2552 21.0142 22.2552 21.1636C22.2539 21.163 22.2539 21.1636 22.2539 21.1636C22.2532 21.2406 22.2499 21.3208 22.2382 21.4024C22.173 21.8903 21.9231 22.3711 21.5767 22.7632C21.5108 22.8343 20.9518 23.4801 20.9531 23.4814C20.9531 23.4814 21.1012 23.0587 20.8689 22.435C20.7998 22.2491 20.7698 22.0854 20.777 21.8916H20.7776C20.7789 21.8473 20.7802 21.8042 20.7854 21.7592C20.8337 21.2621 21.1005 20.752 21.4848 20.3508C21.5546 20.2751 22.0562 19.6613 22.0575 19.662C22.0575 19.662 21.991 20.0664 22.186 20.7213ZM23.4493 18.2109C23.5321 18.1307 24.099 17.6388 24.1003 17.6394C24.1009 17.6401 24.0174 17.9447 24.1662 18.6675C24.2797 19.2174 24.157 20.0016 23.3051 20.8679C23.2275 20.9429 22.4662 21.7146 22.4681 21.7165C22.4675 21.7152 22.7689 21.1588 22.5732 20.4654C22.4453 20.0185 22.4779 19.1287 23.4493 18.2109ZM39.1 12.2668C39.1952 12.2172 39.8136 11.8819 39.8143 11.8839C39.8136 11.8852 39.539 11.8173 38.9904 11.3496C38.5703 10.9889 37.8031 10.7625 36.6922 11.3796C36.5917 11.4305 35.7033 11.9674 35.7052 11.97C35.7046 11.9693 36.2525 11.8506 36.8403 12.2936C37.2193 12.576 37.9969 12.8317 39.1 12.2668ZM36.7206 13.4594C36.8133 13.4066 37.4121 13.0452 37.4134 13.0465C37.4128 13.0478 37.1342 12.9982 36.5595 12.5677C36.1192 12.2376 35.3377 12.0562 34.2587 12.7203C34.1615 12.7751 33.2607 13.3753 33.2613 13.3766C33.26 13.3766 33.8471 13.205 34.4603 13.6049C34.8563 13.8606 35.6495 14.0713 36.7206 13.4594ZM39.1466 10.2003C39.6045 9.96419 40.1388 9.83242 40.6495 9.85525C40.9222 9.8683 41.1629 9.92375 41.3678 10.0118C41.3678 10.0118 41.4121 10.0307 41.4336 10.0412C42.1453 10.3647 42.4422 10.4006 42.4435 10.4C42.4428 10.4006 41.8472 10.7248 41.7572 10.7777C41.2627 11.0425 40.4369 11.3465 39.9339 11.2839C39.7069 11.2539 39.536 11.1691 39.3449 11.0908L39.3462 11.0895C39.3175 11.0777 39.2875 11.0666 39.2594 11.0529C38.4707 10.6615 38.1602 10.7131 38.1609 10.7111C38.1602 10.7092 39.08 10.231 39.1466 10.2003ZM31.8459 15.3597C31.7031 15.2833 31.5739 15.237 31.4291 15.2122L31.4278 15.2129C31.3528 15.2005 31.2732 15.192 31.1916 15.1907C30.6978 15.1803 30.1707 15.3838 29.7382 15.7139C29.6567 15.7719 28.9548 16.3186 28.9561 16.3219C28.9554 16.3232 29.4075 16.177 30.0227 16.4621C30.2053 16.5469 30.3638 16.5893 30.5543 16.6024C30.5543 16.6024 30.5543 16.6017 30.555 16.6017C30.5974 16.6037 30.6398 16.6076 30.6835 16.6082C31.1662 16.6115 31.6692 16.4249 32.0925 16.1222C32.1688 16.0635 32.8114 15.7008 32.8114 15.7008C32.8107 15.7021 32.435 15.6741 31.8459 15.3597ZM34.4001 14.7381C34.4895 14.6806 35.0687 14.299 35.0687 14.299C35.0687 14.299 34.7908 14.269 34.1972 13.8933C33.7419 13.6049 32.9539 13.4817 31.9121 14.1868C31.8175 14.2462 30.9101 14.9024 30.912 14.9057C30.9114 14.9051 31.5252 14.6761 32.1567 15.0199C32.5644 15.2397 33.3642 15.3923 34.4001 14.7381ZM37.8819 8.213C37.9915 8.16472 38.7176 7.89466 38.7176 7.89531C38.7195 7.89596 38.5023 8.18756 38.3053 9.03037C38.1553 9.67293 37.6967 10.4577 36.5531 10.9985C36.4501 11.0435 35.5094 11.4825 35.51 11.4858C35.5107 11.4845 35.9406 11.0696 36.0769 10.2372C36.1637 9.70163 36.5994 8.75965 37.8819 8.213ZM35.1987 9.54866C35.3044 9.49321 36.0128 9.17356 36.0128 9.17356C36.0134 9.17356 35.8197 9.47364 35.6931 10.308C35.5966 10.9427 35.2 11.7431 34.0936 12.3589C33.9938 12.4105 33.0427 12.9382 33.0434 12.9408C33.0434 12.9395 33.4856 12.477 33.5548 11.6564C33.5978 11.1286 33.9566 10.1814 35.1987 9.54866ZM39.0337 9.79889C39.5125 9.61363 40.0024 9.30638 40.4251 8.89802C40.6515 8.67948 40.8374 8.44986 40.9829 8.22024C40.9835 8.22154 41.0142 8.17001 41.0298 8.14457C41.5419 7.32067 41.827 7.07082 41.825 7.07082C41.8244 7.06821 41.1303 7.22347 41.0227 7.25152C40.4447 7.39177 39.5399 7.80927 39.1355 8.28743C38.9548 8.49879 38.8537 8.71406 38.7362 8.9352C38.7369 8.93455 38.7369 8.93455 38.7375 8.93455C38.7206 8.96847 38.701 9.00174 38.6853 9.03696C38.2522 9.99524 38.0089 10.2177 38.0056 10.2177C38.0043 10.2151 38.9645 9.82172 39.0337 9.79889ZM30.6955 13.3897C30.6955 13.5678 30.6772 13.7198 30.6342 13.8777C30.6342 13.8777 30.6322 13.877 30.6328 13.8777C30.61 13.9623 30.5821 14.0456 30.5493 14.1269C30.3465 14.6266 29.9701 15.0702 29.5252 15.3937C29.4404 15.4498 28.7195 15.9873 28.7209 15.9893C28.7215 15.988 28.9844 15.579 28.94 14.8542C28.927 14.6364 28.9459 14.4563 29.0085 14.2508C29.0229 14.2052 29.0366 14.1582 29.0548 14.1125C29.2434 13.5985 29.6472 13.1268 30.1319 12.8059C30.2199 12.7446 30.8768 12.2292 30.8781 12.2312C30.8794 12.2305 30.6974 12.6422 30.6955 13.3897ZM32.6229 11.0721C32.724 11.0088 33.4051 10.6435 33.4051 10.6435C33.4064 10.6448 33.2387 10.9443 33.1728 11.7499C33.122 12.3631 32.7808 13.1609 31.7214 13.8465C31.6255 13.9046 30.6777 14.5191 30.679 14.5217C30.679 14.5217 31.1252 14.0109 31.1389 13.2229C31.1454 12.7147 31.4324 11.7799 32.6229 11.0721ZM43.9318 7.83132C44.1346 7.87046 44.3421 7.91742 44.5593 7.96309C44.3636 8.12748 44.1849 8.29121 44.0107 8.44516C43.6702 8.82352 43.2122 9.13599 42.6878 9.31734C42.1626 9.49869 41.6532 9.52021 41.2252 9.40997C40.7901 9.34735 40.4659 9.3904 40.4659 9.3904C40.4659 9.3904 40.7999 9.15947 41.0895 8.82026C41.4085 8.41646 41.8789 8.07007 42.4314 7.87763C42.9826 7.68389 43.5149 7.68258 43.9318 7.83132ZM35.2766 26.042C35.2169 26.0421 35.1588 26.023 35.1106 25.9877C35.0625 25.9523 35.027 25.9025 35.0092 25.8455C34.9914 25.7885 34.9923 25.7274 35.0118 25.6709C35.0313 25.6145 35.0683 25.5658 35.1175 25.5319C36.9838 24.2415 37.8795 24.0419 37.9173 24.0341C38.0712 23.9982 38.2154 24.0987 38.2487 24.25C38.2563 24.2858 38.2568 24.3228 38.2502 24.3588C38.2435 24.3948 38.2298 24.4292 38.2099 24.4599C38.19 24.4906 38.1642 24.5171 38.134 24.5378C38.1038 24.5586 38.0699 24.5731 38.0341 24.5808C38.0106 24.5866 37.1717 24.7915 35.4358 25.9924C35.389 26.0247 35.3335 26.042 35.2766 26.042ZM49.8886 23.1567C49.9976 23.1358 50.7093 22.9878 50.7093 22.9904C50.708 22.991 50.4372 22.8527 49.965 22.2545C49.6036 21.7972 48.8553 21.37 47.5807 21.6531C47.4678 21.6753 46.441 21.9408 46.4417 21.9427C46.441 21.9421 47.0314 21.9792 47.5461 22.5592C47.8788 22.9303 48.6303 23.387 49.8886 23.1567ZM47.181 23.6304C47.2867 23.6043 47.982 23.4301 47.982 23.4301C47.9814 23.4327 47.7042 23.3075 47.1992 22.7419C46.8137 22.3094 46.0459 21.9226 44.8006 22.2572C44.6897 22.2833 43.6421 22.601 43.6434 22.6049C43.6414 22.6042 44.2787 22.6003 44.8254 23.147C45.179 23.4966 45.9513 23.9128 47.181 23.6304ZM41.7869 24.0857C41.6571 23.9761 41.5351 23.8959 41.3922 23.8339C41.3922 23.8346 41.3916 23.8332 41.3916 23.8346C41.3172 23.8013 41.2389 23.7719 41.1548 23.7491C40.6544 23.6043 40.0778 23.6532 39.5696 23.8463C39.4737 23.8789 38.6498 24.2018 38.6511 24.2044C38.6498 24.2057 39.1371 24.1901 39.7033 24.6245C39.8716 24.7537 40.023 24.8365 40.2134 24.9011C40.2134 24.9011 40.2141 24.9018 40.2148 24.9005C40.2572 24.9155 40.2996 24.9292 40.3439 24.9416C40.8345 25.0773 41.3857 25.0375 41.8795 24.8705C41.9715 24.8372 42.7021 24.6715 42.7021 24.6715C42.7008 24.6722 42.3238 24.5436 41.7869 24.0857ZM44.5286 24.1997C44.6323 24.1691 45.3062 23.9668 45.3068 23.9695C45.3049 23.9695 45.0276 23.8644 44.4953 23.3465C44.0889 22.9512 43.3074 22.6211 42.0967 23.0014C41.9884 23.0314 40.9277 23.4013 40.9296 23.4058C40.9277 23.4039 41.6022 23.3563 42.175 23.8514C42.5448 24.1684 43.3315 24.5298 44.5286 24.1997ZM49.4568 18.9767C49.5801 18.9598 50.3883 18.8972 50.3883 18.9004C50.3896 18.9004 50.1052 19.1189 49.7295 19.8652C49.4431 20.4334 48.8084 21.0544 47.5154 21.2547C47.4 21.2704 46.3393 21.4295 46.3406 21.4321C46.3412 21.4315 46.869 21.1562 47.1795 20.406C47.3778 19.9226 48.0197 19.1503 49.4568 18.9767ZM46.414 19.5198C46.534 19.497 47.3292 19.3828 47.3292 19.3828C47.3298 19.3854 47.0702 19.615 46.7695 20.3698C46.5405 20.9432 45.9691 21.591 44.7048 21.8721C44.5926 21.8943 43.5091 22.1305 43.5091 22.135C43.5098 22.1344 44.0577 21.8167 44.2958 21.0645C44.4478 20.5799 45.0088 19.7827 46.414 19.5198ZM41.0202 21.925C40.983 22.094 40.9341 22.229 40.8578 22.366H40.8565C40.8167 22.4358 40.773 22.5082 40.7208 22.5767C40.4116 22.991 39.9373 23.3054 39.4194 23.488C39.3228 23.52 38.4806 23.8272 38.4813 23.8292C38.482 23.8279 38.8323 23.5174 38.9373 22.8266C38.9686 22.6204 39.0247 22.4547 39.1297 22.2799C39.1304 22.2806 39.131 22.2806 39.131 22.2806C39.1545 22.2408 39.178 22.2016 39.2047 22.1631C39.5035 21.7319 40.0084 21.3993 40.5655 21.227C40.6679 21.1931 41.4416 20.8859 41.4429 20.8872C41.4429 20.8872 41.1748 21.2238 41.0202 21.925ZM43.4601 20.2653C43.5775 20.234 44.3485 20.0716 44.3492 20.0729C44.3492 20.0735 44.1176 20.311 43.8854 21.0501C43.7086 21.613 43.1959 22.2699 41.9721 22.63C41.8631 22.6594 40.7711 22.9797 40.7718 22.9823C40.7718 22.9823 41.3315 22.6235 41.5063 21.887C41.6166 21.4121 42.0999 20.6123 43.4601 20.2653ZM60.8559 22.7926C60.9688 22.7959 61.7065 22.8037 61.7065 22.8057C61.7059 22.8063 61.488 22.6041 61.2232 21.895C61.0216 21.3497 60.4325 20.7502 59.0985 20.7502C58.9804 20.7463 57.8917 20.7854 57.8917 20.7887C57.891 20.788 58.4547 20.9583 58.7684 21.6641C58.972 22.1168 59.5551 22.7483 60.8559 22.7926ZM58.0639 22.6736C58.1761 22.6723 58.91 22.6462 58.9106 22.6481C58.9093 22.6488 58.6791 22.4609 58.3705 21.7734C58.135 21.2456 57.5101 20.6801 56.1813 20.7394C56.0645 20.7407 54.9314 20.8314 54.9314 20.8314C54.9301 20.8327 55.5563 20.9749 55.9158 21.654C56.1486 22.0911 56.7684 22.6886 58.0639 22.6736ZM61.9528 20.9197C62.4936 20.9366 63.0513 21.0886 63.508 21.3698C63.7519 21.5205 63.9444 21.694 64.0879 21.8792C64.0879 21.8786 64.1186 21.9197 64.1336 21.9406C64.6209 22.6001 64.8753 22.7847 64.8766 22.7847C64.8766 22.7847 64.1636 22.7788 64.054 22.7808C63.4656 22.7716 62.5523 22.6301 62.1224 22.3157C61.93 22.1728 61.8158 22.0078 61.6808 21.8381C61.6808 21.8381 61.6821 21.8388 61.6827 21.8381C61.6625 21.8121 61.6403 21.7866 61.6214 21.7599C61.0969 20.9986 60.7858 20.887 60.7877 20.8857C60.7877 20.8838 61.8765 20.9138 61.9528 20.9197ZM52.6207 21.9312C52.5281 21.7884 52.4335 21.6801 52.3128 21.5835C52.2502 21.534 52.1811 21.485 52.106 21.4426C51.6585 21.181 51.0708 21.0989 50.5059 21.1817C50.4008 21.1934 49.4778 21.337 49.4778 21.3402C49.4765 21.3409 49.9657 21.4381 50.3852 22.0134C50.5098 22.1843 50.6337 22.3037 50.8014 22.4133L50.8027 22.4127C50.8399 22.4355 50.8777 22.4616 50.9175 22.4838C51.3591 22.7336 51.9156 22.8184 52.4577 22.7571C52.5581 22.7421 53.3324 22.7369 53.3324 22.7382C53.3318 22.7382 53.0011 22.5203 52.6207 21.9312ZM55.282 22.6635C55.3936 22.6563 56.1196 22.6015 56.1196 22.6015C56.1196 22.6015 55.8802 22.4319 55.5266 21.7848C55.2566 21.2877 54.5958 20.773 53.2793 20.8885C53.1626 20.8943 51.9949 21.0346 51.9955 21.0385C51.9942 21.0372 52.6753 21.1403 53.0797 21.7783C53.3413 22.1873 53.9976 22.7359 55.282 22.6635ZM61.8058 18.4508C61.931 18.4626 62.7353 18.5852 62.7347 18.5859C62.736 18.5872 62.3883 18.7444 61.7771 19.4169C61.312 19.9297 60.4907 20.417 59.1651 20.3296C59.0483 20.3185 57.9609 20.2415 57.9596 20.2447C57.9609 20.2441 58.5669 20.0823 59.1168 19.3882C59.4691 18.9407 60.3498 18.2982 61.8058 18.4508ZM58.6618 18.308C58.7871 18.3113 59.5999 18.3785 59.5999 18.3791C59.6005 18.3791 59.2705 18.5559 58.7284 19.2572C58.3161 19.7901 57.5437 20.3231 56.2136 20.3237C56.0968 20.3198 54.954 20.3185 54.9533 20.3218C54.954 20.3211 55.5959 20.1215 56.0779 19.404C56.3865 18.9421 57.1993 18.2552 58.6618 18.308ZM62.0539 20.4938C62.5875 20.5682 63.1935 20.5362 63.7904 20.377C64.1101 20.2916 64.3971 20.1755 64.6476 20.0391C64.6476 20.0391 64.7024 20.0091 64.7298 19.9935C65.6196 19.4983 66.009 19.4148 66.0071 19.4135C66.0077 19.4109 65.2915 19.1996 65.1786 19.1709C64.5772 19.0045 63.5334 18.9262 62.9183 19.1585C62.6443 19.2602 62.4421 19.4057 62.2216 19.5492C62.1896 19.5721 62.155 19.5929 62.1224 19.6164C61.2365 20.2759 60.8993 20.3555 60.8967 20.3542C60.8967 20.3542 61.9789 20.4795 62.0539 20.4938ZM52.5696 19.5364C52.4783 19.7002 52.3843 19.83 52.2643 19.9526L52.263 19.9513C52.201 20.0166 52.1338 20.0785 52.0595 20.1385C51.6185 20.4934 51.047 20.7087 50.4736 20.7785C50.3667 20.787 49.4312 20.9122 49.4312 20.9122C49.4325 20.9142 49.8826 20.6728 50.2114 19.9852C50.3106 19.7785 50.4202 19.6226 50.5819 19.466C50.6185 19.4321 50.655 19.3955 50.6948 19.3629C51.1305 18.9872 51.7418 18.7602 52.3504 18.7132C52.462 18.7015 53.3276 18.5638 53.3276 18.5638C53.3296 18.5664 52.9525 18.8515 52.5696 19.5364ZM55.5207 18.3926C55.646 18.386 56.4575 18.3984 56.4568 18.4004C56.4575 18.3997 56.1515 18.5896 55.6792 19.2954C55.3204 19.8316 54.6003 20.39 53.278 20.4794C53.1612 20.4833 51.9772 20.5635 51.9772 20.5635C51.9779 20.5668 52.6472 20.3254 53.0614 19.6092C53.3269 19.1467 54.0673 18.435 55.5207 18.3926ZM67.5529 21.1863C67.7193 21.3259 67.8856 21.4746 68.0624 21.6272C67.7982 21.6788 67.5503 21.7375 67.3122 21.7903C66.8066 21.9632 66.2274 22.0167 65.6533 21.9156C65.0786 21.8145 64.6004 21.5744 64.2638 21.2548C63.8966 20.9749 63.5769 20.8497 63.5769 20.8497C63.5769 20.8497 64.0009 20.8073 64.44 20.6442C64.939 20.4367 65.547 20.3584 66.1523 20.4628C66.7571 20.5672 67.2463 20.8373 67.5529 21.1863ZM28.7975 24.2723C28.7388 24.2723 28.6807 24.2534 28.6312 24.2143C28.576 24.1702 28.5406 24.1059 28.5327 24.0357C28.5249 23.9655 28.5453 23.895 28.5894 23.8398C29.9397 22.1522 30.7023 21.725 30.7343 21.7074C30.8621 21.6369 31.0246 21.6839 31.0957 21.8137C31.1295 21.8755 31.1375 21.9481 31.1178 22.0158C31.0981 22.0834 31.0524 22.1405 30.9907 22.1744C30.9789 22.1809 30.2685 22.5939 29.0056 24.1725C28.9806 24.2037 28.9489 24.2289 28.9129 24.2462C28.8769 24.2634 28.8375 24.2724 28.7975 24.2723ZM41.6991 18.5544C41.7918 18.5088 42.3932 18.2028 42.3939 18.2035C42.3926 18.2041 42.0984 18.1134 41.461 17.5746C40.9757 17.1636 40.1531 16.8681 39.0761 17.4161C38.9789 17.4624 38.1172 17.9438 38.1185 17.9458C38.1178 17.9458 38.6749 17.8708 39.339 18.3887C39.7689 18.7214 40.6189 19.0665 41.6991 18.5544ZM39.3531 19.6189C39.4431 19.5706 40.0302 19.2399 40.0315 19.2412C40.0309 19.2425 39.7327 19.1636 39.0778 18.6534C38.5794 18.264 37.7477 18.0044 36.6922 18.5954C36.5976 18.6437 35.713 19.1831 35.715 19.1851C35.7137 19.1851 36.3106 19.0638 36.9936 19.5511C37.4365 19.8648 38.2969 20.1734 39.3531 19.6189ZM34.4014 21.1426C34.2442 21.0448 34.1039 20.9795 33.9487 20.9358C33.8678 20.9143 33.783 20.896 33.6962 20.8843C33.1743 20.8158 32.6349 20.9704 32.1991 21.2705C32.1176 21.3246 31.4085 21.823 31.4104 21.825C31.4098 21.8256 31.8795 21.7271 32.5514 22.1113C32.7523 22.2262 32.9232 22.2927 33.1274 22.3305C33.173 22.339 33.2187 22.3468 33.265 22.3521C33.781 22.4166 34.3022 22.2751 34.7276 21.9965C34.8058 21.943 35.4556 21.624 35.4556 21.6247C35.4549 21.6254 35.0544 21.5516 34.4014 21.1426ZM37.0466 20.7594C37.1347 20.7065 37.7074 20.3556 37.7074 20.3556C37.7068 20.3575 37.4113 20.2962 36.7459 19.8311C36.2403 19.4775 35.4053 19.2675 34.3733 19.8976C34.2801 19.9505 33.3779 20.5441 33.3798 20.5474C33.3792 20.5474 34.0074 20.3732 34.7015 20.8135C35.1509 21.0953 36.0153 21.3537 37.0466 20.7594ZM39.916 14.2637C40.0217 14.2226 40.7255 14.0002 40.7255 14.0002C40.7262 14.0008 40.5442 14.2807 40.4502 15.1209C40.3772 15.7667 40.0067 16.545 38.8872 17.0081C38.7861 17.046 37.8624 17.4197 37.8631 17.4224C37.8637 17.4217 38.263 17.0296 38.3099 16.1823C38.338 15.6408 38.6785 14.7236 39.916 14.2637ZM37.3355 15.4067C37.438 15.3591 38.1249 15.0923 38.1255 15.0936C38.1262 15.0936 37.9624 15.3819 37.9233 16.2228C37.8926 16.8673 37.571 17.6651 36.4842 18.2C36.3864 18.245 35.4457 18.7003 35.447 18.7036C35.4477 18.703 35.8639 18.2626 35.858 17.4165C35.8521 16.8751 36.132 15.9429 37.3355 15.4067ZM33.0408 18.9231C33.0531 19.1097 33.0453 19.2669 33.0127 19.4274L33.0114 19.428C32.9937 19.5133 32.9706 19.5974 32.9422 19.6798C32.7655 20.1854 32.4008 20.6127 31.9533 20.9023C31.8692 20.9532 31.1405 21.4372 31.1418 21.4385C31.1418 21.4385 31.3956 21.0341 31.3062 20.2591C31.2794 20.0275 31.2892 19.8403 31.3414 19.6322L31.3427 19.6316C31.3538 19.5859 31.3669 19.5383 31.3819 19.4926C31.5482 18.9786 31.9363 18.5343 32.4152 18.2538C32.5026 18.2003 33.1438 17.7385 33.1451 17.7404C33.1458 17.7404 32.9886 18.1462 33.0408 18.9231ZM34.846 16.7262C34.9451 16.6728 35.6098 16.3629 35.6105 16.3642C35.6112 16.3635 35.467 16.6551 35.4722 17.4771C35.4755 18.1072 35.1956 18.909 34.146 19.5163C34.0508 19.5665 33.1055 20.1099 33.1068 20.1125C33.1068 20.1119 33.5361 19.6233 33.4891 18.7974C33.4565 18.2677 33.6842 17.3375 34.846 16.7262ZM51.4283 15.6573C51.5288 15.6318 52.1824 15.4557 52.1831 15.457C52.1818 15.4576 51.9111 15.3063 51.3964 14.6429C51.0063 14.1373 50.2587 13.6748 49.091 13.9899C48.9866 14.0153 48.0434 14.3076 48.0447 14.3108C48.044 14.3102 48.6044 14.3539 49.1484 15.0017C49.5013 15.4185 50.2626 15.9352 51.4283 15.6573ZM48.9097 16.2147C49.0082 16.1866 49.6507 15.9838 49.6514 15.9851C49.6507 15.9857 49.3754 15.8461 48.8379 15.2075C48.4309 14.7208 47.6696 14.2903 46.5163 14.6504C46.4138 14.6791 45.4399 15.0229 45.4405 15.0255C45.4399 15.0255 46.0479 15.0307 46.6154 15.6537C46.984 16.0542 47.7622 16.5389 48.9097 16.2147ZM51.6499 13.4743C52.1267 13.3582 52.6708 13.3706 53.1816 13.5389C53.4542 13.6289 53.6923 13.7548 53.8913 13.9042C53.8913 13.9042 53.9344 13.9374 53.9559 13.9544C54.6526 14.4978 54.9494 14.6178 54.9513 14.6172C54.9507 14.6159 54.3264 14.7992 54.2312 14.8285C53.7126 14.9753 52.8554 15.0621 52.3518 14.8481C52.1267 14.7522 51.9604 14.6087 51.7751 14.4717C51.7751 14.4704 51.7758 14.4717 51.7764 14.4711C51.749 14.4502 51.719 14.4293 51.6916 14.4065C50.9349 13.7646 50.6192 13.7254 50.6211 13.7241C50.6198 13.7215 51.5807 13.4873 51.6499 13.4743ZM43.7608 16.6721C43.6278 16.5429 43.5038 16.4477 43.361 16.3727L43.3603 16.374C43.2866 16.3355 43.2077 16.299 43.1255 16.2696C42.631 16.0922 42.0733 16.1287 41.5892 16.3309C41.4985 16.3662 40.7079 16.7047 40.7092 16.7073C40.7079 16.7067 41.1848 16.7106 41.7621 17.2312C41.9343 17.3877 42.0876 17.4875 42.2787 17.5684H42.2794C42.3211 17.5854 42.3642 17.6043 42.4086 17.6193C42.8978 17.7922 43.4347 17.7635 43.9057 17.5802C43.9924 17.5443 44.6911 17.3675 44.6911 17.3688C44.6904 17.3694 44.314 17.2109 43.7608 16.6721ZM46.4206 16.8528C46.5177 16.8202 47.1479 16.5945 47.1486 16.5958C47.1479 16.5971 46.872 16.4731 46.3162 15.8776C45.8948 15.4235 45.1211 15.0413 43.986 15.4424C43.8843 15.4751 42.8842 15.8678 42.8855 15.871C42.8842 15.871 43.5327 15.8332 44.1204 16.4125C44.502 16.785 45.292 17.2201 46.4206 16.8528ZM50.5644 11.0632C50.6766 11.0449 51.4137 10.9725 51.4137 10.9725C51.4144 10.9738 51.1776 11.2106 50.9114 12.0182C50.7066 12.6379 50.1815 13.3261 48.9896 13.5486C48.884 13.5662 47.9016 13.7391 47.9022 13.7423C47.9029 13.7417 48.3738 13.4396 48.5943 12.6157C48.7333 12.0887 49.2545 11.2569 50.5644 11.0632ZM47.7993 11.649C47.9089 11.6242 48.6362 11.5042 48.6369 11.5061C48.6382 11.5068 48.4183 11.756 48.207 12.5746C48.0452 13.2022 47.5664 13.9204 46.3935 14.2185C46.2891 14.242 45.276 14.4919 45.2773 14.4951C45.2773 14.4951 45.7751 14.1507 45.9421 13.317C46.0471 12.784 46.5109 11.9249 47.7993 11.649ZM51.5705 13.0221C52.0631 12.9667 52.5751 12.784 53.0272 12.4761C53.2679 12.3111 53.4695 12.1252 53.6306 11.9275C53.6306 11.9275 53.6645 11.8845 53.6822 11.8623C54.2451 11.1545 54.5426 10.9732 54.5413 10.9732C54.5413 10.9732 53.8433 10.9458 53.7356 10.9451C53.1551 10.9347 52.2314 11.1141 51.7943 11.4892C51.5986 11.6562 51.4805 11.8486 51.3461 12.0423H51.3475C51.3279 12.0717 51.3057 12.1011 51.2874 12.133C50.7767 13.0039 50.5125 13.1631 50.5105 13.1631C50.5098 13.1591 51.5001 13.0267 51.5705 13.0221ZM42.8845 14.2037C42.8591 14.3903 42.8193 14.5423 42.7547 14.6936L42.7534 14.693C42.7195 14.7713 42.6803 14.8502 42.6347 14.9265C42.3607 15.3858 41.9184 15.7276 41.4239 15.9168C41.3319 15.95 40.5243 16.269 40.5257 16.2703C40.5263 16.2703 40.8544 15.9285 40.9236 15.1477C40.9438 14.9148 40.9914 14.7328 41.0847 14.5403L41.086 14.5397C41.1069 14.4966 41.1278 14.4542 41.1519 14.4118C41.418 13.9415 41.8871 13.5886 42.4103 13.4137C42.5061 13.3792 43.225 13.0615 43.2263 13.0634C43.2263 13.0634 42.9915 13.4301 42.8845 14.2037ZM45.0939 12.4249C45.2015 12.393 45.9152 12.2286 45.9152 12.2286C45.9158 12.2292 45.7156 12.4863 45.5525 13.2945C45.4272 13.9155 44.9889 14.6448 43.8421 15.0199C43.739 15.0506 42.707 15.3826 42.7077 15.3859C42.7083 15.3852 43.225 14.9971 43.3476 14.1745C43.4233 13.6481 43.8342 12.7818 45.0939 12.4249ZM56.5983 12.3071C56.7999 12.4004 57.0054 12.5028 57.2226 12.6065C57.0184 12.7298 56.8292 12.8538 56.6459 12.9692C56.2826 13.2785 55.8044 13.4846 55.2649 13.5342C54.7248 13.5837 54.2121 13.4657 53.7906 13.2315C53.3588 13.0443 53.0313 12.9999 53.032 12.9999C53.032 12.9999 53.381 12.8512 53.6954 12.5778C54.0405 12.2458 54.5323 12.0142 55.0947 11.9614C55.657 11.9079 56.188 12.0449 56.5983 12.3071Z" fill="url(#paint0_linear_212_1867)"/>
<path d="M44.4626 31.1833C44.4418 30.9981 44.4234 30.8415 44.4092 30.7097H42.1207C42.1462 30.7097 42.2173 32.2036 42.2206 32.3347C42.2343 32.912 42.2166 33.4899 42.167 34.0647C42.1416 34.3647 42.1051 34.6609 42.0516 34.9564C41.865 35.9943 41.49 36.9963 40.8115 37.815C40.5681 38.1085 40.2962 38.3968 39.9622 38.586C39.6575 38.7583 39.2028 38.8568 38.9053 38.6159C38.576 38.3505 38.5309 37.7667 38.4977 37.3805C38.4494 36.8279 38.4683 36.2657 38.4663 35.7111C38.4618 34.5539 38.4761 33.3967 38.4663 32.2395C38.4618 31.7287 38.4742 31.2185 38.4663 30.7077L36.1688 30.7116L36.174 34.0568C36.1747 34.5585 36.1754 35.1018 36.1766 35.6773C36.178 36.7014 36.1407 37.7738 36.45 38.7622C36.5817 39.181 36.8048 39.6526 37.1937 40.0545C37.8668 40.7635 38.9053 41.0486 39.8551 40.8575C40.7959 40.6683 41.5969 40.0545 42.2362 39.3637C42.777 38.7785 43.188 38.1241 43.5624 37.4255C43.8807 36.7784 44.1123 36.1248 44.2539 35.4998C44.5142 34.4 44.5807 33.2544 44.5324 32.1279C44.5193 31.8123 44.496 31.4973 44.4626 31.1833ZM14.4679 27.5186V33.0596C12.627 33.3218 10.7508 33.3407 8.88512 33.1157L8.88573 27.5186H6.47999V32.6538C5.76042 32.4052 5.07809 32.0857 4.44661 31.6904C4.28023 31.5866 4.04474 31.6349 3.93189 31.796C3.6879 32.1482 3.42622 32.4879 3.14786 32.8136C3.11568 32.8502 3.09179 32.8934 3.07781 32.9401C3.06384 32.9869 3.06011 33.0361 3.06688 33.0844C3.08194 33.1894 3.14259 33.2814 3.23852 33.3446C4.22288 33.9931 5.31358 34.4914 6.47999 34.8326V40.6352H8.88573V35.2057C10.7515 35.4308 12.6276 35.4112 14.4679 35.1476V40.6352H16.8939V27.5186H14.4679ZM77.3924 33.1595C77.3924 36.1974 73.6252 36.5914 71.8103 36.6109C71.8893 37.8935 72.6192 39.1362 74.2957 39.1362C75.4596 39.1362 76.3075 38.6032 76.7812 38.2679L77.5105 39.8264C77.1954 40.1023 75.8933 40.9308 74.0394 40.9308C70.7848 40.9308 69.4437 38.84 69.4437 35.8817C69.4437 32.9821 71.1202 30.4177 74.2566 30.4177C76.1888 30.4177 77.3924 31.4042 77.3924 33.1595ZM74.1184 32.0949C72.5402 32.0949 71.7907 33.6331 71.7314 35.0925C72.7967 35.1126 75.3016 34.7773 75.3016 33.258C75.3016 32.5281 74.8282 32.0949 74.1184 32.0949ZM65.7891 26.9268V30.7136H68.452V32.5479H65.7891V37.5578C65.7891 38.7615 66.2628 39.1163 67.0709 39.1163C67.6039 39.1163 68.0971 38.8991 68.4122 38.7021L69.0039 40.2207C68.4122 40.635 67.4259 40.9108 66.4995 40.9108C63.4225 40.9108 63.4421 39.0178 63.4421 37.6368V26.9268H65.7891ZM55.2333 38.2484C55.8843 38.6627 57.0481 39.195 58.054 39.195C58.8825 39.195 59.5531 38.8206 59.5531 37.9327C59.5531 37.0456 58.8035 36.7689 57.8765 36.493C56.4362 36.0788 54.8191 35.6052 54.8191 33.5543C54.8191 31.5027 56.5152 30.4177 58.4285 30.4177C59.908 30.4177 61.1898 31.0094 61.9987 31.8183L60.8747 33.1994C60.1246 32.5483 59.2967 32.134 58.4682 32.134C57.7578 32.134 57.0872 32.4889 57.0872 33.2783C57.0872 34.185 57.9157 34.4414 58.8426 34.718C60.2824 35.1714 61.8806 35.7434 61.8806 37.7749C61.8806 39.8265 60.3613 40.9308 58.1525 40.9308C56.4564 40.9308 55.0559 40.3196 54.5432 39.9249L55.2333 38.2484ZM53.5042 33.1595C53.5042 36.1974 49.7369 36.5914 47.9221 36.6109C48.0011 37.8935 48.731 39.1362 50.4076 39.1362C51.5713 39.1362 52.4193 38.6032 52.893 38.2679L53.6223 39.8264C53.3072 40.1023 52.0052 40.9308 50.1513 40.9308C46.8967 40.9308 45.5555 38.84 45.5555 35.8817C45.5555 32.9821 47.232 30.4177 50.3678 30.4177C52.3013 30.4177 53.5042 31.4042 53.5042 33.1595ZM50.2301 32.0949C48.6521 32.0949 47.9026 33.6331 47.8432 35.0925C48.9085 35.1126 51.4134 34.7773 51.4134 33.258C51.4134 32.5281 50.94 32.0949 50.2301 32.0949ZM31.4913 40.635H29.1441V32.3111L28.9667 30.7136H30.8996L31.1364 32.1539C31.5702 31.0293 32.537 30.4182 33.5226 30.4182C34.115 30.4182 34.6668 30.5558 35.1007 30.8128L34.6864 32.8044C34.2526 32.5682 33.7993 32.4104 33.2859 32.4104C32.2213 32.4104 31.5304 33.2584 31.4913 34.402V40.635ZM27.1792 38.7415L27.3567 40.6353H25.3252L25.187 39.5896L25.108 39.57C24.4967 40.4578 23.4908 40.8916 22.406 40.8916C19.6251 40.8916 18.5397 38.9189 18.5397 36.0983C18.5397 32.6271 20.2755 30.4176 23.6682 30.4176C24.3193 30.4176 25.7591 30.5755 27.1792 31.1084V38.7415ZM24.8517 32.3904C24.5562 32.252 23.984 32.1339 23.3721 32.1339C21.4986 32.1339 20.8671 33.8894 20.8671 36.0193C20.8671 37.6566 21.2619 39.215 22.9188 39.215C24.1413 39.215 24.8517 38.3468 24.8517 37.4987V32.3904ZM81.3289 40.6351H78.9819V32.3111L78.8045 30.7136H80.7373L80.9741 32.1539C81.4079 31.0293 82.3741 30.4182 83.3604 30.4182C83.952 30.4182 84.5045 30.5558 84.9383 30.8128L84.5241 32.8044C84.0904 32.5682 83.6363 32.4104 83.1242 32.4104C82.0589 32.4104 81.3681 33.2584 81.3289 34.402V40.6351Z" fill="#026444"/>
<defs>
<linearGradient id="paint0_linear_212_1867" x1="19.9632" y1="25.5206" x2="66.0071" y2="19.4135" gradientUnits="userSpaceOnUse">
<stop stop-color="#AF9864"/>
<stop offset="0.5" stop-color="#D8B981"/>
<stop offset="1" stop-color="#D9C788"/>
</linearGradient>
</defs>
</svg>
