<svg width="78" height="50" viewBox="0 0 78 50" fill="none" xmlns="http://www.w3.org/2000/svg">
<path d="M37.6868 1.41406L36.6682 2.05852C33.9506 3.79899 27.3862 8.61374 24.5481 15.8001H22.2821L17.0848 24.6355L10.8689 15.8001H1.43066V48.5429H11.5965V35.4874L17.0641 41.932L22.3237 35.4458V48.5429L29.8909 48.5637C29.8934 48.5637 31.7411 48.5429 31.7411 48.5429H33.6122V38.4186H41.7407V48.5429H54.0894C54.0894 48.5429 58.905 41.0921 59.5569 40.0817C60.2089 41.0921 65.0037 48.5429 65.0037 48.5429H76.209V48.044C76.209 47.7937 76.2181 47.6789 76.0427 47.3787C73.6868 43.7415 66.5861 32.7781 66.3342 32.3898C66.5895 31.9906 74.1392 20.2789 76.3961 16.7772C76.4335 16.714 76.4601 16.6624 76.5 16.5277C76.5715 16.2949 76.5632 15.9664 76.5624 15.8001H64.9205C64.9205 15.8001 60.2072 23.1062 59.5569 24.1157C58.9058 23.1062 54.1933 15.8001 54.1933 15.8001H50.8047C47.9666 8.61457 41.4031 3.79899 38.6847 2.05852L37.6868 1.41406ZM37.666 15.2388C40.9598 18.8652 41.6941 22.9349 41.7823 29.0427H33.5706C33.6263 22.7303 34.1444 18.9933 37.666 15.2388ZM51.8026 30.4772L53.1955 32.3898L51.8026 34.4479V30.4772Z" fill="white"/>
<path d="M75.2203 27.8282C75.2203 28.0452 75.1837 28.2473 75.1114 28.4336C75.0332 28.619 74.9326 28.7787 74.8012 28.9134C74.6706 29.0506 74.516 29.157 74.3405 29.2352C74.1625 29.3125 73.9696 29.35 73.7651 29.35C73.5547 29.35 73.3634 29.3125 73.1846 29.2352C73.0083 29.157 72.8512 29.0506 72.7189 28.9134C72.5892 28.7787 72.4853 28.619 72.4113 28.4336C72.3381 28.2473 72.3007 28.0452 72.3007 27.8282C72.3007 27.6161 72.3381 27.4182 72.4113 27.2353C72.4853 27.0515 72.5892 26.8927 72.7189 26.7588C72.8512 26.6241 73.0083 26.5185 73.1846 26.4395C73.3634 26.3638 73.5547 26.3256 73.7651 26.3256C73.9696 26.3256 74.1625 26.3638 74.3405 26.4395C74.516 26.5185 74.6706 26.6241 74.8012 26.7588C74.9326 26.8927 75.0332 27.0515 75.1114 27.2353C75.1837 27.4182 75.2203 27.6161 75.2203 27.8282ZM74.4528 26.2C74.2365 26.1094 74.0062 26.0645 73.7651 26.0645C73.5206 26.0645 73.2927 26.1094 73.0749 26.2C72.857 26.289 72.6666 26.4154 72.5069 26.5725C72.3439 26.7289 72.2134 26.9151 72.1211 27.1297C72.0254 27.3442 71.978 27.5787 71.978 27.8282C71.978 28.0835 72.0254 28.3221 72.1211 28.5367C72.2134 28.7537 72.3439 28.9408 72.5069 29.1005C72.6666 29.261 72.857 29.3841 73.0749 29.4739C73.2927 29.5628 73.5206 29.6052 73.7651 29.6052C74.0062 29.6052 74.2365 29.5628 74.4528 29.4739C74.669 29.3841 74.8544 29.261 75.0166 29.1005C75.1762 28.9408 75.3076 28.7537 75.4024 28.5367C75.4947 28.3221 75.5438 28.0835 75.5438 27.8282C75.5438 27.5787 75.4947 27.3442 75.4024 27.1297C75.3076 26.9151 75.1762 26.7289 75.0166 26.5725C74.8544 26.4154 74.669 26.289 74.4528 26.2Z" fill="#ED1B24"/>
<path d="M73.7306 27.7176H73.3947V27.0581H73.8221C73.8762 27.0581 73.9302 27.0598 73.9851 27.0698C74.0408 27.0798 74.089 27.0931 74.1331 27.1163C74.1755 27.1363 74.2096 27.1704 74.2362 27.2111C74.262 27.2511 74.2753 27.3068 74.2753 27.3766C74.2753 27.4589 74.2603 27.5238 74.2329 27.5679C74.2013 27.6136 74.1622 27.6502 74.1123 27.671C74.0599 27.6926 74.0026 27.7076 73.9377 27.7109C73.8737 27.7159 73.8022 27.7176 73.7306 27.7176ZM74.4425 27.8007C74.5464 27.7142 74.5971 27.5762 74.5971 27.3908C74.5971 27.1912 74.5406 27.0432 74.4233 26.9459C74.3036 26.8453 74.1215 26.7979 73.8737 26.7979H73.0729V28.8684H73.3947V27.9787H73.7373L74.3028 28.8684H74.6462L74.055 27.9546C74.2096 27.9371 74.3402 27.8872 74.4425 27.8007Z" fill="#ED1B24"/>
<path d="M33.5717 29.0402C33.6274 22.7278 34.1396 18.9866 37.6613 15.2321C40.9551 18.8586 41.6852 22.9324 41.7734 29.0402H33.5717ZM37.6704 13.9199L37.3511 14.2451C33.0453 18.6083 32.7127 23.0181 32.6761 29.4818L32.6736 29.9292H42.6773L42.6731 29.4801C42.6108 22.811 41.8457 18.2657 37.9873 14.2501L37.6704 13.9199Z" fill="#ED1B24"/>
<path d="M50.2965 39.7377V25.0606L55.2211 32.3992L50.2965 39.7377ZM31.6712 30.9232C31.6712 22.2009 31.9198 17.6988 37.6767 12.5132L37.6751 12.5115H37.6784C37.6776 12.5115 37.6767 12.5132 37.6767 12.5132C43.4328 17.6988 43.6823 23.6586 43.6823 30.9232H31.6712ZM53.1688 17.6772H49.5415C47.4351 10.9357 41.3406 5.99623 37.6767 3.65039C34.0129 5.99623 27.9184 10.9357 25.8112 17.6772H23.4745L17.0872 28.1117L9.67469 17.6772H3.31323V46.663H9.71627V29.5627L17.0756 38.4496L24.2121 29.5627V46.6622L31.7361 46.663V36.5237H43.6174V46.663H53.0715L59.556 36.6077L66.0405 46.663H73.335L64.0947 32.3992L73.5828 17.6772H65.9432L59.556 27.5819L53.1688 17.6772Z" fill="#ED1B24"/>
<path d="M51.8044 30.4865L53.1989 32.3866L51.8044 34.4539V30.4865ZM51.1375 28.2695V36.7448L54.0205 32.3941L51.1375 28.2695Z" fill="#ED1B24"/>
<path d="M65.2789 32.3989C65.2789 32.3989 74.3521 46.4033 75.1645 47.6573H65.4976C65.2473 47.2698 59.5561 38.4436 59.5561 38.4436C59.5561 38.4436 53.8657 47.2681 53.6146 47.6573H42.623V37.5189H32.7307V47.6573H23.2176V32.6126L17.0732 40.189L10.7117 32.6351V47.6573H2.31877V16.6824H10.3883L17.0873 26.2761C17.0873 26.2761 22.5116 17.0699 22.7611 16.6824H25.1493L25.2574 16.3947C27.9342 9.29063 34.4587 4.52993 37.1405 2.81275C37.1405 2.81275 37.4473 2.61567 37.6768 2.46848C37.9063 2.61567 38.2132 2.81275 38.2132 2.81275C40.895 4.52993 47.4194 9.29063 50.0962 16.3947L50.2043 16.6824H53.711C53.9622 17.0699 59.5561 25.7456 59.5561 25.7456C59.5561 25.7456 65.1508 17.0699 65.4003 16.6824H75.4082C74.5974 17.9381 65.2789 32.3989 65.2789 32.3989ZM76.569 15.7926H64.9172C64.9172 15.7926 60.2064 23.0979 59.5561 24.1074C58.905 23.0979 54.195 15.7926 54.195 15.7926H50.7964C47.9583 8.60708 41.4114 3.80564 38.693 2.06518L37.6768 1.41406L36.6607 2.06518C33.9431 3.80564 27.3954 8.60625 24.5573 15.7926H22.2763L17.0873 24.6363L10.8722 15.7926H1.43066V48.5462H11.5998V35.4932L17.0699 41.9253L22.3287 35.4499V48.5462L29.9001 48.5545C29.9025 48.5545 31.7378 48.5462 31.7378 48.5462H33.6188V38.4086H41.734V48.5462H54.0985C54.0985 48.5462 58.9041 41.0938 59.5561 40.0834C60.208 41.0938 65.0136 48.5462 65.0136 48.5462H76.2181V48.0523C76.2181 47.802 76.2198 47.6822 76.0443 47.382C73.6885 43.7448 66.5894 32.7856 66.3375 32.3973C66.5928 31.9981 74.1434 20.2831 76.4002 16.7813C76.4376 16.7181 76.4668 16.655 76.5067 16.5202C76.5782 16.2874 76.5699 15.9589 76.569 15.7926Z" fill="#ED1B24"/>
</svg>
