<svg width="82" height="26" viewBox="0 0 82 26" fill="none" xmlns="http://www.w3.org/2000/svg">
<mask id="mask0_212_1916" style="mask-type:luminance" maskUnits="userSpaceOnUse" x="0" y="6" width="27" height="15">
<path d="M-3.05176e-05 6.55859H26.8159V20.9128H-3.05176e-05V6.55859Z" fill="white"/>
</mask>
<g mask="url(#mask0_212_1916)">
<path d="M14.7722 19.5538L11.9757 19.5515C10.894 19.5515 9.84265 19.3599 8.87543 19.0258C8.86844 19.0235 8.86144 19.0212 8.85205 19.0188C4.05332 18.3366 0.469443 14.372 0.686717 9.76713L0.829231 6.76499V6.75098C0.824446 6.75564 0.81756 6.76032 0.812895 6.76499C0.282556 7.31402 -0.0211593 8.02426 0.0022021 8.78822L0.11668 12.316C0.26387 17.0166 4.81496 20.9509 10.2842 20.7827L26.6476 20.2431L14.7862 19.5538L14.7722 19.5538Z" fill="#94D4D7"/>
</g>
<path d="M4.6445 3.24038C4.79402 3.1773 4.94822 3.12356 5.10708 3.08384L4.24733 3.07918C2.43203 3.0675 0.939138 4.38984 0.859705 6.07897L0.829315 6.74715C1.29657 6.27055 1.91569 5.91543 2.64461 5.75189C2.83152 4.62113 3.60952 3.6796 4.6445 3.24038Z" fill="#FAB314"/>
<path d="M72.9623 0C68.8247 0 36.9905 1.55831 36.9905 1.55831L5.80098 2.97643C5.56268 2.98811 5.32905 3.0255 5.10477 3.0839C4.94823 3.12595 4.79404 3.17735 4.64452 3.24043C3.60954 3.67966 2.83156 4.62118 2.64465 5.75195C2.65632 5.75195 2.66565 5.74961 2.67504 5.74728C2.86195 5.70756 3.07688 5.67953 3.2708 5.66551L36.2031 3.34557C36.2031 3.34557 36.7615 3.30352 37.7358 3.2311C44.3568 2.74748 70.3737 0.857425 74.1865 0.735938C75.8453 0.684538 76.9714 0.7593 77.7657 0.899478C77.1162 0.446239 75.9785 0 72.9623 0Z" fill="#EB192E"/>
<path d="M2.57919 10.6074C2.57919 10.598 2.5792 10.5887 2.5768 10.5817C2.57202 10.4485 2.56979 10.3153 2.56979 10.1798L2.57914 6.28989C2.59553 6.09832 2.61652 5.9301 2.64456 5.75488C1.91563 5.91609 1.29652 6.2712 0.829258 6.75014V6.76416L0.686744 9.76629C0.46947 14.3711 4.05334 18.3358 8.85208 19.018C5.32428 17.7868 2.75675 14.4622 2.57919 10.6074Z" fill="#A69C35"/>
<mask id="mask1_212_1916" style="mask-type:luminance" maskUnits="userSpaceOnUse" x="77" y="0" width="5" height="19">
<path d="M77.6536 0.577148H81.8449V18.5199H77.6536V0.577148Z" fill="white"/>
</mask>
<g mask="url(#mask1_212_1916)">
<path d="M81.7233 4.53506C81.3635 3.07488 80.5108 2.22915 79.9267 1.81095C79.4852 1.52125 79.06 1.12408 77.7657 0.897461C78.0063 1.06567 78.1792 1.23155 78.3567 1.37874C78.8964 1.85768 79.6767 2.81789 79.9758 4.4346C80.13 5.26632 80.0412 6.84332 79.8379 8.67497C79.616 10.6561 79.2609 12.934 78.9245 14.8965C78.7633 15.838 78.6067 16.7095 78.4736 17.4361C78.4198 17.7258 78.3357 17.9641 78.1979 18.2094C78.1909 18.2234 78.1114 18.3682 78.06 18.436H78.0577V18.4383C78.0834 18.4337 78.109 18.429 78.1348 18.4266C79.3379 18.2701 80.3121 17.4571 80.5037 16.4011C81.1158 13.0602 82.2069 6.4882 81.7233 4.53506Z" fill="#94D4D7"/>
</g>
<path d="M26.8205 20.2323L26.8416 20.2347L26.6477 20.2417L28.0074 20.3188L36.8619 20.5828V19.7744L26.8205 20.2323Z" fill="#FAB314"/>
<path d="M75.8663 19.6023L73.7029 19.6L73.738 21.6863L74.857 21.719C76.1607 21.7821 77.3172 21.4807 77.6115 20.3009C77.747 19.7519 77.8989 19.1211 78.0601 18.4365C77.5788 19.1468 76.7681 19.6023 75.8663 19.6023Z" fill="#FAB314"/>
<path d="M26.8206 20.2326L36.862 19.7747V19.5714L14.7863 19.5527L26.6477 20.2419L26.8416 20.2349L26.8206 20.2326Z" fill="#A69C35"/>
<path d="M78.0577 18.4365C77.9759 18.4459 77.8942 18.4505 77.8124 18.4552L73.6842 18.5814L73.7028 19.6L75.8662 19.6023C76.768 19.6023 77.5787 19.1468 78.06 18.4365C78.06 18.4365 78.06 18.4365 78.0624 18.4365H78.06L78.0577 18.4365Z" fill="#EB192E"/>
<path d="M79.838 8.6757C80.0413 6.84405 80.1277 5.26705 79.9759 4.43533C79.6768 2.81862 78.8965 1.85841 78.3568 1.37947C78.1793 1.23228 78.004 1.0664 77.7657 0.898191C77.7657 0.898191 77.7657 0.898191 77.7633 0.898191C76.969 0.76035 75.8452 0.685589 74.1865 0.736987C70.376 0.856138 44.3591 2.74853 37.738 3.23214C36.7614 3.30457 36.2054 3.34429 36.2054 3.34429L3.27306 5.66656C3.06747 5.68058 2.83851 5.71095 2.64693 5.75534C2.61655 5.93056 2.59789 6.09877 2.57918 6.29035L2.56985 10.1803C2.56985 10.3134 2.57224 10.4489 2.57918 10.5821C2.57918 10.5891 2.57918 10.5985 2.57918 10.6078C2.75674 14.4627 5.32433 17.7872 8.85212 19.0185C8.85912 19.0208 8.8685 19.0231 8.8755 19.0255C9.84272 19.3596 10.8941 19.5511 11.9758 19.5511L19.1458 19.5581L36.8619 19.5722V19.5698L73.6749 18.5816H73.6842L77.8124 18.4554C77.8942 18.4531 77.976 18.4461 78.0577 18.4367H78.0601C78.0601 18.4367 78.0601 18.4367 78.0625 18.4367C78.1115 18.369 78.191 18.2241 78.198 18.2101C78.3359 17.9648 78.4176 17.7265 78.4714 17.4368C78.6069 16.7102 78.7634 15.8388 78.9246 14.8973C79.261 12.9348 79.6161 10.6569 79.838 8.6757Z" fill="#BD1E2E"/>
<path d="M17.0829 11.0578C17.48 11.0578 17.8071 11.0135 18.0664 10.92C18.3258 10.8289 18.5407 10.6864 18.7136 10.4925C18.8841 10.3009 19.0173 10.0766 19.1084 9.81961C19.2019 9.56495 19.2486 9.27525 19.2486 8.95518C19.2486 8.56502 19.1505 8.27532 18.9542 8.08141C18.758 7.88983 18.4473 7.79404 18.0221 7.79404C17.716 7.79404 17.5127 7.79871 17.4076 7.80573L16.7044 11.0578H17.0829ZM18.8444 11.5391C19.0851 11.7354 19.2603 11.9246 19.3701 12.1068C19.4822 12.2891 19.5757 12.5554 19.6504 12.9035L19.8257 13.7446C19.8887 14.0506 19.9495 14.2679 20.0079 14.3987C20.0663 14.5272 20.1457 14.6347 20.2439 14.7165C20.342 14.7982 20.4752 14.859 20.648 14.8987L20.5639 15.2959H18.4192C18.2861 14.9197 18.1692 14.4735 18.0711 13.9548L17.8772 12.9572C17.8212 12.6582 17.7557 12.4199 17.6786 12.2493C17.6039 12.0765 17.5057 11.9526 17.3913 11.8755C17.2744 11.8008 17.1179 11.7611 16.9217 11.7611H16.5479L16.1156 13.6721C16.0876 13.8053 16.0689 13.9198 16.0549 14.0156C16.0432 14.1114 16.0386 14.2329 16.0386 14.3777C16.0386 14.5599 16.0853 14.6908 16.1787 14.7679C16.2722 14.8426 16.4194 14.887 16.6203 14.8987L16.5362 15.2959H13.4289L13.513 14.8987C13.6812 14.852 13.8121 14.7842 13.9009 14.7001C13.9896 14.616 14.0691 14.4992 14.1321 14.3427C14.1952 14.1885 14.2606 13.9665 14.3237 13.6721L15.4194 8.71454C15.4708 8.47858 15.4965 8.24261 15.4965 8.01132C15.4965 7.84311 15.4568 7.71928 15.3797 7.63985C15.3003 7.56275 15.1741 7.51135 14.9989 7.48799L15.083 7.09082H18.0805C18.487 7.09082 18.8071 7.1025 19.0407 7.12353C19.2743 7.14689 19.4986 7.18894 19.7135 7.2567C19.9285 7.32211 20.1131 7.40388 20.2672 7.50201C20.4214 7.60013 20.5523 7.71695 20.6644 7.85479C20.7742 7.99029 20.8583 8.14916 20.9167 8.32905C20.9751 8.50895 21.0032 8.71221 21.0032 8.93649C21.0032 9.54159 20.8256 10.0556 20.4682 10.4761C20.1107 10.8966 19.5687 11.2331 18.8398 11.4854L18.8444 11.5391Z" fill="white"/>
<path d="M22.7695 12.0272C23.5054 12.0062 24.0708 11.866 24.4609 11.602C24.8511 11.3403 25.0473 10.9689 25.0473 10.4876C25.0473 10.282 25.0006 10.1278 24.9072 10.0203C24.8114 9.91521 24.6805 9.86148 24.5123 9.86148C24.1385 9.86148 23.8044 10.046 23.5054 10.4152C23.2063 10.7843 22.961 11.3217 22.7695 12.0272ZM25.9562 14.0458C25.5496 14.5013 25.1151 14.8424 24.6478 15.0621C24.1806 15.2817 23.6736 15.3915 23.1292 15.3915C22.662 15.3915 22.2625 15.3097 21.9331 15.1462C21.606 14.9826 21.3583 14.7373 21.1901 14.4149C21.0242 14.0925 20.9425 13.707 20.9425 13.2584C20.9425 13.0505 20.9705 12.7842 21.0266 12.4594C21.1013 12.0179 21.2182 11.6254 21.3747 11.2796C21.5709 10.8567 21.8279 10.4899 22.1433 10.1862C22.4611 9.8825 22.8325 9.64654 23.2601 9.483C23.6853 9.31946 24.1549 9.23535 24.6618 9.23535C25.2646 9.23535 25.7202 9.34516 26.0333 9.56477C26.3463 9.78204 26.5028 10.1161 26.5028 10.5647C26.5028 10.8708 26.4421 11.1394 26.3183 11.3707C26.1968 11.6043 25.9935 11.8146 25.7085 12.0015C25.4235 12.1908 25.0216 12.3426 24.503 12.4594C23.9843 12.5762 23.3582 12.6417 22.6246 12.658C22.5732 12.894 22.5475 13.1393 22.5475 13.3916C22.5475 13.5388 22.5615 13.6813 22.5896 13.8145C22.6176 13.9476 22.6667 14.0668 22.7391 14.1719C22.8115 14.2771 22.9073 14.3588 23.0288 14.4219C23.1479 14.4827 23.3021 14.5154 23.4914 14.5154C23.8441 14.5154 24.1619 14.4429 24.4469 14.3004C24.7319 14.1603 25.066 13.9056 25.4492 13.5411L25.9562 14.0458Z" fill="white"/>
<path d="M27.3322 13.6142C27.3509 13.9015 27.4093 14.1328 27.5098 14.308C27.6079 14.4833 27.7271 14.6024 27.8719 14.6678C28.0168 14.7356 28.185 14.7683 28.3766 14.7683C28.6943 14.7683 28.9396 14.6912 29.1102 14.537C29.283 14.3828 29.3695 14.1655 29.3695 13.8852C29.3695 13.7146 29.3414 13.5744 29.2854 13.4576C29.2293 13.3408 29.1359 13.2287 29.0097 13.1189C28.8812 13.0067 28.6709 12.8642 28.3836 12.689C27.9817 12.4483 27.692 12.1984 27.5098 11.939C27.3252 11.682 27.2364 11.3923 27.2364 11.0699C27.2364 10.4812 27.4561 10.0279 27.8976 9.71255C28.3368 9.39481 28.9536 9.23828 29.748 9.23828C30.0564 9.23828 30.3881 9.26164 30.7432 9.31304C31.0983 9.3621 31.4207 9.42986 31.7128 9.51396L31.3997 10.9508H30.6381C30.6007 10.577 30.5073 10.3036 30.3531 10.1284C30.1989 9.95085 29.9769 9.86207 29.6872 9.86207C29.4185 9.86207 29.2036 9.93216 29.0424 10.07C28.8789 10.2078 28.7971 10.3947 28.7971 10.633C28.7971 10.7802 28.8298 10.9111 28.8905 11.0232C28.9536 11.1353 29.0517 11.2475 29.1896 11.3596C29.3251 11.4718 29.5284 11.6073 29.797 11.7685C30.2199 12.0208 30.5259 12.2825 30.7105 12.5488C30.8951 12.8175 30.9862 13.1329 30.9862 13.4927C30.9862 13.9015 30.8764 14.252 30.6591 14.5393C30.4395 14.829 30.1405 15.0416 29.762 15.1818C29.3835 15.322 28.9513 15.3921 28.4677 15.3921C28.0378 15.3921 27.6406 15.3664 27.2715 15.315C26.9024 15.2636 26.5566 15.1935 26.2318 15.1047L26.5683 13.6142H27.3322Z" fill="white"/>
<path d="M35.7779 14.2025C35.4929 14.5109 35.2406 14.7469 35.0139 14.9127C34.7897 15.0763 34.556 15.1978 34.3131 15.2749C34.0678 15.3543 33.7851 15.3917 33.465 15.3917C33.1402 15.3917 32.8692 15.3333 32.6543 15.2141C32.4417 15.0973 32.2852 14.9384 32.1894 14.7398C32.0936 14.5413 32.0445 14.3193 32.0445 14.0693C32.0445 13.8824 32.0585 13.7025 32.0866 13.532C32.1146 13.3614 32.173 13.0811 32.2618 12.6933L32.8809 10.0836H32.0702L32.1543 9.68879C32.402 9.67244 32.5959 9.63038 32.7361 9.56497C32.8762 9.49721 32.9954 9.40143 33.0935 9.27293C33.1916 9.14443 33.2851 8.96921 33.3739 8.74493C33.4627 8.52064 33.5608 8.21459 33.6682 7.8291H35.1121L34.7616 9.33367H36.2241L36.0606 10.0836H34.5887L33.9206 12.8311C33.8925 12.9526 33.8668 13.0694 33.8435 13.1862C33.8201 13.303 33.7991 13.4128 33.7827 13.5203C33.7663 13.6254 33.7547 13.7142 33.75 13.7843C33.743 13.8544 33.7407 13.9175 33.7407 13.9735C33.7407 14.1628 33.7734 14.3006 33.8435 14.3847C33.9112 14.4712 34.0117 14.5156 34.1425 14.5156C34.3247 14.5156 34.5093 14.4501 34.6986 14.3217C34.8901 14.1955 35.0957 13.9969 35.3153 13.7282L35.7779 14.2025Z" fill="white"/>
<path d="M40.3477 11.5576C40.3757 11.4291 40.399 11.2866 40.4154 11.1277C40.4341 10.9689 40.4435 10.8147 40.4435 10.6675C40.4435 10.4035 40.3921 10.2026 40.294 10.0671C40.1935 9.92923 40.0276 9.86148 39.801 9.86148C39.4272 9.86148 39.0978 10.0484 38.8081 10.4245C38.5207 10.7983 38.2871 11.303 38.1095 11.9361C37.9343 12.5692 37.8455 13.137 37.8455 13.6369C37.8455 13.929 37.8899 14.1486 37.9764 14.2911C38.0605 14.4359 38.1959 14.5084 38.3758 14.5084C38.6398 14.5084 38.9085 14.3799 39.1842 14.1205C39.4599 13.8635 39.6795 13.5598 39.8477 13.2117C40.0159 12.8613 40.1678 12.3847 40.2986 11.7796L40.3477 11.5576ZM41.2541 9.6699L41.7962 9.23535L42.469 9.33348L41.5438 13.5224C41.4948 13.735 41.4597 13.9056 41.4387 14.0341C41.4153 14.1626 41.406 14.2701 41.406 14.3588C41.406 14.5387 41.4481 14.6696 41.5368 14.749C41.6256 14.8284 41.7821 14.8798 42.0064 14.8985L41.941 15.2957H39.6328L39.9575 14.0645L39.8781 14.0388C39.6047 14.3915 39.3524 14.6649 39.1188 14.8611C38.8828 15.055 38.6539 15.1929 38.4272 15.2723C38.2006 15.3518 37.939 15.3915 37.6422 15.3915C37.3619 15.3915 37.1142 15.3261 36.9016 15.1929C36.689 15.0621 36.5208 14.8518 36.397 14.5644C36.2732 14.2794 36.2124 13.9149 36.2124 13.4757C36.2124 13.0552 36.2615 12.63 36.3596 12.2001C36.4577 11.7726 36.6026 11.3731 36.7942 11.0016C36.9857 10.6301 37.2287 10.3124 37.5208 10.0484C37.8151 9.78438 38.1469 9.58112 38.516 9.44328C38.8875 9.30544 39.2917 9.23535 39.7285 9.23535C40.3243 9.23535 40.8336 9.3802 41.2541 9.6699Z" fill="white"/>
<path d="M43.1746 9.33398H45.6697L44.9175 12.6025C44.81 13.0697 44.7422 13.3898 44.7189 13.565C44.6955 13.7426 44.6838 13.8804 44.6838 13.9809C44.6838 14.1678 44.7189 14.3056 44.7936 14.3897C44.8684 14.4738 44.9782 14.5159 45.1231 14.5159C45.2025 14.5159 45.2889 14.4948 45.38 14.4575C45.4712 14.4201 45.5646 14.364 45.6557 14.2893C45.7492 14.2168 45.8613 14.1117 45.9945 13.9809C46.1253 13.8477 46.2421 13.7075 46.3426 13.5557C46.4431 13.4061 46.5248 13.2449 46.5926 13.072C46.658 12.9015 46.7187 12.6819 46.7748 12.4179L47.436 9.33398H49.1625L48.2186 13.5767C48.1976 13.6725 48.1696 13.8103 48.1369 13.9879C48.1018 14.1678 48.0855 14.3173 48.0855 14.4364C48.0855 14.6047 48.1322 14.7215 48.2257 14.7822C48.3215 14.8453 48.4686 14.885 48.6696 14.899L48.5784 15.2962H46.3122L46.637 14.065L46.5646 14.0393C46.1931 14.5042 45.8333 14.8476 45.4852 15.0649C45.1394 15.2845 44.7446 15.392 44.3054 15.392C43.8989 15.392 43.5788 15.2775 43.3428 15.0462C43.1069 14.8173 42.9877 14.4995 42.9877 14.093C42.9877 13.8337 43.0274 13.523 43.1069 13.1632L43.6021 10.939C43.6395 10.7544 43.6676 10.6119 43.6816 10.5115C43.6956 10.411 43.7026 10.3246 43.7026 10.2545C43.7026 10.0769 43.6582 9.9531 43.5717 9.88068C43.483 9.80825 43.3264 9.75919 43.1021 9.73115L43.1746 9.33398Z" fill="white"/>
<path d="M54.7112 10.9695H53.6365C53.6365 10.7008 53.6061 10.5139 53.5477 10.4088C53.4893 10.306 53.3912 10.2522 53.251 10.2522C53.1879 10.2522 53.1202 10.2662 53.0501 10.2919C52.98 10.3176 52.8982 10.3644 52.8095 10.4298C52.7183 10.4975 52.6109 10.605 52.4847 10.7522C52.3585 10.8994 52.2534 11.0442 52.1693 11.1844C52.0852 11.3246 52.0151 11.4718 51.959 11.626C51.903 11.7802 51.8492 11.9764 51.8025 12.2124L51.1413 15.2963H49.4148L50.3587 11.0536C50.4475 10.6564 50.4919 10.369 50.4919 10.1938C50.4919 10.0256 50.4451 9.90879 50.3493 9.84805C50.2559 9.78497 50.1087 9.74525 49.9078 9.73123L49.9989 9.33406L51.6507 9.26631H52.3305L51.8796 10.6611L51.952 10.6868C52.2885 10.2102 52.6436 9.84805 53.0174 9.60508C53.3889 9.35977 53.7907 9.23828 54.2252 9.23828C54.4893 9.23828 54.7696 9.27566 55.0663 9.35042L54.7112 10.9695Z" fill="white"/>
<path d="M58.6129 11.5576C58.6409 11.4291 58.6642 11.2866 58.683 11.1277C58.7016 10.9689 58.711 10.8147 58.711 10.6675C58.711 10.4035 58.6596 10.2026 58.5591 10.0671C58.4587 9.92923 58.2951 9.86148 58.0662 9.86148C57.6947 9.86148 57.363 10.0484 57.0756 10.4245C56.7859 10.7983 56.5546 11.303 56.3771 11.9361C56.2018 12.5692 56.1131 13.137 56.1131 13.6369C56.1131 13.929 56.1551 14.1486 56.2415 14.2911C56.328 14.4359 56.4612 14.5084 56.6411 14.5084C56.9074 14.5084 57.1761 14.3799 57.4494 14.1205C57.7251 13.8635 57.947 13.5598 58.1153 13.2117C58.2835 12.8613 58.433 12.3847 58.5662 11.7796L58.6129 11.5576ZM59.5217 9.6699L60.0637 9.23535L60.7366 9.33348L59.809 13.5224C59.7623 13.735 59.7273 13.9056 59.7039 14.0341C59.6829 14.1626 59.6712 14.2701 59.6712 14.3588C59.6712 14.5387 59.7156 14.6696 59.8044 14.749C59.8932 14.8284 60.0473 14.8798 60.274 14.8985L60.2062 15.2957H57.898L58.2227 14.0645L58.1456 14.0388C57.8723 14.3915 57.6176 14.6649 57.384 14.8611C57.1503 15.055 56.9191 15.1929 56.6924 15.2723C56.4658 15.3518 56.2042 15.3915 55.9074 15.3915C55.6271 15.3915 55.3818 15.3261 55.1692 15.1929C54.9566 15.0621 54.7884 14.8518 54.6645 14.5644C54.5407 14.2794 54.4776 13.9149 54.4776 13.4757C54.4776 13.0552 54.5267 12.63 54.6248 12.2001C54.7229 11.7726 54.8678 11.3731 55.0617 11.0016C55.2533 10.6301 55.4962 10.3124 55.7883 10.0484C56.0803 9.78438 56.4121 9.58112 56.7835 9.44328C57.155 9.30544 57.5569 9.23535 57.9937 9.23535C58.5918 9.23535 59.1012 9.3802 59.5217 9.6699Z" fill="white"/>
<path d="M67.1263 15.2957H64.6311L65.3834 12.0272C65.4909 11.5623 65.5563 11.2399 65.582 11.0647C65.6054 10.8871 65.617 10.7493 65.617 10.6488C65.617 10.4689 65.5797 10.3357 65.5026 10.247C65.4255 10.1582 65.3157 10.1138 65.1731 10.1138C65.0446 10.1138 64.9045 10.1629 64.7526 10.2586C64.5984 10.3544 64.4279 10.5063 64.241 10.7096C64.0517 10.9128 63.9022 11.1301 63.7901 11.359C63.6779 11.588 63.5868 11.873 63.519 12.2118L62.8579 15.2957H61.1337L62.0776 11.053C62.0962 10.9549 62.1243 10.8194 62.157 10.6395C62.192 10.4619 62.2084 10.3124 62.2084 10.1932C62.2084 10.025 62.1617 9.9082 62.0682 9.84746C61.9724 9.78438 61.8252 9.747 61.6266 9.73065L61.7154 9.33348L63.3695 9.26806H64.0003L63.6569 10.5647L63.7293 10.5904C64.005 10.2493 64.262 9.98063 64.498 9.78672C64.7363 9.5928 64.9699 9.45263 65.2059 9.36618C65.4395 9.27974 65.6988 9.23535 65.9838 9.23535C66.3973 9.23535 66.7221 9.35217 66.9581 9.58346C67.194 9.81241 67.3108 10.1302 67.3108 10.5343C67.3108 10.796 67.2734 11.1067 67.1917 11.4665L66.6987 13.6907C66.659 13.8752 66.631 14.0177 66.6169 14.1182C66.6029 14.2187 66.5959 14.3051 66.5959 14.3752C66.5959 14.5574 66.6426 14.6836 66.7314 14.756C66.8225 14.8261 66.9767 14.8752 67.1987 14.8985L67.1263 15.2957Z" fill="white"/>
<path d="M71.8806 14.2025C71.5979 14.5109 71.3433 14.7469 71.119 14.9127C70.8947 15.0763 70.6587 15.1978 70.4158 15.2749C70.1705 15.3543 69.8878 15.3917 69.5677 15.3917C69.2429 15.3917 68.9719 15.3333 68.7593 15.2141C68.5444 15.0973 68.3902 14.9384 68.2921 14.7398C68.1963 14.5413 68.1496 14.3193 68.1496 14.0693C68.1496 13.8824 68.1612 13.7025 68.1893 13.532C68.2197 13.3614 68.2757 13.0811 68.3645 12.6933L68.9836 10.0836H68.1729L68.257 9.68879C68.5047 9.67244 68.6986 9.63038 68.8388 9.56497C68.9813 9.49721 69.0981 9.40143 69.1986 9.27293C69.2967 9.14443 69.3878 8.96921 69.4766 8.74493C69.5654 8.52064 69.6635 8.21459 69.771 7.8291H71.2148L70.8643 9.33367H72.3269L72.1633 10.0836H70.6915L70.0233 12.8311C69.9952 12.9526 69.9695 13.0694 69.9462 13.1862C69.9228 13.303 69.9018 13.4128 69.8854 13.5203C69.8691 13.6254 69.8597 13.7142 69.8527 13.7843C69.8479 13.8544 69.8434 13.9175 69.8434 13.9735C69.8434 14.1628 69.8784 14.3006 69.9462 14.3847C70.0139 14.4712 70.1144 14.5156 70.2476 14.5156C70.4274 14.5156 70.612 14.4501 70.8036 14.3217C70.9928 14.1955 71.1984 13.9946 71.418 13.7282L71.8806 14.2025Z" fill="white"/>
<mask id="mask2_212_1916" style="mask-type:luminance" maskUnits="userSpaceOnUse" x="36" y="18" width="39" height="8">
<path d="M36.3853 18.5205H74.065V25.8938H36.3853V18.5205Z" fill="white"/>
</mask>
<g mask="url(#mask2_212_1916)">
<path d="M73.7427 21.9313L73.6842 18.5857V18.5811H73.6749L36.862 19.5693V25.8913H69.0911C69.0911 25.8913 71.2849 26.0034 72.5371 24.7442C73.5628 23.7092 73.7824 22.4686 73.7427 21.9313Z" fill="black"/>
</g>
<path d="M45.1183 22.6732H44.2025V23.8414H45.1183C45.5225 23.8414 45.7491 23.5937 45.7491 23.255C45.7491 22.9162 45.5225 22.6732 45.1183 22.6732ZM45.0646 21.0542H44.2025V22.1523H45.0646C45.4361 22.1523 45.6884 21.9583 45.6884 21.6032C45.6884 21.2481 45.4361 21.0542 45.0646 21.0542ZM45.1721 24.3647H43.6231V20.5332H45.1137C45.8239 20.5332 46.2702 20.935 46.2702 21.5822C46.2702 21.9957 46.0108 22.2924 45.7538 22.3952C46.0505 22.512 46.3286 22.7971 46.3286 23.283C46.3286 23.9886 45.852 24.3647 45.1721 24.3647Z" fill="white"/>
<path d="M49.1976 21.0546H48.3355V22.2554H49.1976C49.5854 22.2554 49.8494 22.0335 49.8494 21.6573C49.8494 21.2812 49.5854 21.0546 49.1976 21.0546ZM49.8704 24.3651L49.0621 22.7507H48.3355V24.3651H47.7538V20.5312H49.2396C49.9662 20.5312 50.4288 21.0008 50.4288 21.6527C50.4288 22.2017 50.0947 22.5498 49.6648 22.669L50.548 24.3651H49.8704Z" fill="white"/>
<path d="M53.1132 21.3976L52.5151 23.0984H53.6949L53.1132 21.3976ZM54.1202 24.3647L53.8562 23.5937H52.3422L52.0806 24.3647H51.4615L52.8656 20.5332H53.3328L54.7393 24.3647H54.1202Z" fill="white"/>
<path d="M58.2998 24.3651L56.5312 21.669V24.3651H55.9495V20.5312H56.4822L58.2531 23.2227V20.5312H58.8348V24.3651H58.2998Z" fill="white"/>
<path d="M62.4396 21.3112C62.2784 21.136 62.0635 21.0542 61.7878 21.0542H61.0823V23.8414H61.7878C62.0635 23.8414 62.2784 23.762 62.4396 23.5844C62.6382 23.3625 62.6429 22.9489 62.6429 22.4209C62.6429 21.8929 62.6381 21.5331 62.4396 21.3112ZM62.8368 24.0026C62.5938 24.2456 62.2457 24.3647 61.8462 24.3647H60.5005V20.5332H61.8462C62.2457 20.5332 62.5938 20.65 62.8368 20.893C63.2527 21.3065 63.2246 21.8672 63.2246 22.4209C63.2246 22.9746 63.2527 23.5891 62.8368 24.0026Z" fill="white"/>
<path d="M65.7689 24.3965C65.1942 24.3965 64.7783 24.2634 64.4138 23.8919L64.8017 23.5088C65.082 23.7891 65.3881 23.8756 65.7806 23.8756C66.2805 23.8756 66.5726 23.6606 66.5726 23.2891C66.5726 23.1209 66.5235 22.9831 66.4207 22.892C66.3249 22.7985 66.2268 22.7611 66.0025 22.7284L65.5493 22.6654C65.2362 22.621 64.9886 22.5135 64.8227 22.357C64.6335 22.1794 64.5423 21.9388 64.5423 21.6257C64.5423 20.9575 65.026 20.502 65.8226 20.502C66.3296 20.502 66.6847 20.6304 67.0118 20.9365L66.6403 21.3033C66.4044 21.0767 66.131 21.0066 65.8063 21.0066C65.3554 21.0066 65.1077 21.2659 65.1077 21.6047C65.1077 21.7449 65.1498 21.8687 65.2526 21.9598C65.3507 22.0462 65.5072 22.1093 65.6825 22.1374L66.1193 22.2004C66.4745 22.2565 66.673 22.3429 66.8342 22.4878C67.0445 22.67 67.1473 22.9457 67.1473 23.2728C67.1473 23.9784 66.5726 24.3965 65.7689 24.3965Z" fill="white"/>
</svg>
