<svg width="54" height="69" viewBox="0 0 54 69" fill="none" xmlns="http://www.w3.org/2000/svg">
<g clip-path="url(#clip0_212_1796)">
<path d="M7.28732 52.1074V54.5058H5.45057V64.1159H2.32301V54.5058H0.470581V52.1074H7.28732Z" fill="#231F20"/>
<path d="M8.0144 52.1074H13.2218V54.5058H11.142V56.7983H13.0846V59.0751H11.142V61.7165H13.4335V64.1159H8.0144V52.1074Z" fill="#231F20"/>
<path d="M17.4668 52.1074V64.1159H14.3402V52.1074H17.4668Z" fill="#231F20"/>
<path d="M28.3383 52.1074V64.1159H25.6057L25.5979 56.0083L24.5129 64.1159H22.5997L21.4539 56.1906L21.4461 64.1159H18.7135V52.1074H22.7477C22.8633 52.8347 22.9868 53.6874 23.1191 54.6655L23.5631 57.7147L24.2737 52.1074H28.3383Z" fill="#231F20"/>
<path fill-rule="evenodd" clip-rule="evenodd" d="M36.7125 59.1465C36.7125 60.3531 36.684 61.2068 36.6282 61.7086C36.5713 62.2104 36.3939 62.6691 36.095 63.0847C35.796 63.4993 35.3932 63.8188 34.8845 64.0413C34.3758 64.2638 33.7839 64.3745 33.1076 64.3745C32.4656 64.3745 31.8893 64.2696 31.3786 64.0589C30.868 63.8492 30.4573 63.5345 30.1456 63.1141C29.8349 62.6936 29.6497 62.2369 29.5909 61.7419C29.5311 61.2479 29.5017 60.3825 29.5017 59.1465V57.0922C29.5017 55.8867 29.5301 55.033 29.587 54.5312C29.6438 54.0293 29.8212 53.5706 30.1202 53.1551C30.4181 52.7395 30.8219 52.421 31.3306 52.1985C31.8393 51.976 32.4313 51.8652 33.1076 51.8652C33.7496 51.8652 34.3249 51.9701 34.8365 52.1799C35.3471 52.3906 35.7578 52.7052 36.0685 53.1257C36.3802 53.5461 36.5654 54.0029 36.6242 54.4969C36.6831 54.9918 36.7125 55.8563 36.7125 57.0922V59.1465ZM33.5859 55.2035C33.5859 54.6449 33.5555 54.2881 33.4947 54.1323C33.4349 53.9774 33.3105 53.899 33.1223 53.899C32.9625 53.899 32.841 53.9627 32.7557 54.0881C32.6714 54.2146 32.6293 54.586 32.6293 55.2035V60.8059C32.6293 61.5028 32.6567 61.933 32.7126 62.0957C32.7685 62.2584 32.8968 62.3398 33.1007 62.3398C33.3075 62.3398 33.4408 62.2467 33.4986 62.0585C33.5565 61.8713 33.5859 61.4234 33.5859 60.7167V55.2035Z" fill="#231F20"/>
<path d="M44.4739 55.7514H41.5747V54.8624C41.5747 54.4479 41.5374 54.1832 41.4639 54.0695C41.3904 53.9558 41.2669 53.899 41.0944 53.899C40.9082 53.899 40.7671 53.9754 40.671 54.1283C40.575 54.2812 40.5269 54.5125 40.5269 54.8232C40.5269 55.2221 40.5818 55.523 40.6916 55.7249C40.7965 55.9269 41.0905 56.1719 41.5737 56.46C42.9586 57.2882 43.8309 57.9665 44.1916 58.4957C44.5523 59.024 44.7317 59.8767 44.7317 61.0539C44.7317 61.9085 44.6317 62.5387 44.4317 62.9435C44.2318 63.3493 43.8456 63.6884 43.2732 63.9629C42.6999 64.2373 42.0334 64.3745 41.2728 64.3745C40.4387 64.3745 39.7262 64.2167 39.1361 63.9001C38.5461 63.5836 38.1599 63.1797 37.9767 62.6907C37.7944 62.2016 37.7032 61.5067 37.7032 60.6059V59.8199H40.6024V61.2803C40.6024 61.7301 40.6436 62.0193 40.7249 62.1477C40.8063 62.2761 40.9504 62.3398 41.1572 62.3398C41.3649 62.3398 41.5188 62.2584 41.6198 62.0957C41.7207 61.933 41.7717 61.6909 41.7717 61.3704C41.7717 60.6648 41.6756 60.2031 41.4816 59.9855C41.2836 59.7689 40.7975 59.4053 40.0241 58.8947C39.2498 58.3791 38.7372 58.0057 38.4853 57.7734C38.2335 57.5411 38.0247 57.2196 37.86 56.8099C37.6944 56.3993 37.6121 55.8759 37.6121 55.2378C37.6121 54.3185 37.7287 53.6471 37.9639 53.2217C38.1982 52.7963 38.5765 52.4641 39.0999 52.2249C39.6223 51.9848 40.2545 51.8652 40.9945 51.8652C41.804 51.8652 42.494 51.9956 43.0635 52.2583C43.6339 52.52 44.0113 52.8503 44.1965 53.2482C44.3818 53.6461 44.4739 54.3224 44.4739 55.277V55.7514Z" fill="#231F20"/>
<path fill-rule="evenodd" clip-rule="evenodd" d="M52.8334 59.1465C52.8334 60.3531 52.805 61.2068 52.7482 61.7086C52.6923 62.2104 52.5139 62.6691 52.216 63.0847C51.917 63.4993 51.5132 63.8188 51.0055 64.0413C50.4968 64.2638 49.9048 64.3745 49.2285 64.3745C48.5866 64.3745 48.0103 64.2696 47.4996 64.0589C46.989 63.8492 46.5783 63.5345 46.2666 63.1141C45.9559 62.6936 45.7707 62.2369 45.7119 61.7419C45.6521 61.2479 45.6227 60.3825 45.6227 59.1465V57.0922C45.6227 55.8867 45.6511 55.033 45.708 54.5312C45.7648 54.0293 45.9422 53.5706 46.2402 53.1551C46.5391 52.7395 46.9429 52.421 47.4516 52.1985C47.9593 51.976 48.5523 51.8652 49.2285 51.8652C49.8695 51.8652 50.4459 51.9701 50.9565 52.1799C51.4671 52.3906 51.8788 52.7052 52.1895 53.1257C52.5002 53.5461 52.6854 54.0029 52.7452 54.4969C52.804 54.9918 52.8334 55.8563 52.8334 57.0922V59.1465ZM49.7068 55.2035C49.7068 54.6449 49.6765 54.2881 49.6157 54.1323C49.5559 53.9774 49.4314 53.899 49.2423 53.899C49.0835 53.899 48.961 53.9627 48.8767 54.0881C48.7924 54.2146 48.7502 54.586 48.7502 55.2035V60.8059C48.7502 61.5028 48.7777 61.933 48.8336 62.0957C48.8894 62.2584 49.0178 62.3398 49.2207 62.3398C49.4285 62.3398 49.5618 62.2467 49.6196 62.0585C49.6774 61.8713 49.7068 61.4234 49.7068 60.7167V55.2035Z" fill="#231F20"/>
<path fill-rule="evenodd" clip-rule="evenodd" d="M0.501953 65.6553H1.00672C1.3429 65.6553 1.57126 65.668 1.68986 65.6945C1.80943 65.72 1.90647 65.7866 1.98095 65.8934C2.05642 65.9993 2.09367 66.1698 2.09367 66.4041C2.09367 66.6168 2.06721 66.7608 2.01428 66.8334C1.96135 66.9069 1.85648 66.951 1.70162 66.9657C1.84276 67.001 1.93685 67.048 1.98586 67.1068C2.03388 67.1656 2.06427 67.2195 2.07603 67.2686C2.08779 67.3176 2.09367 67.4528 2.09367 67.6753V68.3996H1.43111V67.4861C1.43111 67.3391 1.42033 67.248 1.3968 67.2137C1.37426 67.1784 1.31349 67.1607 1.21646 67.1607V68.3996H0.501953V65.6553ZM1.21646 66.1238V66.7344C1.29585 66.7344 1.35172 66.7226 1.38308 66.7011C1.41543 66.6785 1.43111 66.607 1.43111 66.4864V66.3355C1.43111 66.2482 1.41641 66.1914 1.38504 66.164C1.35466 66.1375 1.29781 66.1238 1.21646 66.1238Z" fill="#231F20"/>
<path fill-rule="evenodd" clip-rule="evenodd" d="M3.89804 67.3139H3.01005V67.8011C3.01005 67.903 3.01789 67.9687 3.03259 67.9981C3.04729 68.0275 3.07572 68.0422 3.11786 68.0422C3.17079 68.0422 3.20509 68.0226 3.22273 67.9834C3.24038 67.9442 3.25018 67.8687 3.25018 67.757V67.459H3.89804V67.6256C3.89804 67.7648 3.8902 67.8716 3.87255 67.9471C3.85491 68.0216 3.81375 68.101 3.74906 68.1863C3.68437 68.2715 3.60302 68.3352 3.50403 68.3774C3.40504 68.4195 3.28154 68.4411 3.13256 68.4411C2.98751 68.4411 2.86009 68.4205 2.74934 68.3784C2.63858 68.3362 2.55233 68.2794 2.49058 68.2059C2.42884 68.1333 2.38669 68.053 2.36219 67.9657C2.33867 67.8775 2.3269 67.7501 2.3269 67.5835V66.9268C2.3269 66.7308 2.35337 66.5749 2.40629 66.4612C2.45922 66.3475 2.54645 66.2613 2.66799 66.2005C2.78854 66.1398 2.92772 66.1094 3.08454 66.1094C3.27664 66.1094 3.43542 66.1466 3.5599 66.2191C3.68535 66.2917 3.77258 66.3887 3.82257 66.5083C3.87353 66.6288 3.89804 66.7974 3.89804 67.016V67.3139ZM3.21489 66.9493V66.7847C3.21489 66.669 3.20901 66.5936 3.19627 66.5593C3.18353 66.5259 3.15707 66.5093 3.11786 66.5093C3.06886 66.5093 3.03945 66.523 3.02769 66.5524C3.01593 66.5808 3.01005 66.6582 3.01005 66.7847V66.9493H3.21489Z" fill="#231F20"/>
<path d="M5.52198 66.8699H4.91822V66.7474C4.91822 66.6435 4.91234 66.5779 4.90058 66.5504C4.88784 66.523 4.85843 66.5093 4.81139 66.5093C4.77316 66.5093 4.74376 66.521 4.72514 66.5465C4.70553 66.572 4.69573 66.6102 4.69573 66.6612C4.69573 66.7298 4.70063 66.7808 4.71044 66.8131C4.72024 66.8454 4.74866 66.8807 4.79669 66.919C4.84373 66.9572 4.94272 67.013 5.09072 67.0866C5.28871 67.1836 5.41906 67.2757 5.48081 67.361C5.54256 67.4472 5.57392 67.5717 5.57392 67.7364C5.57392 67.9187 5.5504 68.0569 5.50237 68.151C5.45533 68.2441 5.37594 68.3156 5.26518 68.3656C5.15345 68.4156 5.01917 68.4411 4.86235 68.4411C4.68887 68.4411 4.53989 68.4136 4.4164 68.3597C4.2929 68.3058 4.20763 68.2323 4.16157 68.1402C4.1155 68.0471 4.09198 67.9079 4.09198 67.7207V67.6119H4.69965V67.754C4.69965 67.8736 4.70749 67.952 4.7222 67.9883C4.73788 68.0245 4.76728 68.0422 4.81237 68.0422C4.86039 68.0422 4.8947 68.0304 4.91332 68.0059C4.93292 67.9814 4.94272 67.9304 4.94272 67.852C4.94272 67.7452 4.92998 67.6776 4.90548 67.6501C4.87902 67.6237 4.7467 67.5433 4.50755 67.41C4.30663 67.2973 4.18509 67.1944 4.14099 67.1022C4.09688 67.0101 4.07532 66.9013 4.07532 66.7739C4.07532 66.5945 4.09884 66.4622 4.14589 66.3769C4.19391 66.2917 4.2733 66.226 4.387 66.179C4.50069 66.1329 4.63203 66.1094 4.78198 66.1094C4.93096 66.1094 5.0574 66.129 5.16227 66.1662C5.26616 66.2044 5.34653 66.2544 5.4024 66.3172C5.45827 66.3789 5.49257 66.4367 5.50433 66.4897C5.51609 66.5426 5.52198 66.6259 5.52198 66.7386V66.8699Z" fill="#231F20"/>
<path d="M6.47774 65.8525V66.2064H6.66788V66.5631H6.47774V67.7648C6.47774 67.9128 6.48558 67.9951 6.50028 68.0127C6.51597 68.0294 6.58163 68.0382 6.69631 68.0382V68.3989H6.41893C6.2631 68.3989 6.15136 68.392 6.08471 68.3793C6.01708 68.3665 5.95828 68.3362 5.90731 68.2891C5.85635 68.2421 5.82498 68.1891 5.81224 68.1284C5.80048 68.0686 5.79362 67.9265 5.79362 67.703V66.5631H5.64856V66.2064H5.79362V65.8525H6.47774Z" fill="#231F20"/>
<path fill-rule="evenodd" clip-rule="evenodd" d="M7.4275 67.0219H6.78552V66.8709C6.78552 66.6974 6.80512 66.5632 6.84531 66.4681C6.88549 66.374 6.96586 66.2907 7.08642 66.2182C7.20795 66.1456 7.36477 66.1094 7.55786 66.1094C7.78917 66.1094 7.96461 66.1505 8.08222 66.2329C8.19886 66.3142 8.26942 66.4152 8.29393 66.5347C8.31745 66.6533 8.32921 66.8994 8.32921 67.2708V68.3999H7.66273V68.199C7.62157 68.2794 7.56766 68.3401 7.50101 68.3803C7.43534 68.4205 7.35595 68.4411 7.2648 68.4411C7.14523 68.4411 7.03545 68.4078 6.93548 68.3401C6.83551 68.2735 6.78552 68.1255 6.78552 67.8991V67.7138C6.78552 67.5453 6.81199 67.4306 6.86491 67.3698C6.91784 67.309 7.05015 67.2375 7.26088 67.1561C7.48533 67.0679 7.60588 67.0091 7.62157 66.9778C7.63823 66.9474 7.64607 66.8856 7.64607 66.7915C7.64607 66.6739 7.63725 66.5975 7.6196 66.5622C7.60196 66.5269 7.57256 66.5093 7.53139 66.5093C7.48435 66.5093 7.45592 66.524 7.44416 66.5534C7.4324 66.5838 7.4275 66.6612 7.4275 66.7866V67.0219ZM7.64607 67.3306C7.53531 67.411 7.47161 67.4776 7.45396 67.5325C7.43632 67.5864 7.4275 67.6648 7.4275 67.7658C7.4275 67.8824 7.43436 67.9579 7.45004 67.9912C7.46573 68.0255 7.49611 68.0422 7.5412 68.0422C7.58432 68.0422 7.61274 68.0285 7.62647 68.002C7.63921 67.9755 7.64607 67.9059 7.64607 67.7932V67.3306Z" fill="#231F20"/>
<path d="M10.1325 66.1514V68.3998H9.43666L9.44842 68.2126C9.40138 68.288 9.34257 68.3459 9.27396 68.3841C9.20437 68.4223 9.12498 68.4409 9.03481 68.4409C8.9319 68.4409 8.84663 68.4233 8.779 68.387C8.71137 68.3508 8.66139 68.3027 8.62904 68.2429C8.5967 68.1832 8.5771 68.1204 8.56926 68.0557C8.56142 67.9901 8.5575 67.8617 8.5575 67.6686V66.1514H9.24064V67.6813C9.24064 67.8558 9.24554 67.9597 9.2573 67.993C9.2671 68.0254 9.29651 68.042 9.34355 68.042C9.39452 68.042 9.4249 68.0254 9.4347 67.9911C9.4445 67.9577 9.44842 67.848 9.44842 67.6647V66.1514H10.1325Z" fill="#231F20"/>
<path d="M11.0568 66.1515L11.0323 66.4475C11.1323 66.2348 11.2763 66.1221 11.4665 66.1094V66.9013C11.34 66.9013 11.2479 66.918 11.1891 66.9513C11.1303 66.9856 11.094 67.0326 11.0803 67.0934C11.0666 67.1532 11.0597 67.2934 11.0597 67.5109V68.3999H10.3766V66.1515H11.0568Z" fill="#231F20"/>
<path fill-rule="evenodd" clip-rule="evenodd" d="M12.2261 67.0219H11.5841V66.8709C11.5841 66.6974 11.6047 66.5632 11.6449 66.4681C11.6851 66.374 11.7654 66.2907 11.886 66.2182C12.0065 66.1456 12.1643 66.1094 12.3574 66.1094C12.5887 66.1094 12.7632 66.1505 12.8808 66.2329C12.9984 66.3142 13.069 66.4152 13.0925 66.5347C13.116 66.6533 13.1288 66.8994 13.1288 67.2708V68.3999H12.4623V68.199C12.4201 68.2794 12.3662 68.3401 12.3006 68.3803C12.2339 68.4205 12.1555 68.4411 12.0644 68.4411C11.9438 68.4411 11.834 68.4078 11.7341 68.3401C11.6341 68.2735 11.5841 68.1255 11.5841 67.8991V67.7138C11.5841 67.5453 11.6115 67.4306 11.6645 67.3698C11.7174 67.309 11.8487 67.2375 12.0595 67.1561C12.2849 67.0679 12.4054 67.0091 12.4211 66.9778C12.4368 66.9474 12.4447 66.8856 12.4447 66.7915C12.4447 66.6739 12.4358 66.5975 12.4182 66.5622C12.4005 66.5269 12.3711 66.5093 12.331 66.5093C12.2839 66.5093 12.2545 66.524 12.2437 66.5534C12.232 66.5838 12.2261 66.6612 12.2261 66.7866V67.0219ZM12.4447 67.3306C12.3349 67.411 12.2702 67.4776 12.2525 67.5325C12.2349 67.5864 12.2261 67.6648 12.2261 67.7658C12.2261 67.8824 12.2339 67.9579 12.2496 67.9912C12.2643 68.0255 12.2957 68.0422 12.3408 68.0422C12.3839 68.0422 12.4123 68.0285 12.425 68.002C12.4388 67.9755 12.4447 67.9059 12.4447 67.7932V67.3306Z" fill="#231F20"/>
<path d="M14.0609 66.1515L14.0501 66.3603C14.1001 66.277 14.1608 66.2142 14.2324 66.1721C14.3039 66.1309 14.3872 66.1094 14.4813 66.1094C14.598 66.1094 14.695 66.1378 14.7695 66.1927C14.844 66.2486 14.892 66.3181 14.9136 66.4024C14.9351 66.4867 14.9459 66.6269 14.9459 66.8229V68.3999H14.2618V66.8425C14.2618 66.6876 14.2569 66.5936 14.2471 66.5593C14.2363 66.5259 14.2079 66.5093 14.1608 66.5093C14.1118 66.5093 14.0815 66.5279 14.0687 66.5671C14.0569 66.6063 14.0501 66.7102 14.0501 66.8797V68.3999H13.3669V66.1515H14.0609Z" fill="#231F20"/>
<path d="M15.9025 65.8525V66.2064H16.0937V66.5631H15.9025V67.7648C15.9025 67.9128 15.9104 67.9951 15.9261 68.0127C15.9418 68.0294 16.0064 68.0382 16.1211 68.0382V68.3989H15.8437C15.6879 68.3989 15.5762 68.392 15.5095 68.3793C15.4429 68.3665 15.3841 68.3362 15.3331 68.2891C15.2821 68.2421 15.2498 68.1891 15.237 68.1284C15.2253 68.0686 15.2194 67.9265 15.2194 67.703V66.5631H15.0734V66.2064H15.2194V65.8525H15.9025Z" fill="#231F20"/>
<path fill-rule="evenodd" clip-rule="evenodd" d="M17.7922 67.3139H16.9042V67.8011C16.9042 67.903 16.9121 67.9687 16.9268 67.9981C16.9415 68.0275 16.9699 68.0422 17.012 68.0422C17.064 68.0422 17.0993 68.0226 17.1169 67.9834C17.1345 67.9442 17.1434 67.8687 17.1434 67.757V67.459H17.7922V67.6256C17.7922 67.7648 17.7834 67.8716 17.7657 67.9471C17.7481 68.0216 17.7079 68.101 17.6432 68.1863C17.5785 68.2715 17.4972 68.3352 17.3982 68.3774C17.2992 68.4195 17.1757 68.4411 17.0257 68.4411C16.8817 68.4411 16.7533 68.4205 16.6425 68.3784C16.5318 68.3362 16.4455 68.2794 16.3838 68.2059C16.323 68.1333 16.2799 68.053 16.2564 67.9657C16.2328 67.8775 16.2211 67.7501 16.2211 67.5835V66.9268C16.2211 66.7308 16.2475 66.5749 16.3005 66.4612C16.3534 66.3475 16.4406 66.2613 16.5612 66.2005C16.6827 66.1398 16.8209 66.1094 16.9787 66.1094C17.1708 66.1094 17.3296 66.1466 17.4541 66.2191C17.5785 66.2917 17.6667 66.3887 17.7167 66.5083C17.7667 66.6288 17.7922 66.7974 17.7922 67.016V67.3139ZM17.1091 66.9493V66.7847C17.1091 66.669 17.1022 66.5936 17.0895 66.5593C17.0767 66.5259 17.0512 66.5093 17.012 66.5093C16.963 66.5093 16.9326 66.523 16.9219 66.5524C16.9101 66.5808 16.9042 66.6582 16.9042 66.7847V66.9493H17.1091Z" fill="#231F20"/>
<path d="M18.7948 65.6553H19.1633V68.8465H18.7948V65.6553Z" fill="#231F20"/>
<path fill-rule="evenodd" clip-rule="evenodd" d="M20.2023 65.6553H20.707C21.0442 65.6553 21.2716 65.668 21.3912 65.6945C21.5098 65.72 21.6068 65.7866 21.6823 65.8934C21.7577 65.9993 21.795 66.1698 21.795 66.4041C21.795 66.6168 21.7685 66.7608 21.7156 66.8334C21.6626 66.9069 21.5578 66.951 21.4019 66.9657C21.5431 67.001 21.6381 67.048 21.6862 67.1068C21.7352 67.1656 21.7656 67.2195 21.7773 67.2686C21.7891 67.3176 21.795 67.4528 21.795 67.6753V68.3996H21.1324V67.4861C21.1324 67.3391 21.1206 67.248 21.0981 67.2137C21.0746 67.1784 21.0148 67.1607 20.9168 67.1607V68.3996H20.2023V65.6553ZM20.9168 66.1238V66.7344C20.9962 66.7344 21.052 66.7226 21.0844 66.7011C21.1157 66.6785 21.1324 66.607 21.1324 66.4864V66.3355C21.1324 66.2482 21.1167 66.1914 21.0863 66.164C21.055 66.1375 20.9991 66.1238 20.9168 66.1238Z" fill="#231F20"/>
<path fill-rule="evenodd" clip-rule="evenodd" d="M23.5995 67.3139H22.7115V67.8011C22.7115 67.903 22.7183 67.9687 22.733 67.9981C22.7477 68.0275 22.7771 68.0422 22.8193 68.0422C22.8712 68.0422 22.9065 68.0226 22.9242 67.9834C22.9418 67.9442 22.9506 67.8687 22.9506 67.757V67.459H23.5995V67.6256C23.5995 67.7648 23.5906 67.8716 23.573 67.9471C23.5554 68.0216 23.5142 68.101 23.4505 68.1863C23.3858 68.2715 23.3044 68.3352 23.2054 68.3774C23.1065 68.4195 22.982 68.4411 22.833 68.4411C22.6879 68.4411 22.5605 68.4205 22.4498 68.3784C22.339 68.3362 22.2528 68.2794 22.191 68.2059C22.1293 68.1333 22.0871 68.053 22.0636 67.9657C22.0391 67.8775 22.0273 67.7501 22.0273 67.5835V66.9268C22.0273 66.7308 22.0538 66.5749 22.1077 66.4612C22.1606 66.3475 22.2479 66.2613 22.3684 66.2005C22.489 66.1398 22.6282 66.1094 22.785 66.1094C22.9781 66.1094 23.1359 66.1466 23.2613 66.2191C23.3858 66.2917 23.474 66.3887 23.524 66.5083C23.574 66.6288 23.5995 66.7974 23.5995 67.016V67.3139ZM22.9163 66.9493V66.7847C22.9163 66.669 22.9095 66.5936 22.8967 66.5593C22.884 66.5259 22.8575 66.5093 22.8183 66.5093C22.7703 66.5093 22.7399 66.523 22.7281 66.5524C22.7164 66.5808 22.7115 66.6582 22.7115 66.7847V66.9493H22.9163Z" fill="#231F20"/>
<path d="M25.2224 66.8699H24.6187V66.7474C24.6187 66.6435 24.6128 66.5779 24.601 66.5504C24.5893 66.523 24.5599 66.5093 24.5118 66.5093C24.4736 66.5093 24.4452 66.521 24.4256 66.5465C24.406 66.572 24.3972 66.6102 24.3972 66.6612C24.3972 66.7298 24.4021 66.7808 24.4109 66.8131C24.4207 66.8454 24.4491 66.8807 24.4971 66.919C24.5452 66.9572 24.6432 67.013 24.7921 67.0866C24.9901 67.1836 25.1195 67.2757 25.1812 67.361C25.244 67.4472 25.2744 67.5717 25.2744 67.7364C25.2744 67.9187 25.2508 68.0569 25.2038 68.151C25.1558 68.2441 25.0764 68.3156 24.9656 68.3656C24.8539 68.4156 24.7206 68.4411 24.5638 68.4411C24.3893 68.4411 24.2413 68.4136 24.1168 68.3597C23.9933 68.3058 23.9091 68.2323 23.862 68.1402C23.8159 68.0471 23.7934 67.9079 23.7934 67.7207V67.6119H24.4001V67.754C24.4001 67.8736 24.4079 67.952 24.4226 67.9883C24.4383 68.0245 24.4687 68.0422 24.5128 68.0422C24.5618 68.0422 24.5951 68.0304 24.6147 68.0059C24.6334 67.9814 24.6432 67.9304 24.6432 67.852C24.6432 67.7452 24.6304 67.6776 24.6059 67.6501C24.5804 67.6237 24.4471 67.5433 24.209 67.41C24.008 67.2973 23.8855 67.1944 23.8414 67.1022C23.7973 67.0101 23.7758 66.9013 23.7758 66.7739C23.7758 66.5945 23.7993 66.4622 23.8463 66.3769C23.8944 66.2917 23.9747 66.226 24.0884 66.179C24.2011 66.1329 24.3334 66.1094 24.4834 66.1094C24.6324 66.1094 24.7588 66.129 24.8627 66.1662C24.9676 66.2044 25.047 66.2544 25.1028 66.3172C25.1587 66.3789 25.193 66.4367 25.2048 66.4897C25.2165 66.5426 25.2224 66.6259 25.2224 66.7386V66.8699Z" fill="#231F20"/>
<path fill-rule="evenodd" clip-rule="evenodd" d="M26.1644 65.6553V66.012H25.4597V65.6553H26.1644ZM26.1644 66.1512V68.3996H25.4597V66.1512H26.1644Z" fill="#231F20"/>
<path fill-rule="evenodd" clip-rule="evenodd" d="M27.9679 65.6553V68.3996H27.2838V68.2359C27.2191 68.3045 27.1495 68.3555 27.077 68.3898C27.0044 68.4241 26.929 68.4408 26.8496 68.4408C26.7427 68.4408 26.6506 68.4124 26.5722 68.3565C26.4948 68.3006 26.4448 68.2359 26.4222 68.1624C26.4007 68.0889 26.3889 67.9693 26.3889 67.8037V66.7501C26.3889 66.5776 26.4007 66.4551 26.4222 66.3825C26.4448 66.31 26.4948 66.2463 26.5742 66.1914C26.6535 66.1365 26.7476 66.1091 26.8574 66.1091C26.9427 66.1091 27.0211 66.1248 27.0917 66.1551C27.1622 66.1865 27.2269 66.2326 27.2838 66.2933V65.6553H27.9679ZM27.2838 66.7167C27.2838 66.6344 27.2769 66.5795 27.2632 66.5511C27.2485 66.5227 27.2201 66.509 27.1779 66.509C27.1358 66.509 27.1083 66.5207 27.0936 66.5462C27.0799 66.5717 27.073 66.6285 27.073 66.7167V67.8184C27.073 67.9096 27.0799 67.9703 27.0936 67.9987C27.1073 68.0272 27.1338 68.0419 27.173 68.0419C27.2171 68.0419 27.2475 68.0262 27.2622 67.9938C27.2769 67.9615 27.2838 67.8821 27.2838 67.7576V66.7167Z" fill="#231F20"/>
<path fill-rule="evenodd" clip-rule="evenodd" d="M29.7614 67.3139H28.8735V67.8011C28.8735 67.903 28.8803 67.9687 28.895 67.9981C28.9107 68.0275 28.9391 68.0422 28.9813 68.0422C29.0332 68.0422 29.0685 68.0226 29.0861 67.9834C29.1038 67.9442 29.1126 67.8687 29.1126 67.757V67.459H29.7614V67.6256C29.7614 67.7648 29.7526 67.8716 29.735 67.9471C29.7173 68.0216 29.6762 68.101 29.6125 68.1863C29.5478 68.2715 29.4664 68.3352 29.3674 68.3774C29.2684 68.4195 29.144 68.4411 28.995 68.4411C28.8509 68.4411 28.7225 68.4205 28.6118 68.3784C28.501 68.3362 28.4148 68.2794 28.354 68.2059C28.2922 68.1333 28.2491 68.053 28.2256 67.9657C28.2021 67.8775 28.1903 67.7501 28.1903 67.5835V66.9268C28.1903 66.7308 28.2158 66.5749 28.2697 66.4612C28.3226 66.3475 28.4099 66.2613 28.5304 66.2005C28.6519 66.1398 28.7901 66.1094 28.9479 66.1094C29.14 66.1094 29.2988 66.1466 29.4233 66.2191C29.5478 66.2917 29.636 66.3887 29.686 66.5083C29.736 66.6288 29.7614 66.7974 29.7614 67.016V67.3139ZM29.0783 66.9493V66.7847C29.0783 66.669 29.0714 66.5936 29.0587 66.5593C29.046 66.5259 29.0205 66.5093 28.9813 66.5093C28.9323 66.5093 28.9019 66.523 28.8911 66.5524C28.8793 66.5808 28.8735 66.6582 28.8735 66.7847V66.9493H29.0783Z" fill="#231F20"/>
<path d="M30.6807 66.1515L30.67 66.3603C30.7199 66.277 30.7807 66.2142 30.8523 66.1721C30.9238 66.1309 31.0071 66.1094 31.1002 66.1094C31.2188 66.1094 31.3139 66.1378 31.3894 66.1927C31.4639 66.2486 31.5119 66.3181 31.5334 66.4024C31.554 66.4867 31.5648 66.6269 31.5648 66.8229V68.3999H30.8817V66.8425C30.8817 66.6876 30.8768 66.5936 30.866 66.5593C30.8562 66.5259 30.8278 66.5093 30.7807 66.5093C30.7317 66.5093 30.7013 66.5279 30.6886 66.5671C30.6768 66.6063 30.67 66.7102 30.67 66.8797V68.3999H29.9868V66.1515H30.6807Z" fill="#231F20"/>
<path d="M33.3203 67.0013H32.6744V66.7416C32.6744 66.6514 32.6675 66.5896 32.6518 66.5573C32.6371 66.5249 32.6097 66.5093 32.5685 66.5093C32.5283 66.5093 32.5009 66.523 32.4872 66.5514C32.4735 66.5798 32.4666 66.6426 32.4666 66.7406V67.8011C32.4666 67.8814 32.4774 67.9422 32.498 67.9824C32.5185 68.0226 32.5489 68.0422 32.5891 68.0422C32.6362 68.0422 32.6675 68.0216 32.6842 67.9794C32.7008 67.9383 32.7097 67.8589 32.7097 67.7432V67.4766H33.3203C33.3183 67.656 33.3124 67.7903 33.3007 67.8805C33.2889 67.9696 33.2507 68.0618 33.187 68.1559C33.1233 68.25 33.039 68.3215 32.9361 68.3695C32.8332 68.4176 32.7057 68.4411 32.5538 68.4411C32.3607 68.4411 32.2069 68.4078 32.0941 68.3421C31.9805 68.2754 31.9011 68.1833 31.854 68.0637C31.807 67.9451 31.7834 67.7756 31.7834 67.556V66.917C31.7834 66.7259 31.8021 66.5818 31.8413 66.4848C31.8795 66.3877 31.9618 66.3005 32.0873 66.224C32.2127 66.1476 32.3656 66.1094 32.546 66.1094C32.7244 66.1094 32.8773 66.1476 33.0037 66.224C33.1311 66.2995 33.2154 66.3956 33.2575 66.5102C33.2997 66.6259 33.3203 66.7896 33.3203 67.0013Z" fill="#231F20"/>
<path fill-rule="evenodd" clip-rule="evenodd" d="M34.2259 65.6553V66.012H33.5222V65.6553H34.2259ZM34.2259 66.1512V68.3996H33.5222V66.1512H34.2259Z" fill="#231F20"/>
<path fill-rule="evenodd" clip-rule="evenodd" d="M35.0825 67.0219H34.4406V66.8709C34.4406 66.6974 34.4611 66.5632 34.5013 66.4681C34.5405 66.374 34.6219 66.2907 34.7424 66.2182C34.863 66.1456 35.0208 66.1094 35.2139 66.1094C35.4452 66.1094 35.6196 66.1505 35.7373 66.2329C35.8549 66.3142 35.9254 66.4152 35.949 66.5347C35.9725 66.6533 35.9842 66.8994 35.9842 67.2708V68.3999H35.3187V68.199C35.2766 68.2794 35.2227 68.3401 35.157 68.3803C35.0904 68.4205 35.012 68.4411 34.9208 68.4411C34.8003 68.4411 34.6905 68.4078 34.5905 68.3401C34.4905 68.2735 34.4406 68.1255 34.4406 67.8991V67.7138C34.4406 67.5453 34.467 67.4306 34.5199 67.3698C34.5738 67.309 34.7052 67.2375 34.9159 67.1561C35.1413 67.0679 35.2619 67.0091 35.2776 66.9778C35.2933 66.9474 35.3011 66.8856 35.3011 66.7915C35.3011 66.6739 35.2923 66.5975 35.2746 66.5622C35.257 66.5269 35.2276 66.5093 35.1864 66.5093C35.1404 66.5093 35.111 66.524 35.1002 66.5534C35.0884 66.5838 35.0825 66.6612 35.0825 66.7866V67.0219ZM35.3011 67.3306C35.1913 67.411 35.1266 67.4776 35.109 67.5325C35.0914 67.5864 35.0825 67.6648 35.0825 67.7658C35.0825 67.8824 35.0904 67.9579 35.1061 67.9912C35.1208 68.0255 35.1511 68.0422 35.1972 68.0422C35.2403 68.0422 35.2688 68.0285 35.2815 68.002C35.2942 67.9755 35.3011 67.9059 35.3011 67.7932V67.3306Z" fill="#231F20"/>
<path d="M36.927 65.6553V68.3996H36.2233V65.6553H36.927Z" fill="#231F20"/>
<path d="M37.9513 65.6553H38.3188V68.8465H37.9513V65.6553Z" fill="#231F20"/>
<path fill-rule="evenodd" clip-rule="evenodd" d="M40.5888 65.6553L40.9975 68.3996H40.2683L40.2301 67.9066H39.9723L39.9331 68.3996H39.1951L39.5567 65.6553H40.5888ZM40.2105 67.4205C40.1762 67.1098 40.1409 66.7246 40.1017 66.2649C40.0321 66.7922 39.987 67.1774 39.9674 67.4205H40.2105Z" fill="#231F20"/>
<path fill-rule="evenodd" clip-rule="evenodd" d="M42.648 66.1515V68.7185H41.9639V68.2176C41.8973 68.3156 41.8355 68.3774 41.7806 68.4029C41.7238 68.4283 41.6552 68.4411 41.5728 68.4411C41.4533 68.4411 41.3533 68.4127 41.2749 68.3568C41.1965 68.2999 41.1436 68.2264 41.1161 68.1363C41.0896 68.0471 41.0759 67.9089 41.0759 67.7236V66.7318C41.0759 66.5798 41.0857 66.4661 41.1063 66.3907C41.1269 66.3152 41.1759 66.2495 41.2523 66.1937C41.3298 66.1378 41.4219 66.1094 41.5278 66.1094C41.613 66.1094 41.6924 66.129 41.765 66.1682C41.8365 66.2064 41.9031 66.2652 41.9629 66.3436L41.9747 66.1515H42.648ZM41.9639 66.7631C41.9639 66.6631 41.9561 66.5965 41.9414 66.5612C41.9257 66.5259 41.8982 66.5093 41.8581 66.5093C41.8198 66.5093 41.7934 66.524 41.7797 66.5543C41.7659 66.5847 41.7591 66.6543 41.7591 66.7631V67.7648C41.7591 67.8854 41.7659 67.9618 41.7797 67.9941C41.7934 68.0265 41.8218 68.0422 41.863 68.0422C41.9031 68.0422 41.9296 68.0255 41.9433 67.9922C41.9571 67.9589 41.9639 67.8863 41.9639 67.7746V66.7631Z" fill="#231F20"/>
<path d="M44.4623 66.1514V68.3998H43.7674L43.7791 68.2126C43.7311 68.288 43.6733 68.3459 43.6037 68.3841C43.5341 68.4223 43.4547 68.4409 43.3645 68.4409C43.2616 68.4409 43.1763 68.4233 43.1087 68.387C43.0411 68.3508 42.9911 68.3027 42.9588 68.2429C42.9274 68.1832 42.9068 68.1204 42.899 68.0557C42.8911 67.9901 42.8872 67.8617 42.8872 67.6686V66.1514H43.5704V67.6813C43.5704 67.8558 43.5762 67.9597 43.587 67.993C43.5978 68.0254 43.6262 68.042 43.6742 68.042C43.7242 68.042 43.7546 68.0254 43.7644 67.9911C43.7742 67.9577 43.7791 67.848 43.7791 67.6647V66.1514H44.4623Z" fill="#231F20"/>
<path fill-rule="evenodd" clip-rule="evenodd" d="M45.3169 67.0219H44.6749V66.8709C44.6749 66.6974 44.6955 66.5632 44.7357 66.4681C44.7759 66.374 44.8562 66.2907 44.9768 66.2182C45.0974 66.1456 45.2552 66.1094 45.4482 66.1094C45.6796 66.1094 45.854 66.1505 45.9716 66.2329C46.0892 66.3142 46.1598 66.4152 46.1833 66.5347C46.2069 66.6533 46.2186 66.8994 46.2186 67.2708V68.3999H45.5531V68.199C45.511 68.2794 45.4571 68.3401 45.3914 68.3803C45.3247 68.4205 45.2463 68.4411 45.1552 68.4411C45.0346 68.4411 44.9249 68.4078 44.8249 68.3401C44.7249 68.2735 44.6749 68.1255 44.6749 67.8991V67.7138C44.6749 67.5453 44.7014 67.4306 44.7553 67.3698C44.8082 67.309 44.9396 67.2375 45.1503 67.1561C45.3757 67.0679 45.4963 67.0091 45.5119 66.9778C45.5276 66.9474 45.5355 66.8856 45.5355 66.7915C45.5355 66.6739 45.5267 66.5975 45.509 66.5622C45.4914 66.5269 45.462 66.5093 45.4208 66.5093C45.3747 66.5093 45.3453 66.524 45.3345 66.5534C45.3228 66.5838 45.3169 66.6612 45.3169 66.7866V67.0219ZM45.5355 67.3306C45.4247 67.411 45.361 67.4776 45.3434 67.5325C45.3257 67.5864 45.3169 67.6648 45.3169 67.7658C45.3169 67.8824 45.3247 67.9579 45.3404 67.9912C45.3551 68.0255 45.3865 68.0422 45.4316 68.0422C45.4747 68.0422 45.5031 68.0285 45.5159 68.002C45.5286 67.9755 45.5355 67.9059 45.5355 67.7932V67.3306Z" fill="#231F20"/>
<path fill-rule="evenodd" clip-rule="evenodd" d="M47.1527 66.1515L47.1409 66.3505C47.2017 66.2701 47.2693 66.2093 47.3428 66.1692C47.4163 66.13 47.4967 66.1094 47.5839 66.1094C47.6898 66.1094 47.7819 66.1388 47.8593 66.1956C47.9368 66.2525 47.9848 66.3181 48.0044 66.3926C48.023 66.4681 48.0328 66.5945 48.0328 66.7729V67.7207C48.0328 67.9255 48.0211 68.0706 47.9966 68.1568C47.972 68.2431 47.9221 68.3127 47.8476 68.3637C47.7721 68.4156 47.681 68.4411 47.5751 68.4411C47.4898 68.4411 47.4124 68.4215 47.3399 68.3813C47.2673 68.3421 47.2007 68.2823 47.1409 68.2039V68.7185H46.4578V66.1515H47.1527ZM47.3497 66.8053C47.3497 66.6661 47.3438 66.5818 47.334 66.5524C47.3232 66.523 47.2948 66.5093 47.2487 66.5093C47.2036 66.5093 47.1742 66.5259 47.1605 66.5593C47.1478 66.5936 47.1409 66.6749 47.1409 66.8053V67.7374C47.1409 67.8726 47.1478 67.9579 47.1615 67.9912C47.1752 68.0255 47.2046 68.0422 47.2507 68.0422C47.2948 68.0422 47.3222 68.0265 47.333 67.9951C47.3438 67.9647 47.3497 67.8893 47.3497 67.7697V66.8053Z" fill="#231F20"/>
<path fill-rule="evenodd" clip-rule="evenodd" d="M48.8689 67.0219H48.2269V66.8709C48.2269 66.6974 48.2475 66.5632 48.2877 66.4681C48.3279 66.374 48.4083 66.2907 48.5288 66.2182C48.6503 66.1456 48.8072 66.1094 49.0002 66.1094C49.2316 66.1094 49.406 66.1505 49.5236 66.2329C49.6412 66.3142 49.7118 66.4152 49.7353 66.5347C49.7589 66.6533 49.7706 66.8994 49.7706 67.2708V68.3999H49.1051V68.199C49.063 68.2794 49.0091 68.3401 48.9434 68.3803C48.8767 68.4205 48.7983 68.4411 48.7072 68.4411C48.5876 68.4411 48.4769 68.4078 48.3769 68.3401C48.2769 68.2735 48.2269 68.1255 48.2269 67.8991V67.7138C48.2269 67.5453 48.2534 67.4306 48.3073 67.3698C48.3602 67.309 48.4925 67.2375 48.7023 67.1561C48.9277 67.0679 49.0483 67.0091 49.064 66.9778C49.0796 66.9474 49.0875 66.8856 49.0875 66.7915C49.0875 66.6739 49.0787 66.5975 49.061 66.5622C49.0434 66.5269 49.014 66.5093 48.9738 66.5093C48.9267 66.5093 48.8973 66.524 48.8865 66.5534C48.8748 66.5838 48.8689 66.6612 48.8689 66.7866V67.0219ZM49.0875 67.3306C48.9777 67.411 48.913 67.4776 48.8954 67.5325C48.8777 67.5864 48.8689 67.6648 48.8689 67.7658C48.8689 67.8824 48.8767 67.9579 48.8924 67.9912C48.9081 68.0255 48.9375 68.0422 48.9836 68.0422C49.0267 68.0422 49.0551 68.0285 49.0679 68.002C49.0806 67.9755 49.0875 67.9059 49.0875 67.7932V67.3306Z" fill="#231F20"/>
<path d="M50.6898 66.1515L50.6653 66.4475C50.7653 66.2348 50.9094 66.1221 51.0986 66.1094V66.9013C50.9731 66.9013 50.881 66.918 50.8222 66.9513C50.7634 66.9856 50.7271 67.0326 50.7134 67.0934C50.6996 67.1532 50.6928 67.2934 50.6928 67.5109V68.3999H50.0096V66.1515H50.6898Z" fill="#231F20"/>
<path d="M52.7236 66.1512L52.4453 67.048L52.803 68.3996H52.1493L51.9336 67.4205L51.9317 68.3996H51.2485V65.6553H51.9317L51.9336 66.8089L52.1493 66.1512H52.7236Z" fill="#231F20"/>
<path fill-rule="evenodd" clip-rule="evenodd" d="M39.8184 27.6641C42.4706 33.8819 41.8737 39.647 38.0277 44.9583C40.5888 39.4059 41.1857 33.6408 39.8184 27.6641Z" fill="#231F20"/>
<path fill-rule="evenodd" clip-rule="evenodd" d="M43.9947 31.4355C45.2777 38.7737 42.9137 44.33 36.9006 48.1035C42.0286 43.4126 44.3937 37.8573 43.9947 31.4355Z" fill="#231F20"/>
<path fill-rule="evenodd" clip-rule="evenodd" d="M47.3948 13.6152C51.2378 19.6714 51.6377 26.5058 48.5964 34.1145C50.3322 27.0958 49.9323 20.2624 47.3948 13.6152Z" fill="#231F20"/>
<path fill-rule="evenodd" clip-rule="evenodd" d="M51.8524 16.5664C54.2419 22.7755 53.6048 29.1355 49.9431 35.6464C52.3826 28.9394 53.0187 22.5794 51.8524 16.5664Z" fill="#231F20"/>
<path fill-rule="evenodd" clip-rule="evenodd" d="M1.34579 12.6729C-1.88273 23.0347 0.86259 32.4223 9.5788 40.8347C2.67777 31.7509 -0.700702 22.9524 1.34579 12.6729Z" fill="#231F20"/>
<path d="M38.1012 19.9017C38.4198 19.7743 38.8324 19.4322 39.1255 19.244C39.1941 16.8741 40.1997 17.4259 40.7946 16.7055C41.0338 16.1488 41.3121 15.6009 41.6238 15.0785C41.7924 14.857 42.0903 14.7208 42.5157 14.6708L42.3628 13.4496C41.565 13.0526 41.0436 12.344 41.0308 11.5462L41.1739 6.63576L41.4454 6.96704C41.9521 8.67735 41.4336 11.2472 41.9217 11.6001C41.9541 11.6638 42.0374 11.6383 42.0786 11.5893L42.3657 7.90306L42.7705 7.90894L43.0891 11.6491C43.2057 11.8431 43.3125 11.8529 43.538 11.5246L43.3802 7.14739L43.7026 6.58088C43.7742 7.33557 44.0447 8.80967 44.1437 9.56044C44.2084 10.0593 44.2642 11.0894 44.2642 11.5795C44.2633 13.4221 42.6715 12.5312 43.3018 16.0694C46.1 16.5712 45.6746 17.4043 44.52 18.8912C44.1192 19.4058 43.9849 21.0308 43.2077 21.5307C43.3214 22.8283 43.4507 26.9223 43.1783 28.3386C42.9087 28.5473 42.6549 28.5865 42.4157 28.4532C41.959 27.5937 42.5725 23.0783 42.5833 21.858C42.4559 21.5699 42.0256 21.2327 41.7179 21.1317C41.6277 21.1455 41.0485 21.2249 40.9995 21.2474C40.1722 21.6247 39.2127 21.6189 38.3521 21.9531C37.3171 22.3559 36.0087 23.289 34.9452 23.6467C34.6649 23.7408 33.7338 24.3622 33.4055 24.4151C32.9262 24.5651 32.4606 24.5445 32.0108 24.3524C31.0953 23.6065 29.0782 21.8982 28.1413 21.5904C28.2334 22.6274 28.1187 23.2429 30.3416 25.5511C43.4027 36.4981 36.832 47.5342 25.8046 48.9515C13.7384 50.503 7.37446 38.0702 12.4907 31.5465C15.731 27.4143 18.7056 25.2659 21.3921 21.7786C21.3921 21.7786 16.0377 22.5078 15.8564 22.9175C15.7349 24.3387 14.1314 24.2985 13.5835 23.0195C13.4424 22.6235 13.4287 22.2971 13.4179 22.0932C8.9995 19.2323 6.91283 18.2698 6.91283 18.2698C6.25516 18.705 3.93816 23.9957 3.41183 25.0326C2.75221 25.5246 2.71791 25.3178 2.71399 24.5916C2.82474 23.7134 4.51643 19.342 4.92024 18.456C5.47989 17.568 4.56446 17.4436 4.28512 16.6173C4.14104 16.0322 4.35373 15.8695 4.88496 15.7029C5.49067 15.5039 4.92514 14.8805 6.06698 14.4973C6.37866 13.9778 7.11571 13.0605 7.82924 13.4113C8.30558 12.7213 9.07007 10.6337 8.94461 9.81331C7.8165 2.39772 19.8171 9.27719 10.7206 11.5119C10.4628 11.6981 9.83064 11.2561 9.16122 12.1274L8.76231 13.8504C9.62188 13.4809 10.5922 14.0308 10.1609 15.0178C9.36705 15.6676 9.30824 16.5389 9.65128 17.6484C11.1293 18.554 11.8615 18.8833 13.7884 19.6959C13.7452 18.2482 16.4053 17.3348 16.8111 20.0556C19.183 20.0458 22.5702 18.605 23.7836 15.2157C23.5621 15.0962 23.0348 15.0971 22.7839 15.0148C22.0606 14.8482 21.1618 14.5424 20.5228 14.1837C19.918 13.8436 19.2427 13.4143 18.7243 13.0271C18.1352 12.5861 18.3685 13.2114 17.4913 12.686C16.6395 12.1715 16.1318 10.6513 17.9157 10.3612L18.5096 9.0694C19.1535 7.96089 20.6208 8.16671 21.0932 7.46789C21.1893 6.98371 21.1275 6.48384 20.8413 6.06533C19.819 6.1457 17.5854 6.33879 16.6199 6.00359C12.2045 2.43497 18.0166 1.19708 19.5338 0.954005C19.7632 0.917741 22.8966 0.960866 23.2416 1.1118C24.2159 0.725637 27.7874 0.049354 28.8224 0.0130894C29.6271 -0.0143539 30.619 0.375734 31.3462 0.695253C32.4332 1.4176 33.1908 1.79593 32.7576 2.65255C31.949 4.54321 29.83 5.4606 27.9737 5.88205C27.7708 6.39857 27.6826 6.61126 27.6875 7.16895C28.4255 7.52571 30.5818 8.08046 31.3139 8.41468C31.754 8.61561 31.6628 9.31051 32.097 9.52712C32.097 9.51536 34.7365 10.6405 32.5194 11.9725C32.5244 11.9 31.459 12.1695 31.0561 12.5302C29.9535 13.5231 29.7771 13.7995 29.5369 14.0131C29.3135 14.2111 29.0361 14.3552 27.9119 14.9638C27.8835 14.9795 26.7789 15.3304 26.7407 15.3667C26.7897 16.3311 27.1964 19.4557 30.8219 20.133C31.2835 19.9164 31.7226 19.6518 32.1588 19.396C33.971 18.9569 35.0393 20.382 34.9815 20.5309C35.5392 20.529 37.7592 20.0389 38.1012 19.9017Z" fill="#231F20"/>
<path d="M14.0903 19.3858C14.497 18.29 16.4249 18.6958 16.3828 19.8484L15.4997 23.3798C15.1273 24.0914 13.9041 23.7503 13.7296 22.4575L14.0903 19.3858Z" fill="white"/>
<path d="M26.7211 14.9798C26.6956 14.9867 26.6741 14.9935 26.6564 15.0023C25.1333 15.0876 24.1954 14.9602 23.6141 14.8151C23.5691 14.7995 23.522 14.7877 23.471 14.7769L23.4348 14.7661C23.2172 14.7279 22.9526 14.7142 22.6771 14.6475C22.2488 14.5476 21.7745 14.4231 21.3246 14.2329C20.466 13.8703 18.4234 12.4844 18.2744 12.4825C18.1784 12.4805 18.0451 12.5511 17.95 12.5491C17.4943 12.5422 16.9434 11.9649 16.9376 11.6023C16.9287 11.0779 17.854 10.9299 18.0794 10.7516C18.3372 10.2341 18.4832 9.62344 18.8694 9.16278C19.3026 8.64038 21.3491 7.90137 21.3873 7.90137C22.7595 7.92195 21.4451 9.73125 22.4184 9.74595L23.3681 9.75968C23.8435 9.76654 28.1384 8.10719 29.4096 8.12581C29.5821 8.12777 31.2581 8.65998 31.5061 8.88737C31.7452 9.10594 31.806 9.4774 31.9922 9.74889C32.0608 9.84887 33.2242 10.4399 33.2291 10.7271C33.233 10.9956 32.9557 11.3945 32.6499 11.4572C31.6462 11.668 30.5338 12.655 29.4312 13.6302C28.6745 14.3006 27.6091 14.7367 26.7211 14.9798Z" fill="white"/>
<path d="M26.5996 15.8626C26.8868 17.6925 28.3599 20.3026 30.8278 20.4957C31.2062 21.6395 31.4051 22.6294 31.4218 23.4654C31.3032 23.3801 28.6059 21.2386 28.0786 21.2307C27.9826 21.2298 27.9473 21.3905 27.9483 21.4807C27.9698 22.8342 28.653 24.5818 30.2104 25.9667C36.2803 31.3642 36.8713 34.9367 37.0683 35.8777C36.9389 35.8826 36.7899 35.8796 36.6478 35.9071C36.6948 36.254 36.7429 36.8656 36.7439 36.9558C36.7791 39.2101 36.0048 42.0103 33.4056 43.9303C35.0355 41.828 35.9323 39.0238 35.898 36.8352C35.8882 36.208 35.9068 35.4239 34.863 35.516C34.5954 35.5395 28.9539 34.6555 27.3229 34.631L26.0605 34.6133L23.2956 34.43L19.4967 34.3389C18.5763 34.3252 18.5146 34.0909 18.5293 35.024C18.5812 38.3681 20.0093 41.827 22.0979 45.2721C17.5374 43.0257 15.3145 38.4377 13.2886 35.2151L11.0637 35.7542C12.0958 30.83 16.2123 28.6326 21.6265 22.0158C22.1499 21.3758 21.5069 21.4228 21.2913 21.4199C21.0276 21.416 17.2845 22.154 16.1917 22.453L16.623 20.4584C18.7018 20.7544 23.5211 17.815 23.9827 15.7744C24.9373 15.9479 25.7234 15.9871 26.5996 15.8626Z" fill="white"/>
<path d="M31.2698 20.4606C32.1225 19.0982 33.5574 18.9816 34.6688 20.589C34.5865 21.5407 34.2307 22.2042 34.2376 23.5813C33.331 24.4644 32.3038 24.4066 31.8049 23.6117C31.6452 21.9925 31.5324 21.2839 31.2698 20.4606Z" fill="white"/>
<path fill-rule="evenodd" clip-rule="evenodd" d="M20.76 5.75879L20.8747 5.76075L21.3628 7.50732L20.9423 7.62592C21.1315 7.19075 21.0707 6.56837 20.76 5.75879Z" fill="#231F20"/>
<path d="M6.16212 16.7255C6.51497 17.2273 6.49537 17.2577 6.33757 17.6125C6.13958 17.9261 5.60444 17.8183 4.83994 16.9539C4.54101 16.4962 4.57531 15.8248 5.20161 15.9934C5.4437 16.0384 5.7642 16.2825 6.16212 16.7255Z" fill="white"/>
<path d="M8.51538 14.516C8.78099 15.0374 8.85058 15.0521 8.6918 15.4089C8.49186 15.7254 7.95377 15.6166 7.18242 14.7453C6.88152 14.2837 6.91582 13.6074 7.548 13.7779C7.83126 13.9054 8.15372 14.1514 8.51538 14.516Z" fill="white"/>
<path fill-rule="evenodd" clip-rule="evenodd" d="M32.6439 1.9707C32.7037 2.01089 32.7106 2.05989 32.692 2.09518C32.6724 2.05989 32.6332 2.02265 32.6439 1.9707Z" fill="white"/>
<path d="M11.2049 6.8578C11.8713 6.8676 13.96 7.65072 13.9786 8.79844C14.0011 10.2961 11.1539 11.1468 10.4688 11.2086C10.0287 11.2468 9.27107 11.2154 9.00742 11.8349C8.76239 12.4102 8.56637 13.5961 8.56833 13.6863C8.57127 13.8794 8.75847 14.245 8.96038 14.2479C9.05643 14.2489 9.40045 14.147 9.49552 14.1479C9.72585 14.1509 10.0728 14.242 10.0758 14.443C10.0797 14.7076 9.24755 15.4486 9.26029 16.2787C9.30146 18.9319 10.7942 18.3644 13.7296 20.0639L13.5571 21.9507C12.2947 20.9794 7.26183 17.9165 6.8688 17.9106C5.97689 17.8979 4.30775 23.0249 2.96106 24.9165C3.4325 22.6358 4.63315 20.2806 5.34863 17.9616C5.62405 18.1792 5.78381 18.1459 5.95141 18.1488C6.33561 18.1547 6.83057 17.9332 6.82371 17.498C6.82273 17.4078 6.70414 17.0736 6.58947 16.8364C6.92075 16.9815 7.41473 17.2373 7.51078 17.2392C7.99986 17.2461 8.38897 16.956 8.38113 16.4983C8.38015 16.4091 8.338 16.1611 8.30076 15.9661C9.08681 15.9396 9.21325 15.6906 9.20639 15.2555C9.19659 14.6145 7.99202 13.6559 7.99006 13.553C7.99006 13.5079 9.21521 10.9263 9.20345 10.1275C9.20149 10.0383 9.1123 9.19441 9.11033 9.10424C9.09171 7.90751 9.58373 6.83428 11.2049 6.8578Z" fill="white"/>
<path d="M43.5468 7.07849C43.7781 7.10299 44.179 11.2087 44.179 11.2087C44.2064 12.9749 42.9215 12.3329 42.9577 14.6333C42.9587 14.7224 43.0724 15.9535 43.0744 16.0427C43.0744 16.0476 42.5069 16.1985 42.6461 16.816C42.7088 17.0914 42.7617 17.3903 42.9175 17.6452C42.548 17.5403 42.1962 17.455 42.1001 17.4531C41.6395 17.4462 41.319 17.8412 41.3248 18.1774C41.3288 18.4371 41.4513 18.7929 41.6434 19.1242C41.1592 19.084 40.8064 19.3976 40.8122 19.7838C40.8171 20.0661 40.9504 20.4973 41.3258 20.7992C40.2114 21.0021 39.0833 21.2491 38.0679 21.6695C36.9917 22.1155 35.7715 22.8819 34.661 23.3661L35.0041 20.9423C36.3909 20.6649 38.0728 20.9237 39.3038 19.6064C39.6626 19.2212 39.3479 18.5929 39.6087 18.1078C39.9164 17.5344 40.5378 17.5893 40.9896 17.0493C41.5689 16.3632 41.467 15.0733 42.699 15.0233C42.7372 15.0243 42.7705 14.9528 42.7686 14.8636C42.7617 14.3569 42.7049 13.7139 42.4236 13.1807C42.2903 12.9278 41.7767 12.9063 41.5934 12.5221C41.563 12.4593 41.5375 12.376 41.5121 12.3045C41.5023 12.2721 41.2239 11.5753 41.2327 11.5625L41.1857 7.06575C41.7394 6.94421 41.3239 11.7439 41.9982 11.8527C42.4392 11.9242 42.4108 8.48888 42.5892 8.03705C42.7578 8.47222 42.7088 11.2607 43.0646 11.784C43.34 12.1908 43.6536 11.5723 43.6585 11.4557C43.6585 11.4557 43.3351 6.94617 43.5468 7.07849Z" fill="white"/>
<path d="M6.32284 14.8907C6.86191 14.8985 7.74107 16.0541 7.74499 16.304C7.7499 16.6412 7.6411 16.7392 7.37353 16.7343C6.7786 16.7254 5.91413 15.81 5.90727 15.3631C5.90433 15.1965 6.05527 14.8867 6.32284 14.8907Z" fill="white"/>
<path d="M42.9744 16.4741C43.6056 16.1673 44.7964 16.6299 45.0601 17.0828C45.1659 17.267 45.2355 17.4356 44.9699 17.565C44.5602 17.7649 43.1185 17.4787 42.8999 17.1024C42.8754 17.0592 42.7 16.6074 42.9744 16.4741Z" fill="white"/>
<path d="M42.1149 17.9591C42.7324 17.7856 43.8958 18.4404 44.0713 18.9765C44.1428 19.1911 44.0801 19.3715 43.8439 19.4381C43.4107 19.5597 42.0444 18.9618 41.9189 18.5795C41.8679 18.4266 41.8836 18.0248 42.1149 17.9591Z" fill="white"/>
<path d="M41.7121 19.542C42.4315 19.5518 43.2793 20.4839 43.2871 20.9965C43.291 21.2288 43.1734 21.3435 43.0029 21.3406C42.5932 21.3347 41.3327 20.4888 41.3269 20.0782C41.3239 19.8988 41.3955 19.5371 41.7121 19.542Z" fill="white"/>
<path d="M42.8078 21.9153C42.8598 21.9114 42.9372 21.9487 43.0274 21.9555L43.1783 26.3455C43.096 26.9512 43.4665 28.0156 42.5648 28.1803C42.4011 27.801 42.5412 27.649 42.5383 27.4285L42.8078 21.9153Z" fill="white"/>
<path d="M20.9472 10.4058C20.9413 10.0295 21.2628 9.72858 21.6657 9.73446C22.0685 9.74034 22.3998 10.0501 22.4056 10.4264C22.4115 10.8028 22.0891 11.1037 21.6862 11.0978C21.2844 11.0919 20.9531 10.7822 20.9472 10.4058Z" fill="#231F20"/>
<path fill-rule="evenodd" clip-rule="evenodd" d="M24.2924 10.8704C28.2432 10.4479 27.5101 13.1531 24.312 12.1484C27.8816 12.1465 26.6995 10.9586 24.2924 10.8704Z" fill="#231F20"/>
<path fill-rule="evenodd" clip-rule="evenodd" d="M20.9404 12.4499C21.062 12.5283 21.1815 12.6038 21.3001 12.6763C22.9409 13.5712 26.3007 13.8133 28.7598 11.9902C26.5056 14.2347 24.3277 14.5209 21.3001 12.6763C21.1688 12.6048 21.0482 12.5293 20.9404 12.4499Z" fill="#231F20"/>
<path d="M26.9915 9.95565C26.9857 9.57928 27.3071 9.27838 27.71 9.28426C28.1118 9.29015 28.4431 9.59986 28.449 9.97623C28.4549 10.3526 28.1334 10.6535 27.7305 10.6476C27.3277 10.6417 26.9974 10.332 26.9915 9.95565Z" fill="#231F20"/>
<path fill-rule="evenodd" clip-rule="evenodd" d="M34.5012 6.19161C36.5516 5.46338 37.7082 4.18922 37.9708 2.36914C38.2835 5.21345 37.127 6.48761 34.5012 6.19161Z" fill="#231F20"/>
<path fill-rule="evenodd" clip-rule="evenodd" d="M33.7152 5.03309C35.1452 4.18626 35.8391 2.76215 35.798 0.760742C37.2319 3.45607 36.538 4.88019 33.7152 5.03309Z" fill="#231F20"/>
<path d="M22.191 1.73394C21.8058 1.60554 21.1697 1.53007 20.1034 1.62025C17.5266 2.08972 16.0065 2.80815 15.5419 3.77651C15.486 4.35282 15.9771 5.02518 17.017 5.79556C17.6335 5.91807 18.9576 5.87201 20.9884 5.65932C21.3834 5.71127 21.5324 6.40813 21.6686 7.49803C23.5328 6.80508 25.4617 6.66885 27.4552 7.08932L27.614 6.52183L26.5477 6.72569L26.5016 6.36305C24.5825 6.4836 22.9261 6.13566 21.5324 5.31922C25.3911 6.69237 28.2962 5.9367 30.2456 3.05024L29.6331 4.52532C33.6947 2.00641 31.7433 0.645026 28.748 0.508789C27.8296 0.608761 26.4761 0.895937 24.6864 1.3713C23.622 1.61731 22.4115 2.54744 21.056 4.1617C20.6414 4.03036 21.6235 2.36906 22.191 1.73394Z" fill="white"/>
<path fill-rule="evenodd" clip-rule="evenodd" d="M42.3129 1.94043C42.5383 1.94043 42.7588 1.99826 42.9735 2.11391C43.1881 2.22957 43.3547 2.39521 43.4753 2.60985C43.5949 2.82548 43.6546 3.04993 43.6546 3.28319C43.6546 3.5145 43.5949 3.73699 43.4772 3.95066C43.3596 4.16432 43.194 4.32996 42.9813 4.44758C42.7686 4.56519 42.5451 4.62498 42.3129 4.62498C42.0806 4.62498 41.8581 4.56519 41.6454 4.44758C41.4327 4.32996 41.2671 4.16432 41.1485 3.95066C41.0299 3.73699 40.9701 3.5145 40.9701 3.28319C40.9701 3.04993 41.0299 2.82548 41.1504 2.60985C41.271 2.39521 41.4386 2.22957 41.6532 2.11391C41.8679 1.99826 42.0874 1.94043 42.3129 1.94043ZM42.3129 2.16292C42.1247 2.16292 41.9414 2.21094 41.763 2.30797C41.5836 2.40501 41.4445 2.54222 41.3435 2.72257C41.2426 2.90193 41.1926 3.08913 41.1926 3.28319C41.1926 3.47628 41.2416 3.6625 41.3406 3.83892C41.4396 4.01632 41.5787 4.15452 41.7561 4.25351C41.9345 4.35251 42.1198 4.40249 42.3129 4.40249C42.5069 4.40249 42.6922 4.35251 42.8696 4.25351C43.0479 4.15452 43.1861 4.01632 43.2851 3.83892C43.3831 3.6625 43.4322 3.47628 43.4322 3.28319C43.4322 3.08913 43.3822 2.90193 43.2822 2.72257C43.1822 2.5432 43.0421 2.40501 42.8627 2.30797C42.6833 2.21094 42.501 2.16292 42.3129 2.16292ZM41.7238 4.02319V2.58143H42.2207C42.3903 2.58143 42.5138 2.59515 42.5893 2.62161C42.6647 2.64808 42.7255 2.69512 42.7716 2.76079C42.8157 2.82744 42.8382 2.89801 42.8382 2.9725C42.8382 3.07737 42.801 3.1695 42.7255 3.24791C42.65 3.32632 42.5491 3.36945 42.4246 3.37925C42.4756 3.40081 42.5167 3.42629 42.5471 3.4557C42.6059 3.51254 42.6765 3.60761 42.7608 3.74091L42.9372 4.02319H42.6539L42.5255 3.79678C42.4246 3.61742 42.3432 3.50568 42.2815 3.4606C42.2384 3.42727 42.1766 3.41159 42.0943 3.41159H41.9571V4.02319H41.7238ZM41.9571 3.21165H42.2403C42.3756 3.21165 42.4677 3.19204 42.5167 3.15186C42.5667 3.11167 42.5912 3.05777 42.5912 2.9921C42.5912 2.94995 42.5795 2.91173 42.5549 2.87841C42.5314 2.84508 42.4991 2.8196 42.4569 2.80294C42.4138 2.78627 42.3364 2.77843 42.2227 2.77843H41.9571V3.21165Z" fill="#231F20"/>
</g>
<defs>
<clipPath id="clip0_212_1796">
<rect width="53.444" height="69.0005" fill="white"/>
</clipPath>
</defs>
</svg>
